<svg xmlns="http://www.w3.org/2000/svg" viewBox="0 0 1233 1011">
  <defs>
    <style>
      .cls-1 {
        fill: #73cd91;
      }

      .cls-2 {
        fill: #62b07b;
      }

      .cls-3 {
        fill: #3ca173;
      }

      .cls-4 {
        fill: #cdff97;
      }

      .cls-5 {
        fill: #35664f;
      }

      .cls-6 {
        fill: #74cd91;
      }

      .cls-7 {
        fill: #fff;
      }

      .cls-8 {
        fill: #ff5e45;
      }
    </style>
  </defs>
  <g id="Sick">
    <g>
      <path class="cls-1" d="M113.35,598.16s-27.16-5.51-72.53-55.08S.49,466.62.49,466.62s5.11-19.71,30.24,0c42.86,33.61,104.52,48.2,104.52,48.2l-21.9,83.34"/>
      <path class="cls-2" d="M350.47,766.28s-13.63,105.58,19.58,186.47,52.79-5.11,52.79-5.11,14.92-40.21,44.28-73.18c21.7-24.37,34.91-87.75,28.1-97.11S435.62,667.51,350.47,766.28Z"/>
      <path class="cls-2" d="M1042.74,536.38s70.6,84.24,74.16,186.29c0,0,6.53,22.55-11.86,35.6s-35.6-23.73-35.6-23.73S1055.79,709,1016,684.7,917.55,647.92,887.3,574.94,989.34,461.62,1042.74,536.38Z"/>
      <path class="cls-3" d="M100.83,637.16l55.53-211.34s3.09-35.48,32.4-49.36c0,0,116.88-96.84,157-116.9,0,0,33.44-21,61.14-24.84,0,0,194-55.29,310.53-42.82,0,0,85.74,3.63,109.4,42.52L995.67,428.27S660.8,1053.4,100.83,637.16Z"/>
      <path class="cls-4" d="M141.24,664.22s225,182.2,485.91,92.63S965.38,485.1,965.38,485.1l-97.72,45.49L781,535.67l-82.5,39L588.34,651.46,479,662.18,356.52,640.75l-83.67-1L219.8,664.22Z"/>
      <path class="cls-1" d="M355.05,662.53s23.58,41.7-40.27,150.08-157.13,137-157.13,137-25.2,7.56-36.13,39.49-32.76,17.65-32.76,17.65S68.59,994.94,84.55,895s52-153.76,52-153.76,50.55-95,111.89-105.87,106.65,27.2,106.65,27.2"/>
      <ellipse class="cls-2" cx="181.74" cy="731.94" rx="23.65" ry="13.8" transform="translate(-492.72 394.49) rotate(-49.48)"/>
      <ellipse class="cls-2" cx="162.84" cy="771.97" rx="14.59" ry="11.95" transform="translate(-529.77 394.14) rotate(-49.48)"/>
      <ellipse class="cls-2" cx="197.74" cy="757.87" rx="12.41" ry="10.91" transform="translate(-569.24 599.1) rotate(-63.68)"/>
      <path class="cls-1" d="M857.37,562.2S941.26,644.83,939.14,843c0,0-14.89,56.75-40.86,17.92s-70.77-68.69-70.77-68.69S751.84,762.31,707,699.59s-33.85-122.46-33.85-122.46S761.8,476.58,857.37,562.2Z"/>
      <ellipse class="cls-2" cx="884.12" cy="668.41" rx="13.86" ry="20.32" transform="translate(-174.52 340.22) rotate(-19.87)"/>
      <ellipse class="cls-2" cx="889.46" cy="707.3" rx="15.15" ry="13.44" transform="matrix(0.94, -0.34, 0.34, 0.94, -187.42, 344.34)"/>
      <circle class="cls-2" cx="861.89" cy="692" r="10.32"/>
      <path class="cls-5" d="M102,634.63s14,9.13,22.45,13.26,52,0,52,0,52.92-21.42,60.19-22.45,48.1-8.16,58.16-8.16,47.64-1.17,59.18,0,40.25,12.27,49,15.31,64.28,8.16,64.28,8.16,38.4,1.59,46.93,0,37-5.22,43.87-8.16l35.71-15.31s32.32-15.21,38.77-20.4l36.73-29.59L706,543.82s35.92-21.42,45.91-23.46l44.89-9.19,50-5.1,35.71-11.22L902.87,480l23.47-6.58,13.26,6.07,11.22,13.32-14.28,18.36-22.45,18.37s-17.76,8.94-25.5,13.26-39.66,8.27-31.63,7.14-43.47,1.86-52.22,3.15S768.4,557.4,759,560.66s-53,32.14-53,32.14l-25.51,18.36c6.29-4.53-10.14,10.45-18.36,16.32s-59.18,33.67-59.18,33.67L568.22,673.4a131.73,131.73,0,0,1-31.63,7.14c-17.36,1.62-97.23,1.05-112.23,0s-31-8.25-45.91-11.22l-35.71-7.15s-5.64-2.59-29.59-4.08-63.25,9.19-63.25,9.19-44,18-62.24,21.42-41.5,1.58-57.13,0A108.45,108.45,0,0,1,102,681.56a86.74,86.74,0,0,0-15.3-9.18c-8-3.57-11.23-17.35-11.23-17.35s-1.28-10.32,6.12-17.34S102,634.63,102,634.63Z"/>
      <ellipse class="cls-6" cx="939.14" cy="270.54" rx="293.54" ry="269.44"/>
      <ellipse class="cls-2" cx="778.51" cy="76.02" rx="25.04" ry="13.86" transform="translate(103.54 471.33) rotate(-35.93)"/>
      <ellipse class="cls-2" cx="740.21" cy="103.78" rx="11.6" ry="7.58" transform="translate(79.96 454.14) rotate(-35.93)"/>
      <circle class="cls-2" cx="810.24" cy="50.69" r="6.65"/>
      <ellipse class="cls-2" cx="766.81" cy="109.64" rx="11.6" ry="9.86" transform="translate(490.11 833.15) rotate(-77.21)"/>
      <g>
        <circle cx="779.64" cy="285.07" r="60.63" transform="translate(440.02 1042.54) rotate(-85.93)"/>
        <circle class="cls-7" cx="802.73" cy="262.72" r="17.85"/>
        <circle class="cls-7" cx="775.76" cy="290.74" r="11.6"/>
        <circle cx="1122" cy="219.93" r="60.63"/>
        <circle class="cls-7" cx="1089.48" cy="213.35" r="17.85"/>
        <circle class="cls-7" cx="1125.88" cy="224.43" r="11.6"/>
      </g>
      <g>
        <circle class="cls-7" cx="1085.52" cy="297.76" r="13.6"/>
        <rect class="cls-7" x="1059.86" y="299.6" width="12.65" height="93.56" transform="matrix(0.93, 0.37, -0.37, 0.93, 203.44, -369.45)"/>
        <circle class="cls-8" cx="1085.4" cy="298.08" r="9.96"/>
        <rect class="cls-8" x="1061.77" y="298.5" width="9.27" height="94.69" transform="translate(203.26 -369.56) rotate(21.69)"/>
      </g>
      <path d="M1064.46,394.74s-72.16-67.86-100.92,26.2l12-3.33s19-69.63,77.12-19.85Z"/>
    </g>
  </g>
</svg>
