<svg xmlns="http://www.w3.org/2000/svg" viewBox="0 0 272 93">
  <defs>
    <style>
      .cls-1 {
        fill: #ffbd60;
      }

      .cls-2 {
        fill: #fff;
      }
    </style>
  </defs>
  <g id="Back">
    <g>
      <rect class="cls-1" x="0.01" y="0.48" width="271.99" height="92.05" rx="40.26"/>
      <g>
        <path class="cls-2" d="M71.72,69.65c-.91,0-2,0-3.2-.08s-2.49-.16-3.8-.32-2.6-.36-3.88-.6a19.39,19.39,0,0,1-3.52-1q-4.4-1.68-4.4-5.84V24.45a3.52,3.52,0,0,1,.92-2.6,6.4,6.4,0,0,1,2.52-1.48,30.39,30.39,0,0,1,6.8-1.4,76.63,76.63,0,0,1,8.4-.44q10.25,0,15.76,3.44t5.52,10.64a9.61,9.61,0,0,1-2.08,6.2,11.9,11.9,0,0,1-5.6,3.8,13.75,13.75,0,0,1,6.68,4.08,10.64,10.64,0,0,1,2.68,7.44q0,7.92-5.88,11.72T71.72,69.65Zm-5.2-30.8h5.84q3.44,0,5-1.28a4.59,4.59,0,0,0,1.56-3.76,4,4,0,0,0-1.8-3.44,9.28,9.28,0,0,0-5.4-1.28c-.8,0-1.72,0-2.76.08a19,19,0,0,0-2.44.24Zm0,19.52a14.62,14.62,0,0,0,2.88.44q1.75.12,3.36.12a9.9,9.9,0,0,0,5.32-1.32,4.52,4.52,0,0,0,2.12-4.12,4.11,4.11,0,0,0-1.76-3.76,10.12,10.12,0,0,0-5.36-1.12H66.52Z"/>
        <path class="cls-2" d="M117.4,28.29a32.66,32.66,0,0,1,7.88.88,17.53,17.53,0,0,1,6.08,2.68,12.12,12.12,0,0,1,3.88,4.56,14.54,14.54,0,0,1,1.36,6.52V60.85a5,5,0,0,1-1.16,3.4,11.43,11.43,0,0,1-2.76,2.28q-5.2,3.12-14.64,3.12a33.63,33.63,0,0,1-7.64-.8,18.44,18.44,0,0,1-5.84-2.4,11,11,0,0,1-3.76-4.08,12.12,12.12,0,0,1-1.32-5.76q0-5.52,3.28-8.48t10.16-3.68l10.48-1.12v-.56a3.42,3.42,0,0,0-2-3.32,13.68,13.68,0,0,0-5.88-1,27,27,0,0,0-5.92.64,30.93,30.93,0,0,0-5.2,1.6,5.62,5.62,0,0,1-1.76-2.2,7,7,0,0,1-.72-3.08,5.1,5.1,0,0,1,1-3.32A7.64,7.64,0,0,1,106,30a23.52,23.52,0,0,1,5.48-1.28A47,47,0,0,1,117.4,28.29ZM118,59.73a18.61,18.61,0,0,0,3-.28,7.39,7.39,0,0,0,2.44-.76v-6.4l-5.76.48a8.67,8.67,0,0,0-3.68,1,2.58,2.58,0,0,0-1.44,2.4,3.19,3.19,0,0,0,1.24,2.6A6.85,6.85,0,0,0,118,59.73Z"/>
        <path class="cls-2" d="M166.84,39a11.19,11.19,0,0,0-3.8.64,8.66,8.66,0,0,0-3.12,1.88,9,9,0,0,0-2.12,3.08,10.78,10.78,0,0,0-.8,4.32q0,4.95,2.84,7.44a10.16,10.16,0,0,0,6.92,2.48,13.87,13.87,0,0,0,4.16-.56,28.46,28.46,0,0,0,3.12-1.2,8.14,8.14,0,0,1,2.4,2.44,6,6,0,0,1,.8,3.16,5.61,5.61,0,0,1-3.12,5.08q-3.12,1.8-8.64,1.8a26.76,26.76,0,0,1-9.12-1.48,20.8,20.8,0,0,1-7-4.16,18.5,18.5,0,0,1-4.52-6.44,21,21,0,0,1-1.6-8.32A23,23,0,0,1,145,39.93a17.9,17.9,0,0,1,4.68-6.52,19.67,19.67,0,0,1,6.84-3.84,25.83,25.83,0,0,1,8.2-1.28q5.76,0,8.88,2.08a6.22,6.22,0,0,1,3.12,5.36,5.85,5.85,0,0,1-.72,2.84,9.9,9.9,0,0,1-1.68,2.28A25.69,25.69,0,0,0,171,39.61,13.9,13.9,0,0,0,166.84,39Z"/>
        <path class="cls-2" d="M222,61.33a10,10,0,0,1-2.2,5.76,6.7,6.7,0,0,1-5.24,2A8.52,8.52,0,0,1,210,67.85a18.1,18.1,0,0,1-4.32-4.2l-7.92-9.92V68.29l-2.6.44a22.48,22.48,0,0,1-3.48.28,18.82,18.82,0,0,1-3.16-.24,5.4,5.4,0,0,1-2.36-1,4.69,4.69,0,0,1-1.48-2,8.45,8.45,0,0,1-.52-3.24V16.29a25.36,25.36,0,0,1,2.6-.52,21.31,21.31,0,0,1,3.48-.28,18.82,18.82,0,0,1,3.16.24,5.4,5.4,0,0,1,2.36,1,4.62,4.62,0,0,1,1.48,2,8.38,8.38,0,0,1,.52,3.24V43l13.76-14.08a11.06,11.06,0,0,1,6.68,1.84,5.53,5.53,0,0,1,2.52,4.64,5.82,5.82,0,0,1-.4,2.2,8.38,8.38,0,0,1-1.24,2,19.11,19.11,0,0,1-2.16,2.2l-3.08,2.68-4.64,4Z"/>
      </g>
    </g>
  </g>
</svg>
