<svg xmlns="http://www.w3.org/2000/svg" viewBox="0 0 540 142">
  <defs>
    <style>
      .cls-1 {
        fill: #ffbd60;
      }

      .cls-2 {
        fill: #fff;
      }
    </style>
  </defs>
  <g id="Continue">
    <g>
      <rect class="cls-1" x="0.32" y="0.22" width="539.36" height="141.55" rx="50"/>
      <g>
        <path class="cls-2" d="M70.88,50.06q-8.85,0-13.57,5.41T52.6,70.76q0,10,5.23,15.41t14.09,5.41a22.13,22.13,0,0,0,8-1.27,55.85,55.85,0,0,0,6.27-2.87,11.37,11.37,0,0,1,3,3.85,11.78,11.78,0,0,1,1.09,5.23q0,4.73-5.23,8t-15.92,3.28a47.16,47.16,0,0,1-14.49-2.18,32.3,32.3,0,0,1-11.85-6.73,31.72,31.72,0,0,1-8-11.5A42.58,42.58,0,0,1,31.9,70.76,41.23,41.23,0,0,1,34.71,55a33.69,33.69,0,0,1,7.71-11.56,32.47,32.47,0,0,1,11.44-7.13,40.27,40.27,0,0,1,14-2.41q10.58,0,16.39,3.45t5.8,8.85a8.92,8.92,0,0,1-1.49,5.18,12.57,12.57,0,0,1-3.45,3.45,36.81,36.81,0,0,0-6.38-3.34A20.81,20.81,0,0,0,70.88,50.06Z"/>
        <path class="cls-2" d="M155.87,77.78a34.5,34.5,0,0,1-2.19,12.7,25.88,25.88,0,0,1-6.15,9.38,26.31,26.31,0,0,1-9.49,5.75,36.74,36.74,0,0,1-12.3,2,34.82,34.82,0,0,1-12.31-2.07,27.11,27.11,0,0,1-9.49-5.92,26.53,26.53,0,0,1-6.15-9.37,33.44,33.44,0,0,1-2.18-12.42,33.11,33.11,0,0,1,2.18-12.31,26.53,26.53,0,0,1,6.15-9.37,27.11,27.11,0,0,1,9.49-5.92,34.82,34.82,0,0,1,12.31-2.07A34.14,34.14,0,0,1,138,50.23a28,28,0,0,1,9.49,6,26.57,26.57,0,0,1,6.15,9.38A32.77,32.77,0,0,1,155.87,77.78Zm-40.25,0q0,7,2.7,10.75a8.77,8.77,0,0,0,7.53,3.74,8.45,8.45,0,0,0,7.42-3.8q2.58-3.8,2.59-10.69t-2.65-10.64a9.34,9.34,0,0,0-15,0Q115.62,70.88,115.62,77.78Z"/>
        <path class="cls-2" d="M200.83,70.3c0-2.37-.67-4.12-2-5.23a8.3,8.3,0,0,0-5.46-1.67,18,18,0,0,0-4.55.58A11.51,11.51,0,0,0,185,65.7v39.91a26.66,26.66,0,0,1-3.62.69,37.1,37.1,0,0,1-5.12.34,27,27,0,0,1-4.54-.34,7.74,7.74,0,0,1-3.39-1.38,6.65,6.65,0,0,1-2.13-2.82,12.17,12.17,0,0,1-.75-4.66V62.94a8.89,8.89,0,0,1,1.32-5.06,13.85,13.85,0,0,1,3.63-3.56,32.84,32.84,0,0,1,9.83-4.49,47,47,0,0,1,13.17-1.72q13,0,20,5.69t7,15.81v36a26.66,26.66,0,0,1-3.62.69,37.1,37.1,0,0,1-5.12.34,27,27,0,0,1-4.54-.34,7.74,7.74,0,0,1-3.39-1.38,6.65,6.65,0,0,1-2.13-2.82,12.17,12.17,0,0,1-.75-4.66Z"/>
        <path class="cls-2" d="M252,86.52a4.73,4.73,0,0,0,1.89,4.25A9.55,9.55,0,0,0,259.25,92a23.41,23.41,0,0,0,3.57-.29A19.67,19.67,0,0,0,266,91a14.19,14.19,0,0,1,1.78,2.82,8.51,8.51,0,0,1,.75,3.74,8.91,8.91,0,0,1-3.28,7.13q-3.29,2.76-11.56,2.76-10.12,0-15.58-4.6T232.69,87.9V38.68c.84-.23,2.05-.48,3.62-.75a29.54,29.54,0,0,1,5-.4q5.06,0,7.88,1.78T252,46.84V54.2h15.06a20,20,0,0,1,1.32,3.16,13.31,13.31,0,0,1,.64,4.2c0,2.69-.6,4.62-1.79,5.81a6.44,6.44,0,0,1-4.77,1.78H252Z"/>
        <path class="cls-2" d="M278,34.31A10.07,10.07,0,0,1,280.93,27a11.56,11.56,0,0,1,15.52,0,10.07,10.07,0,0,1,2.93,7.36,10.1,10.1,0,0,1-2.93,7.36,11.56,11.56,0,0,1-15.52,0A10.11,10.11,0,0,1,278,34.31Zm20.47,71.3-3.73.63a31,31,0,0,1-5,.4,27.09,27.09,0,0,1-4.54-.34,7.74,7.74,0,0,1-3.39-1.38,6.65,6.65,0,0,1-2.13-2.82,12.19,12.19,0,0,1-.74-4.66V50.64c.84-.16,2.08-.37,3.73-.64a32.11,32.11,0,0,1,5-.4,27.15,27.15,0,0,1,4.55.35,7.74,7.74,0,0,1,3.39,1.38,6.68,6.68,0,0,1,2.13,2.81,12.42,12.42,0,0,1,.74,4.66Z"/>
        <path class="cls-2" d="M346.3,70.3c0-2.37-.67-4.12-2-5.23a8.3,8.3,0,0,0-5.46-1.67,17.83,17.83,0,0,0-4.54.58,11.57,11.57,0,0,0-3.86,1.72v39.91a26.34,26.34,0,0,1-3.62.69,37,37,0,0,1-5.12.34,27.09,27.09,0,0,1-4.54-.34,7.74,7.74,0,0,1-3.39-1.38,6.65,6.65,0,0,1-2.13-2.82,12.17,12.17,0,0,1-.75-4.66V62.94a8.81,8.81,0,0,1,1.33-5.06,13.8,13.8,0,0,1,3.62-3.56,32.84,32.84,0,0,1,9.83-4.49,47,47,0,0,1,13.17-1.72q13,0,20,5.69t7,15.81v36a26.34,26.34,0,0,1-3.62.69,37,37,0,0,1-5.12.34,27.09,27.09,0,0,1-4.54-.34,7.74,7.74,0,0,1-3.39-1.38,6.65,6.65,0,0,1-2.13-2.82,12.17,12.17,0,0,1-.75-4.66Z"/>
        <path class="cls-2" d="M377.93,50.64a26.34,26.34,0,0,1,3.62-.69,37,37,0,0,1,5.12-.35,27,27,0,0,1,4.54.35,7.74,7.74,0,0,1,3.39,1.38,6.68,6.68,0,0,1,2.13,2.81,12.21,12.21,0,0,1,.75,4.66V83.53q0,4.71,2.3,6.72c1.53,1.35,3.76,2,6.67,2a16.93,16.93,0,0,0,4.31-.46,16.06,16.06,0,0,0,2.59-.92V50.64A26.34,26.34,0,0,1,417,50a37,37,0,0,1,5.12-.35,27,27,0,0,1,4.54.35A7.74,7.74,0,0,1,430,51.33a6.68,6.68,0,0,1,2.13,2.81,12.21,12.21,0,0,1,.75,4.66v35a9.4,9.4,0,0,1-4.83,8.63,31.92,31.92,0,0,1-9.6,3.85,52.71,52.71,0,0,1-12.14,1.32,44.78,44.78,0,0,1-11.44-1.38,25.67,25.67,0,0,1-9-4.25A19,19,0,0,1,380,94.51a26.37,26.37,0,0,1-2.07-11Z"/>
        <path class="cls-2" d="M474.41,107.56a40.17,40.17,0,0,1-12.59-1.9A28.42,28.42,0,0,1,451.7,100a26.35,26.35,0,0,1-6.79-9.54A33.86,33.86,0,0,1,442.44,77a31.43,31.43,0,0,1,2.47-13,25.3,25.3,0,0,1,15.7-14.15,34.35,34.35,0,0,1,10.58-1.66A31.91,31.91,0,0,1,482.29,50,26.49,26.49,0,0,1,490.91,55a22.37,22.37,0,0,1,5.64,7.7,23.64,23.64,0,0,1,2,9.78,7.88,7.88,0,0,1-2.18,6,10.92,10.92,0,0,1-6.1,2.64l-28.4,4.26a9.53,9.53,0,0,0,5.17,5.69,20.39,20.39,0,0,0,9,1.9,32.24,32.24,0,0,0,8.91-1.21,28.41,28.41,0,0,0,6.85-2.82,9.68,9.68,0,0,1,3.1,3.22,8.44,8.44,0,0,1-3.56,12.08,25.79,25.79,0,0,1-8.28,2.64A58.45,58.45,0,0,1,474.41,107.56Zm-3.22-45.19a11.28,11.28,0,0,0-4.77.92,9.65,9.65,0,0,0-3.28,2.35,10.11,10.11,0,0,0-1.9,3.22,13.1,13.1,0,0,0-.74,3.63l19.66-3.22a8.63,8.63,0,0,0-2.53-4.6C476.17,63.13,474,62.37,471.19,62.37Z"/>
      </g>
    </g>
  </g>
</svg>
