<svg xmlns="http://www.w3.org/2000/svg" viewBox="0 0 1158 980">
  <defs>
    <style>
      .cls-1 {
        fill: #9dd3ca;
      }

      .cls-2 {
        fill: #e6f7f3;
      }

      .cls-3 {
        fill: #86c4b8;
      }

      .cls-4 {
        fill: #fff;
      }
    </style>
  </defs>
  <g id="Layer_5" data-name="Layer 5">
    <g>
      <g>
        <path class="cls-1" d="M96.41,354.08s97.8-113.57,320.22-67.83,503.2-71,503.2-71l129.35,425.9S1005,704.27,833.07,756.32,464,776.83,464,776.83,325.14,750,232.07,764.21Z"/>
        <path class="cls-2" d="M232.74,766.61S169.41,979.56,112.63,979.56,28.45,853,28.45,853-12,754,3.78,571s116.4-237.78,116.4-237.78L232.74,766.61M14.06,661.68c-2,15.49,26.91,295,90,302.86S209.76,767.37,209.76,767.37l-119.89-388C14.15,510.25,17.65,633.21,14.06,661.68Z"/>
        <path class="cls-2" d="M911.79,218.26S978.79.44,1038.86.44s89.05,129.41,89.05,129.41,42.78,101.32,26.09,288.49-112.87,232.4-112.87,232.4L911.79,218.26m231.34,107.33c2.07-15.85-28.46-301.72-95.21-309.79S936.11,217.49,936.11,217.49l126.82,396.92C1143,480.49,1139.34,354.71,1143.13,325.59Z"/>
      </g>
      <path class="cls-3" d="M174.28,406.12S252.62,320.56,579,380.49c245.45,45.07,319.28-59.93,319.28-59.93l9,31.76s-102.17,98.3-328.24,49c-269.74-58.81-398.37,29.2-398.37,29.2Z"/>
      <path class="cls-3" d="M246.34,669.67S324.68,584.11,651.06,644c245.45,45.08,319.28-59.93,319.28-59.93l9,31.77s-102.17,98.3-328.24,49c-269.74-58.81-398.37,29.21-398.37,29.21Z"/>
      <path class="cls-3" d="M206.32,531.36S284.65,445.8,611,505.73C856.48,550.8,930.32,445.8,930.32,445.8l9,31.76s-102.18,98.3-328.25,49c-269.74-58.81-398.36,29.2-398.36,29.2Z"/>
      <ellipse cx="454.97" cy="466.86" rx="76.14" ry="65.53"/>
      <ellipse class="cls-4" cx="461.29" cy="465" rx="30.46" ry="26.22"/>
      <ellipse cx="695.77" cy="446.02" rx="76.14" ry="65.53"/>
      <ellipse class="cls-4" cx="695.1" cy="444.16" rx="30.46" ry="26.22"/>
      <path d="M461.29,583.47l293.23-23S635.81,750.76,461.29,583.47Z"/>
      <polygon points="303.81 356.4 300.75 372.26 555.32 401.33 512.02 347.77 499.77 356.4 531.1 389.84 303.81 356.4"/>
      <polygon points="845.25 290.42 852.16 305.03 612.82 396.51 641.44 333.86 655.45 339.17 633.42 379.36 845.25 290.42"/>
    </g>
  </g>
</svg>
