<svg xmlns="http://www.w3.org/2000/svg" viewBox="0 0 1233 1011">
  <defs>
    <style>
      .cls-1 {
        fill: #73cd91;
      }

      .cls-2 {
        fill: #62b07b;
      }

      .cls-3 {
        fill: #3ca173;
      }

      .cls-4 {
        fill: #cdff97;
      }

      .cls-5 {
        fill: #35664f;
      }

      .cls-6 {
        fill: #74cd91;
      }

      .cls-7 {
        fill: #f9a0ca;
      }

      .cls-8 {
        fill: #f495c7;
      }
    </style>
  </defs>
  <g id="Full">
    <g>
      <path class="cls-1" d="M113.35,598.78s-27.16-5.52-72.53-55.09S.49,467.23.49,467.23s5.11-19.71,30.24,0c42.86,33.61,104.52,48.2,104.52,48.2l-21.9,83.35"/>
      <path class="cls-2" d="M350.47,766.89s-13.63,105.58,19.58,186.47,52.79-5.11,52.79-5.11,14.92-40.21,44.28-73.18c21.7-24.37,34.91-87.75,28.1-97.11S435.62,668.12,350.47,766.89Z"/>
      <path class="cls-2" d="M1042.74,537s70.6,84.25,74.16,186.3c0,0,6.53,22.54-11.86,35.59s-35.6-23.73-35.6-23.73-13.65-25.51-53.4-49.84S917.55,648.53,887.3,575.55,989.34,462.23,1042.74,537Z"/>
      <path class="cls-3" d="M100.83,637.78l55.53-211.35s3.09-35.48,32.4-49.36c0,0,116.88-96.83,157-116.9,0,0,33.44-21,61.14-24.84,0,0,194-55.29,310.53-42.82,0,0,85.74,3.64,109.4,42.52L995.67,428.88S660.8,1054,100.83,637.78Z"/>
      <path class="cls-4" d="M141.24,664.83s225,182.21,485.91,92.63S965.38,485.71,965.38,485.71l-97.72,45.5L781,536.28l-82.5,39.05L588.34,652.07,479,662.79,356.52,641.37l-83.67-1L219.8,664.83Z"/>
      <path class="cls-1" d="M355.05,663.14s23.58,41.7-40.27,150.09S157.65,950.18,157.65,950.18s-25.2,7.57-36.13,39.5-32.76,17.64-32.76,17.64-20.17-11.76-4.21-111.75,52-153.76,52-153.76,50.55-94.95,111.89-105.87,106.65,27.2,106.65,27.2"/>
      <ellipse class="cls-2" cx="181.74" cy="732.55" rx="23.65" ry="13.8" transform="translate(-493.18 394.71) rotate(-49.48)"/>
      <ellipse class="cls-2" cx="162.84" cy="772.58" rx="14.59" ry="11.95" transform="translate(-530.23 394.36) rotate(-49.48)"/>
      <ellipse class="cls-2" cx="197.74" cy="758.48" rx="12.41" ry="10.91" transform="translate(-569.79 599.44) rotate(-63.68)"/>
      <path class="cls-1" d="M857.37,562.81s83.89,82.63,81.77,280.76c0,0-14.89,56.75-40.86,17.92s-70.77-68.7-70.77-68.7S751.84,762.92,707,700.2s-33.85-122.46-33.85-122.46S761.8,477.19,857.37,562.81Z"/>
      <ellipse class="cls-2" cx="884.12" cy="669.02" rx="13.86" ry="20.32" transform="translate(-174.73 340.25) rotate(-19.87)"/>
      <ellipse class="cls-2" cx="889.46" cy="707.91" rx="15.15" ry="13.44" transform="translate(-187.63 344.38) rotate(-19.87)"/>
      <circle class="cls-2" cx="861.89" cy="692.61" r="10.32"/>
      <path class="cls-5" d="M102,635.24s14,9.13,22.45,13.26,52,0,52,0,52.92-21.42,60.19-22.44,48.1-8.17,58.16-8.17,47.64-1.17,59.18,0,40.25,12.27,49,15.31,64.28,8.16,64.28,8.16,38.4,1.59,46.93,0,37-5.22,43.87-8.16l35.71-15.31s32.32-15.21,38.77-20.4l36.73-29.59L706,544.44S741.88,523,751.87,521l44.89-9.18,50-5.1,35.71-11.23,20.41-14.85L926.34,474l13.26,6.06,11.22,13.32-14.28,18.37-22.45,18.36s-17.76,8.94-25.5,13.26-39.66,8.28-31.63,7.15-43.47,1.85-52.22,3.14S768.4,558,759,561.27s-53,32.14-53,32.14l-25.51,18.36c6.29-4.53-10.14,10.45-18.36,16.33s-59.18,33.67-59.18,33.67L568.22,674a131.73,131.73,0,0,1-31.63,7.14c-17.36,1.62-97.23,1.05-112.23,0s-31-8.24-45.91-11.22l-35.71-7.14s-5.64-2.59-29.59-4.08-63.25,9.18-63.25,9.18-44,18.05-62.24,21.42-41.5,1.59-57.13,0A108.45,108.45,0,0,1,102,682.17,87.43,87.43,0,0,0,86.66,673c-8-3.57-11.23-17.35-11.23-17.35s-1.28-10.32,6.12-17.34S102,635.24,102,635.24Z"/>
      <ellipse class="cls-6" cx="939.14" cy="271.15" rx="293.54" ry="269.44"/>
      <path class="cls-7" d="M1054.38,392.26c-2.86,22.53-2.74,26.81-34.69,38.35-11.1,4-22.63,22,1.75-49.73,8.73-25.7,9.47-46.62,16.72-46.11C1056.34,336.05,1057.66,366.43,1054.38,392.26Z"/>
      <path class="cls-8" d="M1025.25,430.12c22.51-40.1,17.14-82,16.5-86.16C1041.75,344,1045.19,385.62,1025.25,430.12Z"/>
      <path d="M1084.93,347.12C1047.44,505.2,896.3,408.39,896.3,408.39V400.9s151.21,96.2,179.31-53.78h9.32Z"/>
      <ellipse class="cls-2" cx="778.51" cy="76.63" rx="25.04" ry="13.86" transform="translate(103.18 471.45) rotate(-35.93)"/>
      <ellipse class="cls-2" cx="740.21" cy="104.4" rx="11.6" ry="7.58" transform="translate(79.6 454.25) rotate(-35.93)"/>
      <circle class="cls-2" cx="810.24" cy="51.3" r="6.65"/>
      <ellipse class="cls-2" cx="766.81" cy="110.25" rx="11.6" ry="9.86" transform="translate(489.52 833.62) rotate(-77.21)"/>
      <path d="M863.24,257.51C760.61,182.66,752,302.27,752,302.27l14.76-5.89s8.44-89.19,82.43-33.48Z"/>
      <path d="M1125.24,184.19c-90.49-89.14-116.61,27.9-116.61,27.9l12.6-3s20.83-93.85,91.33-22Z"/>
      <path d="M858.87,424.4c59.79,3.45,36.25-50.12,36.25-50.12L891,380s16.55,42.1-28.89,39.78Z"/>
      <path d="M1055.09,322.1s20.91,54.65,61,10.16l-7.52-1.41s-26,35-47.81-7.87Z"/>
    </g>
  </g>
</svg>
