<svg xmlns="http://www.w3.org/2000/svg" viewBox="0 0 1235 1011">
  <defs>
    <style>
      .cls-1 {
        fill: #73cd91;
      }

      .cls-2 {
        fill: #62b07b;
      }

      .cls-3 {
        fill: #3ca173;
      }

      .cls-4 {
        fill: #cdff97;
      }

      .cls-5 {
        fill: #35664f;
      }

      .cls-6 {
        fill: #74cd91;
      }

      .cls-7 {
        fill: #fff;
      }

      .cls-8 {
        fill: #f9a0ca;
      }
    </style>
  </defs>
  <g id="Happy">
    <path class="cls-1" d="M115.35,599s-27.16-5.51-72.53-55.08S2.49,467.45,2.49,467.45s5.11-19.72,30.24,0c42.86,33.61,104.52,48.2,104.52,48.2L115.35,599"/>
    <path class="cls-2" d="M352.47,767.11s-13.63,105.58,19.58,186.47,52.79-5.11,52.79-5.11,14.92-40.21,44.28-73.18c21.7-24.37,34.91-87.75,28.1-97.12S437.62,668.33,352.47,767.11Z"/>
    <path class="cls-2" d="M1044.74,537.2s70.6,84.25,74.16,186.3c0,0,6.53,22.55-11.86,35.6s-35.6-23.73-35.6-23.73-13.65-25.51-53.4-49.84S919.55,648.75,889.3,575.77,991.34,462.45,1044.74,537.2Z"/>
    <path class="cls-3" d="M102.83,638l55.53-211.34s3.09-35.48,32.4-49.36c0,0,116.88-96.84,157-116.9,0,0,33.44-21,61.14-24.84,0,0,194-55.29,310.53-42.82,0,0,85.74,3.63,109.4,42.51L997.67,429.1S662.8,1054.23,102.83,638Z"/>
    <path class="cls-4" d="M143.24,665.05s225,182.2,485.91,92.63S967.38,485.93,967.38,485.93l-97.72,45.49L783,536.49l-82.5,39L590.34,652.29,481,663,358.52,641.58l-83.67-1L221.8,665.05Z"/>
    <g>
      <path class="cls-1" d="M357.05,663.35s23.58,41.7-40.27,150.09-157.13,137-157.13,137-25.2,7.56-36.13,39.49-32.76,17.65-32.76,17.65-20.17-11.77-4.21-111.75,52-153.77,52-153.77,50.55-94.94,111.89-105.86,106.65,27.19,106.65,27.19"/>
      <ellipse class="cls-2" cx="183.74" cy="732.77" rx="23.65" ry="13.8" transform="translate(-492.64 396.3) rotate(-49.48)"/>
      <ellipse class="cls-2" cx="164.84" cy="772.8" rx="14.59" ry="11.95" transform="translate(-529.7 395.95) rotate(-49.48)"/>
      <ellipse class="cls-2" cx="199.74" cy="758.7" rx="12.41" ry="10.91" transform="translate(-568.87 601.36) rotate(-63.68)"/>
    </g>
    <g>
      <path class="cls-1" d="M859.37,563s83.89,82.63,81.77,280.75c0,0-14.89,56.75-40.86,17.92S829.51,793,829.51,793,753.84,763.14,709,700.42,675.19,578,675.19,578,763.8,477.41,859.37,563Z"/>
      <ellipse class="cls-2" cx="886.12" cy="669.23" rx="13.86" ry="20.32" transform="translate(-174.69 340.94) rotate(-19.87)"/>
      <ellipse class="cls-2" cx="891.46" cy="708.13" rx="15.15" ry="13.44" transform="translate(-187.58 345.07) rotate(-19.87)"/>
      <circle class="cls-2" cx="863.89" cy="692.83" r="10.32"/>
    </g>
    <path class="cls-5" d="M104,635.46s14,9.12,22.45,13.26,52,0,52,0,52.92-21.43,60.19-22.45,48.1-8.16,58.16-8.16,47.64-1.17,59.18,0,40.25,12.27,49,15.31,64.28,8.16,64.28,8.16,38.4,1.58,46.93,0,37-5.22,43.87-8.16l35.71-15.31s32.32-15.21,38.77-20.4l36.73-29.59L708,544.65s35.92-21.42,45.91-23.46L798.76,512l50-5.1,35.71-11.22,20.41-14.85,23.47-6.58,13.26,6.07,11.22,13.32L938.54,512l-22.45,18.37s-17.76,8.94-25.5,13.26-39.66,8.27-31.63,7.14-43.47,1.86-52.22,3.15-36.34,4.31-45.73,7.57-53,32.13-53,32.13L682.45,612c6.29-4.53-10.14,10.45-18.36,16.32S604.91,662,604.91,662l-34.69,12.25a131.73,131.73,0,0,1-31.63,7.14c-17.36,1.62-97.23,1-112.23,0s-31-8.25-45.91-11.23L344.74,663s-5.64-2.59-29.59-4.08-63.25,9.18-63.25,9.18-44,18-62.24,21.43-41.5,1.58-57.13,0A108.45,108.45,0,0,1,104,682.39a86.74,86.74,0,0,0-15.3-9.18c-8-3.57-11.23-17.35-11.23-17.35s-1.28-10.32,6.12-17.34S104,635.46,104,635.46Z"/>
    <ellipse class="cls-6" cx="941.14" cy="271.37" rx="293.54" ry="269.44"/>
    <circle cx="780.56" cy="273.49" r="60.63"/>
    <circle class="cls-7" cx="803.65" cy="251.14" r="17.85"/>
    <circle class="cls-7" cx="776.68" cy="279.17" r="11.6"/>
    <circle cx="1122.93" cy="208.36" r="60.63"/>
    <circle class="cls-7" cx="1090.4" cy="201.77" r="17.85"/>
    <circle class="cls-7" cx="1126.8" cy="212.86" r="11.6"/>
    <path d="M1048,371.32c-24.69,100.73-104.68,33.57-104.68,33.57l15.3-5.82s60,46.78,74.75-23.47Z"/>
    <ellipse class="cls-8" cx="848.62" cy="371.32" rx="29.22" ry="13.19" transform="translate(-73 278.32) rotate(-17.87)"/>
    <ellipse class="cls-8" cx="1103.11" cy="317.11" rx="29.22" ry="13.19" transform="translate(-44.09 353.8) rotate(-17.87)"/>
    <ellipse class="cls-2" cx="780.51" cy="76.85" rx="25.04" ry="13.86" transform="translate(103.43 472.66) rotate(-35.93)"/>
    <ellipse class="cls-2" cx="742.21" cy="104.61" rx="11.6" ry="7.58" transform="translate(79.85 455.47) rotate(-35.93)"/>
    <circle class="cls-2" cx="812.24" cy="51.52" r="6.65"/>
    <ellipse class="cls-2" cx="768.81" cy="110.47" rx="11.6" ry="9.86" transform="translate(490.86 835.74) rotate(-77.21)"/>
  </g>
</svg>
