<svg id="Layer_8" data-name="Layer 8" xmlns="http://www.w3.org/2000/svg" viewBox="0 0 673.85 1714">
  <defs>
    <style>
      .cls-1 {
        fill: #ea6900;
      }

      .cls-2 {
        fill: #ffaf19;
      }

      .cls-3 {
        fill: #ffb933;
      }

      .cls-4 {
        fill: #fdc00c;
      }

      .cls-5 {
        fill: #ffc65e;
      }

      .cls-6 {
        fill: #fff;
      }
    </style>
  </defs>
  <g>
    <path class="cls-1" d="M108.66,1709.77c-20.78-26.2-47.28-67.48-57.07-122.16-4.85-27.11-14.33-61.71,21.62-163.43,54.19-153.33,77-114.14,79.55-309.56.89-66.65-25.63-88.68-52.74-201.47C70.35,789.74,41.56,592.73,76.3,592.75c33.92,0-7.46,136.37,43.6,305.7,39.55,131.11,49.42,134.76,54.48,188.5,20.18,214.27-81,296.31-97.71,444.45-7.78,69.18,6.92,88.2,49.29,158.24C131.65,1699.06,124.23,1709.77,108.66,1709.77Z"/>
    <path class="cls-2" d="M219.79,543.8s-6.87,26.78,33.43,80.29,15.31,57,15.31,57-54.89,15.13-6.23,76.34l47.87,64.28S232,818,305,923.08c0,0-70.26,15.82,6.5,96.75,0,0,37.76,53.86,13.36,52.86,0,0-48,12.67.85,109.38,0,0-43.37.19-11.56,50.45,0,0,24,38,5.23,51,0,0-26.5,18.53,15.59,76.23,0,0-36.88,5.19,2.06,66.29,0,0,32.71,42.75,8.45,77.24,0,0,5.45,21.42,15.47-2.18s6.67-64.57,6.67-64.57-8.68-35.77,9-39.73-7.39-61.11-7.39-61.11-16.8-33.14,7.77-39.56,19.5-33.82,19.5-33.82-29.94-49-7.76-55.14c0,0,53.08-19.31,25.94-56.92s-23.23-53-23.23-53-2.19-10,19-13,34.14-22.56,8.06-52.92-21.84-44.27-21.84-44.27-8.95-10.56,37.45-26-54.21-93-54.21-93,56.53-19.8,23.82-62.55,53.78-60.84,53.78-60.84,28.38-1.29-94.5-107.41c0,0-17.1-11.52,53.14-24.37S340.13,470,219.79,543.8Z"/>
    <path class="cls-3" d="M511.14,565.51s10.54,21-21.9,69S482,682.57,482,682.57s56.46,6,16.82,61.26L460.41,801.5s76.88-12,19.22,81.68c0,0,71.78,4.81,7.06,79.29,0,0-29.88,48-5.86,44.44,0,0,49.26,4.81,14.42,88.9,0,0,43-4.81,18.48,39.64,0,0-18.48,33.64,1.94,42,0,0,28.83,12-4.81,63.66,0,0,37.24,0,7.21,54.06,0,0-26.43,38.44,2.4,63.67,0,0-2.4,18-15.61,0s-15.62-51.66-15.62-51.66,3.61-30-14.41-31.23-1.2-50.45-1.2-50.45,12-28.83-13.22-31.24-24-25.22-24-25.22,22.8-43.25,0-45.65c0,0-55.25-9.61-33.63-43.25s15.62-45.65,15.62-45.65.77-8.41-20.64-8.41-37-14.41-15.37-42,15.46-38.44,15.46-38.44,7.39-9.6-40.72-16.82,40.72-81.69,40.72-81.69-58.74-9.61-32.31-48-61.74-43.24-61.74-43.24-28.29,2.2,78.59-98c0,0,15.33-11.31-56-13.71S381.67,519.33,511.14,565.51Z"/>
    <path class="cls-4" d="M139.79,553.92s-7.5,22.28,31.33,65.45S185,666.07,185,666.07s-55.07,13.84-8.09,63.16L223,781.11s-77.81-1.2-7.61,83.77c0,0-70.4,14.79,4.1,79.7,0,0,36.31,43.53,12,43.3,0,0-48.1,11.64-1.84,90.26,0,0-43.22,1.22-12.76,41.93,0,0,23,30.81,4,42,0,0-26.87,16,13.66,62.53,0,0-36.88,5.2.42,54.67,0,0,31.55,34.48,6.53,63.54,0,0,4.89,17.55,15.46-2.18s8.24-53.46,8.24-53.46-7.77-29.31,9.91-33-5.87-50.25-5.87-50.25-15.93-27,8.72-32.85,20.26-28.4,20.26-28.4-28.63-39.75-6.37-45.31c0,0,53.36-17.25,27.25-47.63s-21.85-43.13-21.85-43.13-1.94-8.24,19.26-11.23,34.58-19.46,9.34-43.88-20.68-36-20.68-36-8.66-8.49,38-22.37-51.75-75.41-51.75-75.41S348.2,800,316.66,765.49,371.75,714,371.75,714s28.32-1.77-91.53-86.33c0,0-16.76-9.09,53.55-21.43S261.53,490,139.79,553.92Z"/>
    <path class="cls-1" d="M601.09,1687c-20.79-27.45-47.28-70.72-57.07-128-4.86-28.42-14.33-64.68,21.61-171.29,54.19-160.71,77-119.64,79.56-324.46.88-69.86-25.63-93-52.75-211.17C562.77,722.72,534,516.24,568.72,516.25c33.93,0-7.46,142.93,43.61,320.41,39.54,137.43,49.41,141.25,54.47,197.58,20.19,224.58-81,310.56-97.71,465.84-7.78,72.5,6.92,92.44,49.29,165.85C624.08,1675.8,616.65,1687,601.09,1687Z"/>
    <path class="cls-1" d="M388.27,485.48C367.48,511.67,341,553,331.2,607.64c-4.86,27.11-14.33,61.71,21.61,163.42,54.19,153.34,77,114.14,79.56,309.57.88,66.65-25.63,88.68-52.75,201.47-29.67,123.41-58.46,320.41-23.72,320.4,33.93,0-7.46-136.37,43.61-305.7C439.05,1165.68,448.92,1162,454,1108.3,474.17,894,372.94,812,356.27,663.84c-7.78-69.17,6.92-88.2,49.29-158.24C411.26,496.19,403.83,485.48,388.27,485.48Z"/>
    <path class="cls-5" d="M48.91,657.84s-87.49-231.59-17.16-442.6,272.77-211,272.77-211,167.55,0,243.6,178.42c75.21,176.43,51.47,384.27,51.47,384.27s-61.76-46.32-127-10.29-144.1,73.76-211,41.17S48.91,657.84,48.91,657.84Z"/>
    <g>
      <circle cx="221.71" cy="329.26" r="40.23"/>
      <circle class="cls-6" cx="234.36" cy="316.61" r="15.79"/>
      <circle class="cls-6" cx="213.09" cy="337.88" r="8.62"/>
    </g>
    <g>
      <circle cx="378.03" cy="316.61" r="40.23"/>
      <circle class="cls-6" cx="365.38" cy="303.95" r="15.79"/>
      <circle class="cls-6" cx="386.65" cy="325.22" r="8.62"/>
    </g>
    <path class="cls-2" d="M272.05,396c44.8,80.93,80.45,0,80.45,0h-9.92s-26.51,62.1-60.82,0Z"/>
    <path class="cls-2" d="M63.28,670.63s-21.6,1.6-12.8-20.8,86.39-55.19,86.39-55.19,66.4-33.6,137.59-7.2,176-33.6,176-33.6,85.6-33.6,148.79,4c0,0,16,23.2-8.8,23.2,0,0-56-32.8-121.59-4.8S359,631.21,303.5,620.09c-73.6-14.75-122.63-23.85-174.75,6.78C96.64,645.73,63.28,670.63,63.28,670.63Z"/>
  </g>
</svg>
