<svg id="Background" xmlns="http://www.w3.org/2000/svg" viewBox="0 0 545 491">
  <defs>
    <style>
      .cls-1 {
        fill: #fff998;
      }

      .cls-2 {
        fill: #8ce0a5;
      }

      .cls-3 {
        fill: #7ac48d;
      }
    </style>
  </defs>
  <g>
    <path class="cls-1" d="M544.72,307.07V489.15s-173,3.5-228.62,0-230.19-7-230.19-7-31.59-3.51,10.53-33.85S237.86,321.08,362.73,312.91,443.87,305.91,544.72,307.07Z"/>
    <path class="cls-2" d="M202.45,186.89s7.3-10.24,42.65-9.7c0,0,14.21-3.24-9.61-4.14,0,0,25.16-5.93,43.6-2.33,0,0,20,.36-9.41-5.94,0,0,30-2.87,43.61,1.44s7.1-3.77-3.08-4.67c0,0,12.1-4.13,39,2.88,0,0,10,5.21-2.3-5.76,0,0-6.92-6.29-10.95-7.54,0,0,9.8.17-.38-4s-33.81-9.7-33.81-9.7,10.56-2.7-1.54-3.6a346.34,346.34,0,0,0-41.1,0s4.8-3.77-11.91-3.05-35.15,6.83-35.15,6.83S230.88,120,235.3,119.49c0,0,7.87-7.19-8.64,1.26,0,0,21.12-21.39,33.23-25.16,0,0,10.37-7.37-9.61,0,0,0,14.41-14,33-20,0,0,12.86-7.73-5.58-.9,0,0,11.92-8.09,19.22-9.17s4.22-5.39-3.27-2c0,0,7.88-7.37,15.18-8.27S292,51.55,267.18,59.1c0,0,7.5-8.44-30.54,10.07l-9.41,5s2.11-5.21-7.3,2.52-24.58,18-28.81,23.72c0,0,1.54-6.29-6.72.54,0,0-18.44,20.67-17.87,21.75,0,0-.77-15.46,1.35-18.87s-3.08-6.47-4.42,2.87c0,0,1.73-24.44,4.42-28.22s-2.88-3.41-3.27-.72c0,0,6.15-34.86,13.64-43.67,0,0,4.42-5.39-2.31-3.77,0,0,11.53-25.71,14.22-27s1-5.22-3.84-1.62-12.87,11.14-12.49,10.6,2.88-7.55-3.26-1.26-20,26.25-20.75,28c0,0,6.72-15.63-.77-8.62,0,0-11.91,25.52-12.48,31.09,0,0-1.35-11.68-4.8,1.08s-5.57,18.51-7.11,37.56c0,0-2.69-19.41-5.38-12s-2.5,33.79,0,43.13c0,0-29.2-3.95-49.94,12.77,0,0-32.27,12.4-37.84,26.6,0,0-21.71,21.2-30.93,53,0,0-1.92,4.67,4,0s12.48-12.22,15.75-13.66c0,0-1.35,9,7.49-.18S38,198.75,45.71,194.62c0,0-4,10.07,5.76,1.44,0,0,13.83-16.72,30.16-22.29,0,0-9,12-.19,7.91,0,0,19.21-13.3,35.34-14.92,0,0-24.58,25.34-29.19,37.75,0,0-2.89,7.18,7.68-1.44,0,0-15.18,29.11-20.17,44.39,0,0-2.3,7.73,5-.72,0,0-5.57,13.3.39,49.07,0,0,3.26,9.88,3.84-5.75,0,0,1-9.17,7.49-20.31,0,0,.39,12.4,3.65,3.77,0,0,8.84-24.08,12.29-27.32,0,0,.39,10.07,5-.9a112.48,112.48,0,0,1,11.14-20s1.54,5.58,6.53-2.51,14.41-22.65,31.12-28.22c0,0,24,60.75,31.69,55.9,0,0,14,48.7,22.09,47.63,0,0,16.14,60,23.63,61.64,0,0,9.6,45.84,14.4,42.42,0,0,.77,13.66,15.18,14.2,0,0,21.9,7,33.61,0a36.8,36.8,0,0,0,14.41-7.55c6.53-5.75-1.73-18.69-1.73-18.69s4.8.36,0-7.55c0,0-13.25-35.95-20.74-42.78,0,0,3.26-.9-1.16-7.37s-28.42-56.25-34.76-59.67c0,0,3.26-1.25-2.31-7.9,0,0-17.09-31.1-22.66-35.23,0,0,2.69-1.26-1-4.68C232.23,225,213.59,196.42,202.45,186.89Z"/>
    <circle class="cls-3" cx="148.93" cy="152.69" r="5.95"/>
    <circle class="cls-3" cx="172.87" cy="142.06" r="5.95"/>
    <path class="cls-3" d="M154.88,169.27s27.07,14.18,28.59-14.94Z"/>
  </g>
</svg>
