<svg xmlns="http://www.w3.org/2000/svg" viewBox="0 0 1626 880">
  <defs>
    <style>
      .cls-1 {
        fill: #ffcf92;
      }

      .cls-2 {
        fill: #ffbd60;
      }

      .cls-3 {
        fill: #73cd91;
      }

      .cls-4 {
        fill: #62b07b;
      }

      .cls-5 {
        fill: #3ca173;
      }

      .cls-6 {
        fill: #cdff97;
      }

      .cls-7 {
        fill: #35664f;
      }

      .cls-8 {
        fill: #74cd91;
      }

      .cls-9 {
        fill: #fff;
      }

      .cls-10 {
        fill: #ff5e45;
      }
    </style>
  </defs>
  <g id="Sick">
    <rect class="cls-1" x="0.5" y="0.26" width="1625.01" height="879.48"/>
    <rect class="cls-2" x="56.48" y="163.52" width="662.02" height="554.96" rx="48.12"/>
    <g>
      <path class="cls-3" d="M129.09,486.79s-13.42-2.72-35.84-27.22-19.94-37.79-19.94-37.79,2.53-9.74,15,0c21.18,16.61,51.65,23.82,51.65,23.82l-10.82,41.19"/>
      <path class="cls-4" d="M246.27,569.87S239.54,622.05,256,662,282,659.5,282,659.5s7.37-19.87,21.88-36.17c10.72-12,17.25-43.36,13.88-48S288.35,521.06,246.27,569.87Z"/>
      <path class="cls-4" d="M588.38,456.26s34.89,41.63,36.65,92.06c0,0,3.23,11.15-5.86,17.6s-17.59-11.73-17.59-11.73-6.75-12.61-26.39-24.63-48.67-18.18-63.63-54.24S562,419.31,588.38,456.26Z"/>
      <path class="cls-5" d="M122.9,506.07l27.45-104.45s1.52-17.53,16-24.39c0,0,57.76-47.86,77.58-57.77,0,0,16.53-10.39,30.22-12.27,0,0,95.86-27.33,153.46-21.17,0,0,42.37,1.8,54.06,21l83.44,95.8S399.63,711.76,122.9,506.07Z"/>
      <path class="cls-6" d="M142.87,519.44s111.19,90,240.13,45.77S550.15,430.92,550.15,430.92L501.86,453.4,459,455.91,418.24,475.2l-54.42,37.93-54.06,5.3-60.5-10.59-41.35-.5-26.21,12.1Z"/>
      <path class="cls-3" d="M248.53,518.6s11.66,20.61-19.9,74.17S151,660.45,151,660.45s-12.45,3.74-17.85,19.52-16.19,8.72-16.19,8.72-10-5.81-2.08-55.23,25.68-76,25.68-76,25-46.92,55.29-52.32,52.7,13.44,52.7,13.44"/>
      <ellipse class="cls-4" cx="162.89" cy="552.9" rx="11.69" ry="6.82" transform="translate(-363.23 317.46) rotate(-49.48)"/>
      <ellipse class="cls-4" cx="153.55" cy="572.69" rx="7.21" ry="5.9" transform="translate(-381.54 317.29) rotate(-49.48)"/>
      <ellipse class="cls-4" cx="170.8" cy="565.72" rx="6.13" ry="5.39" transform="translate(-412 467.99) rotate(-63.68)"/>
      <path class="cls-3" d="M496.78,469s41.45,40.84,40.4,138.75c0,0-7.36,28-20.19,8.85s-35-34-35-34-37.4-14.76-59.54-45.75-16.73-60.52-16.73-60.52S449.54,426.71,496.78,469Z"/>
      <ellipse class="cls-4" cx="510" cy="521.51" rx="6.85" ry="10.04" transform="translate(-146.87 204.34) rotate(-19.87)"/>
      <ellipse class="cls-4" cx="512.63" cy="540.73" rx="7.49" ry="6.64" transform="translate(-153.24 206.38) rotate(-19.87)"/>
      <circle class="cls-4" cx="499.01" cy="533.17" r="5.1"/>
      <path class="cls-7" d="M123.46,504.81s6.93,4.51,11.09,6.56,25.72,0,25.72,0,26.15-10.59,29.75-11.1,23.76-4,28.73-4,23.55-.58,29.25,0,19.89,6.06,24.2,7.56,31.77,4,31.77,4,19,.78,23.19,0,18.28-2.58,21.68-4l17.65-7.56s16-7.52,19.16-10.08l18.15-14.62L422,459.94s17.75-10.59,22.69-11.6l22.18-4.54,24.71-2.52,17.65-5.54,10.08-7.34,11.6-3.25,6.55,3,5.55,6.58-7.06,9.07-11.09,9.08s-8.78,4.42-12.61,6.55-19.6,4.09-15.63,3.53-21.48.92-25.81,1.56-17.95,2.13-22.59,3.74S422,484.14,422,484.14l-12.61,9.08c3.11-2.24-5,5.16-9.07,8.06S371,517.92,371,517.92L353.88,524a65.07,65.07,0,0,1-15.63,3.53c-8.58.8-48.05.52-55.46,0s-15.33-4.07-22.69-5.54l-17.65-3.53s-2.79-1.28-14.62-2S196.57,521,196.57,521s-21.75,8.92-30.76,10.59-20.51.78-28.23,0A54,54,0,0,1,123.46,528a42.94,42.94,0,0,0-7.56-4.54c-4-1.77-5.55-8.57-5.55-8.57s-.63-5.1,3-8.57S123.46,504.81,123.46,504.81Z"/>
      <ellipse class="cls-8" cx="537.18" cy="324.89" rx="145.06" ry="133.15"/>
      <ellipse class="cls-4" cx="457.8" cy="228.76" rx="12.38" ry="6.85" transform="translate(-47.12 312.19) rotate(-35.93)"/>
      <ellipse class="cls-4" cx="438.87" cy="242.48" rx="5.73" ry="3.74" transform="translate(-58.78 303.7) rotate(-35.93)"/>
      <circle class="cls-4" cx="473.48" cy="216.24" r="3.29"/>
      <ellipse class="cls-4" cx="452.02" cy="245.37" rx="5.73" ry="4.87" transform="translate(112.66 631.85) rotate(-77.21)"/>
      <g>
        <circle cx="458.36" cy="332.07" r="29.96" transform="translate(94.64 765.73) rotate(-85.93)"/>
        <circle class="cls-9" cx="469.77" cy="321.02" r="8.82"/>
        <circle class="cls-9" cx="456.44" cy="334.87" r="5.73"/>
        <circle cx="627.55" cy="299.88" r="29.96"/>
        <circle class="cls-9" cx="611.48" cy="296.62" r="8.82"/>
        <circle class="cls-9" cx="629.47" cy="302.1" r="5.73"/>
      </g>
      <g>
        <circle class="cls-9" cx="609.52" cy="338.34" r="6.72"/>
        <rect class="cls-9" x="596.84" y="339.25" width="6.25" height="46.24" transform="translate(176.36 -196.05) rotate(21.69)"/>
        <circle class="cls-10" cx="609.46" cy="338.5" r="4.92"/>
        <rect class="cls-10" x="597.78" y="338.71" width="4.58" height="46.8" transform="translate(176.27 -196.1) rotate(21.69)"/>
      </g>
      <path d="M599.11,386.26s-35.66-33.53-49.87,12.95l5.94-1.64s9.38-34.41,38.11-9.81Z"/>
    </g>
  </g>
</svg>
