<svg xmlns="http://www.w3.org/2000/svg" viewBox="0 0 1626 880">
  <defs>
    <style>
      .cls-1 {
        fill: #ffcf92;
      }

      .cls-2 {
        fill: #ffbd60;
      }

      .cls-3 {
        fill: #73cd91;
      }

      .cls-4 {
        fill: #62b07b;
      }

      .cls-5 {
        fill: #3ca173;
      }

      .cls-6 {
        fill: #cdff97;
      }

      .cls-7 {
        fill: #35664f;
      }

      .cls-8 {
        fill: #74cd91;
      }

      .cls-9 {
        fill: #fff;
      }

      .cls-10 {
        fill: #84d8fa;
      }
    </style>
  </defs>
  <g id="Lose">
    <rect class="cls-1" x="0.5" y="0.26" width="1625.01" height="879.48"/>
    <rect class="cls-2" x="56.48" y="163.52" width="662.02" height="554.96" rx="48.12"/>
    <g>
      <path class="cls-3" d="M129.09,487.75S115.67,485,93.25,460.52s-19.94-37.78-19.94-37.78,2.53-9.74,15,0c21.18,16.61,51.65,23.82,51.65,23.82l-10.82,41.19"/>
      <path class="cls-4" d="M246.27,570.83S239.54,623,256,663,282,660.45,282,660.45s7.37-19.87,21.88-36.16c10.72-12,17.25-43.37,13.88-48S288.35,522,246.27,570.83Z"/>
      <path class="cls-4" d="M588.38,457.21s34.89,41.64,36.65,92.07c0,0,3.23,11.14-5.86,17.59s-17.59-11.73-17.59-11.73-6.75-12.61-26.39-24.63-48.67-18.18-63.63-54.24S562,420.27,588.38,457.21Z"/>
      <path class="cls-5" d="M122.9,507l27.45-104.44s1.52-17.54,16-24.4c0,0,57.76-47.85,77.58-57.77,0,0,16.53-10.38,30.22-12.27,0,0,95.86-27.32,153.46-21.16,0,0,42.37,1.79,54.06,21l83.44,95.8S399.63,712.72,122.9,507Z"/>
      <path class="cls-6" d="M142.87,520.39s111.19,90,240.13,45.78,167.15-134.3,167.15-134.3l-48.29,22.48L459,456.86l-40.77,19.3-54.42,37.92-54.06,5.3-60.5-10.59-41.35-.5-26.21,12.1Z"/>
      <path class="cls-3" d="M248.53,519.55s11.66,20.61-19.9,74.18S151,661.41,151,661.41s-12.45,3.74-17.85,19.51-16.19,8.72-16.19,8.72-10-5.81-2.08-55.22,25.68-76,25.68-76,25-46.92,55.29-52.32,52.7,13.44,52.7,13.44"/>
      <ellipse class="cls-4" cx="162.89" cy="553.86" rx="11.69" ry="6.82" transform="translate(-363.95 317.79) rotate(-49.48)"/>
      <ellipse class="cls-4" cx="153.55" cy="573.64" rx="7.21" ry="5.9" transform="translate(-382.26 317.62) rotate(-49.48)"/>
      <ellipse class="cls-4" cx="170.8" cy="566.67" rx="6.13" ry="5.39" transform="translate(-412.86 468.52) rotate(-63.68)"/>
      <path class="cls-3" d="M496.78,470s41.45,40.84,40.4,138.75c0,0-7.36,28-20.19,8.85s-35-33.94-35-33.94-37.4-14.76-59.54-45.76-16.73-60.52-16.73-60.52S449.54,427.66,496.78,470Z"/>
      <ellipse class="cls-4" cx="510" cy="522.46" rx="6.85" ry="10.04" transform="translate(-147.19 204.4) rotate(-19.87)"/>
      <ellipse class="cls-4" cx="512.63" cy="541.68" rx="7.49" ry="6.64" transform="translate(-153.57 206.44) rotate(-19.87)"/>
      <circle class="cls-4" cx="499.01" cy="534.12" r="5.1"/>
      <path class="cls-7" d="M123.46,505.77s6.93,4.51,11.09,6.55,25.72,0,25.72,0,26.15-10.59,29.75-11.09,23.76-4,28.73-4,23.55-.58,29.25,0,19.89,6.07,24.2,7.57,31.77,4,31.77,4,19,.79,23.19,0,18.28-2.58,21.68-4l17.65-7.57s16-7.51,19.16-10.08l18.15-14.62L422,460.89s17.75-10.58,22.69-11.59l22.18-4.54,24.71-2.52,17.65-5.55,10.08-7.34,11.6-3.25,6.55,3,5.55,6.58-7.06,9.08-11.09,9.07s-8.78,4.42-12.61,6.56-19.6,4.09-15.63,3.53-21.48.91-25.81,1.55-17.95,2.13-22.59,3.74S422,485.09,422,485.09l-12.61,9.08c3.11-2.24-5,5.16-9.07,8.07S371,518.88,371,518.88l-17.14,6a65.63,65.63,0,0,1-15.63,3.53c-8.58.8-48.05.51-55.46,0s-15.33-4.08-22.69-5.55l-17.65-3.53s-2.79-1.28-14.62-2-31.26,4.54-31.26,4.54-21.75,8.92-30.76,10.59-20.51.78-28.23,0A53.53,53.53,0,0,1,123.46,529a42.94,42.94,0,0,0-7.56-4.54c-4-1.76-5.55-8.57-5.55-8.57s-.63-5.1,3-8.57S123.46,505.77,123.46,505.77Z"/>
      <ellipse class="cls-8" cx="537.18" cy="325.84" rx="145.06" ry="133.15"/>
      <circle cx="457.83" cy="326.89" r="29.96" transform="translate(99.31 760.39) rotate(-85.93)"/>
      <circle class="cls-9" cx="469.24" cy="315.84" r="8.82"/>
      <circle class="cls-9" cx="455.91" cy="329.69" r="5.73"/>
      <circle cx="627.02" cy="294.7" r="29.96"/>
      <circle class="cls-9" cx="610.94" cy="291.44" r="8.82"/>
      <circle class="cls-9" cx="628.93" cy="296.92" r="5.73"/>
      <path d="M599.33,386.89s-35.66-33.53-49.87,12.95l5.93-1.64s9.39-34.41,38.11-9.81Z"/>
      <ellipse class="cls-4" cx="457.8" cy="229.71" rx="12.38" ry="6.85" transform="translate(-47.68 312.37) rotate(-35.93)"/>
      <ellipse class="cls-4" cx="438.87" cy="243.43" rx="5.73" ry="3.74" transform="translate(-59.34 303.88) rotate(-35.93)"/>
      <circle class="cls-4" cx="473.48" cy="217.19" r="3.29"/>
      <ellipse class="cls-4" cx="452.02" cy="246.33" rx="5.73" ry="4.87" transform="translate(111.73 632.59) rotate(-77.21)"/>
      <g>
        <path class="cls-10" d="M467.86,365.07s2.28,13.33-3.92,25.06c-10.09,19.07-3.23,40.71,12.75,36.86s13-24.56,1.68-38.24C472.34,381.46,467.86,365.07,467.86,365.07Z"/>
        <path class="cls-9" d="M462.75,403.93s-2.94,16,7.94,20.33C470.69,424.26,464.81,417,462.75,403.93Z"/>
      </g>
    </g>
  </g>
</svg>
