<svg xmlns="http://www.w3.org/2000/svg" viewBox="0 0 668 840">
  <defs>
    <style>
      .cls-1 {
        fill: #138937;
      }

      .cls-2 {
        fill: #fcd40a;
      }
    </style>
  </defs>
  <g id="Layer_4" data-name="Layer 4">
    <g>
      <path class="cls-1" d="M67.26,290.84l-38.05,8S-40.17,41,146.28,26.84C320.09,13.63,284.93,258.32,284.93,258.32l-54.26,6.24s33.23-197-77.74-195.79S67.26,290.84,67.26,290.84Z"/>
      <path class="cls-1" d="M586.81,248.59l34.8,2.14S639.17-13.22,472.82,1C317.74,14.16,389.9,249.44,389.9,249.44l48.77-2.05S376.24,58.72,474,43.18,586.81,248.59,586.81,248.59Z"/>
      <path class="cls-2" d="M1.29,339.32s-8.37-35.18,26.8-45.23,268-72,584.62-67c0,0,45.23-13.4,46.91,25.13,0,0,21.77,433.85-6.7,521,0,0,8.37,28.48-35.18,30.15,0,0-397,58.63-529.34,26.8,0,0-33.5-3.35-36.85-35.17C51.55,795,11.34,506.83,1.29,339.32Z"/>
      <path d="M189,310.68l125.38,33.67s-10.45,78.94-62.69,59.2-11.61-70.81-11.61-70.81Z"/>
      <path d="M506.14,286.78,387.48,339.42s22.52,76.37,71.08,48.8.53-71.76.53-71.76Z"/>
      <g>
        <path d="M157.25,522.68l46.33,59-5.16-62.94q-.51-6.13,1.88-9.42a8.88,8.88,0,0,1,6.85-3.65,9.19,9.19,0,0,1,7.54,2.47q2.92,2.85,3.43,9L225,600.32q1.14,13.93-10.4,14.88a15.5,15.5,0,0,1-5.27-.4,13.34,13.34,0,0,1-4.55-2.28,25.94,25.94,0,0,1-4.1-3.92c-1.28-1.51-2.57-3.07-3.87-4.66L151.5,545.6l5.09,62q.49,6.07-2.06,9.4a9.36,9.36,0,0,1-7,3.7,9.22,9.22,0,0,1-7.54-2.54c-2-1.95-3.17-4.91-3.49-8.91l-6.7-81.63a23,23,0,0,1,.48-8.25,11.71,11.71,0,0,1,4.11-5.68,12.4,12.4,0,0,1,6.69-2.62,11.91,11.91,0,0,1,5,.53,12.18,12.18,0,0,1,3.82,2.23,26.36,26.36,0,0,1,3.51,3.86C154.68,519.28,156,521,157.25,522.68Z"/>
        <path d="M311.8,515.52l-48.29,4,2.14,26,44.46-3.65q4.9-.39,7.5,1.6a7.55,7.55,0,0,1,2.9,5.62,7.78,7.78,0,0,1-1.9,6.07c-1.46,1.65-3.86,2.61-7.18,2.88L267,561.63l2.47,30.1,49.95-4.1c3.37-.28,6,.3,7.81,1.72a8.09,8.09,0,0,1,3.07,6,7.88,7.88,0,0,1-2.06,6.31c-1.58,1.71-4.06,2.7-7.42,3l-58.25,4.78q-7,.59-10.32-2.27t-3.89-9.78l-6.53-79.54a17.89,17.89,0,0,1,.75-7.66,8.53,8.53,0,0,1,3.95-4.61,18.06,18.06,0,0,1,7.36-1.95L310.44,499q5.13-.42,7.8,1.65a7.68,7.68,0,0,1,3,5.75,7.79,7.79,0,0,1-2,6.23Q316.92,515.1,311.8,515.52Z"/>
        <path d="M409.48,508.66l-23.39,1.92,6.31,76.87q.54,6.64-2.15,10.1a10.83,10.83,0,0,1-15.41,1.22q-3.27-3-3.8-9.57l-6.31-76.86-23.39,1.91q-5.49.45-8.35-1.74a8.24,8.24,0,0,1-3.2-6.17,8.13,8.13,0,0,1,2.25-6.73q2.58-2.61,7.85-3L408,491c3.7-.31,6.52.29,8.46,1.77a8.27,8.27,0,0,1,3.23,6.21,8.13,8.13,0,0,1-2.21,6.61Q415,508.21,409.48,508.66Z"/>
        <path d="M501.86,501.08,478.48,503l6.31,76.87q.54,6.64-2.15,10.09a9.92,9.92,0,0,1-7.39,3.84,10.12,10.12,0,0,1-8-2.61q-3.25-3-3.8-9.57l-6.31-76.87-23.38,1.92c-3.66.3-6.44-.28-8.36-1.75a8.23,8.23,0,0,1-3.19-6.17,8.12,8.12,0,0,1,2.24-6.72c1.73-1.74,4.34-2.75,7.86-3l68.13-5.59c3.71-.31,6.53.29,8.47,1.77a8.3,8.3,0,0,1,3.23,6.2,8.13,8.13,0,0,1-2.22,6.62Q507.36,500.63,501.86,501.08Z"/>
        <path d="M568.54,476q16.46-1.35,28.81,4.36a43.42,43.42,0,0,1,19.42,17.51q7.08,11.81,8.44,28.41a71.14,71.14,0,0,1-1.49,22.58,48.4,48.4,0,0,1-8.54,18.21,43.68,43.68,0,0,1-15.38,12.6A59.26,59.26,0,0,1,578,585.37a58.64,58.64,0,0,1-22.56-2.18,44.1,44.1,0,0,1-17.31-10,48.38,48.38,0,0,1-11.37-16.72,71,71,0,0,1-5.17-21.89A68.49,68.49,0,0,1,523.21,512a48.12,48.12,0,0,1,8.72-18.15,44.1,44.1,0,0,1,15.27-12.27A58.52,58.52,0,0,1,568.54,476Zm34.93,51.92q-1-11.62-5.41-19.83a28.13,28.13,0,0,0-11.77-12A29.61,29.61,0,0,0,569.94,493a29,29,0,0,0-11.67,3.39,26.37,26.37,0,0,0-8.81,7.81,33.74,33.74,0,0,0-5.24,12.31,53.59,53.59,0,0,0-1,16.32A54.9,54.9,0,0,0,546.89,549a33.49,33.49,0,0,0,7.41,11.56,27.17,27.17,0,0,0,10.12,6.4A30.23,30.23,0,0,0,591.2,563q6.56-4.68,9.93-13.61T603.47,527.91Z"/>
      </g>
      <path d="M263.62,746.32l262.94-27s-14.07-56.16-123.94-54.62S263.62,746.32,263.62,746.32Z"/>
    </g>
  </g>
</svg>
