<svg xmlns="http://www.w3.org/2000/svg" viewBox="0 0 404 137">
  <defs>
    <style>
      .cls-1 {
        fill: #ffbd60;
      }

      .cls-2 {
        fill: #fff;
      }
    </style>
  </defs>
  <g id="Next">
    <rect class="cls-1" x="0.22" y="0.21" width="403.57" height="136.58" rx="50"/>
    <g>
      <path class="cls-2" d="M141.67,96.83a11,11,0,0,1-4.86,2.58,28.24,28.24,0,0,1-7.62.9,26.39,26.39,0,0,1-8.4-1.32q-4-1.32-6.48-6.36L102.43,68.39q-1.8-3.72-3.24-7t-3.12-7.62l-.72.12q.48,6.48.54,13.2T96,80.27v18.6a33.36,33.36,0,0,1-4,.72,40.37,40.37,0,0,1-5.34.36,27.15,27.15,0,0,1-4.68-.36,7.17,7.17,0,0,1-3.36-1.44,6.93,6.93,0,0,1-2-2.94,13.69,13.69,0,0,1-.72-4.86v-60A10,10,0,0,1,81,26.75a22.67,22.67,0,0,1,7.44-1.2,25.87,25.87,0,0,1,8.46,1.38q4,1.38,6.42,6.3l12,24.24q1.8,3.72,3.24,7t3.12,7.62l.6-.12q-.48-6.48-.6-13t-.12-13V26.63a33.36,33.36,0,0,1,4-.72,40.37,40.37,0,0,1,5.34-.36q5.28,0,8,1.86t2.76,7.74Z"/>
      <path class="cls-2" d="M186.55,101.27a42.08,42.08,0,0,1-13.14-2,29.77,29.77,0,0,1-10.56-5.94,27.51,27.51,0,0,1-7.08-10,35.32,35.32,0,0,1-2.58-14,32.84,32.84,0,0,1,2.58-13.62,26.79,26.79,0,0,1,6.78-9.36,27.1,27.1,0,0,1,9.6-5.4,35.78,35.78,0,0,1,11-1.74,33.33,33.33,0,0,1,11.58,1.92,27.85,27.85,0,0,1,9,5.28,23.5,23.5,0,0,1,5.88,8,24.63,24.63,0,0,1,2.1,10.2,8.19,8.19,0,0,1-2.28,6.24,11.4,11.4,0,0,1-6.36,2.76l-29.64,4.44a10,10,0,0,0,5.4,5.94,21.15,21.15,0,0,0,9.36,2,33.49,33.49,0,0,0,9.3-1.26,29.56,29.56,0,0,0,7.14-2.94,10,10,0,0,1,3.24,3.36,8.81,8.81,0,0,1-3.72,12.6,26.8,26.8,0,0,1-8.64,2.76A60.85,60.85,0,0,1,186.55,101.27Zm-3.36-47.16a11.89,11.89,0,0,0-5,1,9.85,9.85,0,0,0-5.4,5.82,13.84,13.84,0,0,0-.78,3.78l20.52-3.36a9.07,9.07,0,0,0-2.64-4.8Q187.63,54.11,183.19,54.11Z"/>
      <path class="cls-2" d="M217.75,50.51a14.67,14.67,0,0,1,3.78-7.44,9.43,9.43,0,0,1,7-2.88,8.91,8.91,0,0,1,6.12,1.92,38.2,38.2,0,0,1,4.8,5.4l7.68,10.08L260,40.19q6.6,0,10.44,2.34a7.11,7.11,0,0,1,3.84,6.3,8.89,8.89,0,0,1-.42,2.82,11.77,11.77,0,0,1-1.26,2.58q-.84,1.32-2.16,3l-3.12,4-7.92,8.88,15.72,20.76a11.14,11.14,0,0,1-3.6,7.2,10.53,10.53,0,0,1-7.2,2.64A10.65,10.65,0,0,1,257.05,98a38.65,38.65,0,0,1-5.22-6.12l-6.48-9.24-12.24,17.64q-.6,0-1.32.06t-1.2.06q-6.12,0-9.3-2.52a7.68,7.68,0,0,1-3.18-6.24,9.46,9.46,0,0,1,1.38-5.1,51.39,51.39,0,0,1,4.74-6.06l9.6-11.16Z"/>
      <path class="cls-2" d="M304.15,79.31q0,3.12,2,4.44a10,10,0,0,0,5.58,1.32,24.09,24.09,0,0,0,3.72-.3,20.91,20.91,0,0,0,3.36-.78,14.67,14.67,0,0,1,1.86,2.94,8.92,8.92,0,0,1,.78,3.9A9.28,9.28,0,0,1,318,98.27q-3.42,2.88-12.06,2.88-10.56,0-16.26-4.8T284,80.75V29.39q1.32-.36,3.78-.78a31,31,0,0,1,5.22-.42q5.28,0,8.22,1.86t2.94,7.86v7.68h15.72a20.54,20.54,0,0,1,1.38,3.3,13.79,13.79,0,0,1,.66,4.38q0,4.2-1.86,6.06a6.73,6.73,0,0,1-5,1.86H304.15Z"/>
    </g>
  </g>
</svg>
