<svg xmlns="http://www.w3.org/2000/svg" viewBox="0 0 825 1283">
  <defs>
    <style>
      .cls-1 {
        fill: #fff998;
      }

      .cls-2 {
        fill: #97f4bb;
      }
    </style>
  </defs>
  <g id="Layer_4" data-name="Layer 4">
    <g>
      <path class="cls-1" d="M647.41,1282.2s-85.64-159-320.19-203.67c0,0-59.7-16.36-230.78-6.26V1282.2Z"/>
      <path class="cls-2" d="M435.91,412.79s38.53,16.32,54.36,130.74c0,0,4.58,31.42,14.17-19.74,0,0,20.83,37.87,22.5,119.65,0,0-1.67,30.21,13.33-10.08,0,0,5.42,7.66,7.92,34.65s11.25-23,11.25-23,2.5,25.78,7.5-6,15.42-78.56,10-106.36c0,0,14.17,29,10,7.25s1.25-20.14-15.42-84.2c0,0,21.67,29,13.34,9.27S567.77,396.88,536.11,363c0,0,24.58-1.61,70,13.7,0,0,16.67,6-7.5-10.47,0,0,65.2,10.46,88.32,29s.78-13.64-2.35-12.13c0,0,41.53,6.44,73.66,39.78,0,0,26.26,22.73,3.92-8.71,0,0,10.58,1.14,38,28.79s5.49-2.65,5.49-2.65a115.72,115.72,0,0,1,13.71,9.47c5.88,4.93,6.66,3,2.35-10.61s-17.24-44.32-26.25-55.69c0,0,15.28,9.47,4.31-5.68s-36-49.63-106.19-89c0,0,23.09.43,44,11s1-5.79-16.63-15.11-40.24-21.22-130.36-36c0,0,15.3-3.54,24.94-2.9s3-3.53-16.62-5.46-63.52-2.9-92.45,7.07c0,0-2.66-64-29.27-110.28,0,0-7.65-17.36-7.65,7.07,0,0-36.1-67.22-63.43-87.73,0,0-6.12-2,9,40.23,0,0-11.22-19.72-99.13-74.15,0,0-22.67-8.17,0,18.33,0,0-5.42-3.64-61.62-35.12s77.45,95.09,77.45,95.09-24.68-13.25.68,14.58,30.16,49.7,30.16,49.7-16.45-25.85-2.75,8.61,32.22,98.07,32.22,98.07S327.71,247.35,285.91,246s-.69,9.94-.69,9.94-103.15,7.17-154.86,42,0,11.63,0,11.63S40.17,358.48,4.1,386.38c0,0-25.86,22.09,61.93-1.16,0,0-35.48,22.67-14.43,20.35s164.15-51.74,230.89-41.28c0,0-28.86,16.86,7.21,9.3,0,0,32.47-8.14,69.15,0,0,0-113,94.18-95.6,124.41,0,0-145.7,201.17-94.71,217.71,0,0-130.3,234.74-85.92,247.53,0,0-31.17,135.11-24.56,178.93,0,0-18.88,47.48,123.7,38.35,0,0,98.21,10,93.49-40.17l-17.94-115s17,.91,6.61-48.39c0,0,15.1-168.9,28.32-208.15,0,0,16.06,0,17.94-38.35l46.27-159.76s12.28,5.47,18.89-32.87C375.34,537.8,401.1,460.32,435.91,412.79Z"/>
    </g>
  </g>
</svg>
