<svg xmlns="http://www.w3.org/2000/svg" viewBox="0 0 201 168">
  <defs>
    <style>
      .cls-1 {
        fill: #fff;
      }

      .cls-2 {
        fill: #ffbd60;
      }
    </style>
  </defs>
  <g id="Layer_29" data-name="Layer 29">
    <ellipse class="cls-1" cx="100.5" cy="84" rx="83.63" ry="100.63" transform="translate(5.52 174.19) rotate(-83.41)"/>
    <path class="cls-2" d="M69,42.19a19.6,19.6,0,0,1,5.75-2.28A29.58,29.58,0,0,1,81.86,39Q89,39,92.27,42.19a11.33,11.33,0,0,1,3.27,8.53v69.4q-2.39,1-5.85,2.08a23.91,23.91,0,0,1-7.24,1.09q-6.95,0-10.21-3.17A11.09,11.09,0,0,1,69,111.79Zm39.46,0a19.6,19.6,0,0,1,5.75-2.28,29.58,29.58,0,0,1,7.14-.89q7.14,0,10.41,3.17A11.33,11.33,0,0,1,135,50.72v69.4c-1.58.66-3.54,1.35-5.85,2.08a23.91,23.91,0,0,1-7.24,1.09q-6.93,0-10.21-3.17a11.09,11.09,0,0,1-3.27-8.33Z"/>
  </g>
</svg>
