<svg xmlns="http://www.w3.org/2000/svg" viewBox="0 0 272 93">
  <defs>
    <style>
      .cls-1 {
        fill: #ffbd60;
      }

      .cls-2 {
        fill: #fff;
      }
    </style>
  </defs>
  <g id="Play">
    <g>
      <rect class="cls-1" x="0.01" y="0.48" width="271.99" height="92.05" rx="40.26"/>
      <g>
        <path class="cls-2" d="M77.44,68.05a22.45,22.45,0,0,1-2.76.48,29.27,29.27,0,0,1-3.72.24,17.15,17.15,0,0,1-3.24-.28,5.82,5.82,0,0,1-2.36-1,4.34,4.34,0,0,1-1.44-2,9.81,9.81,0,0,1-.48-3.36V24.45a3.52,3.52,0,0,1,.92-2.6,6.4,6.4,0,0,1,2.52-1.48,29.69,29.69,0,0,1,6.2-1.4,54.48,54.48,0,0,1,7-.44q11,0,16.88,4.72a15.58,15.58,0,0,1,5.84,12.8,19.2,19.2,0,0,1-1.24,7.08,14.74,14.74,0,0,1-3.68,5.44,16.6,16.6,0,0,1-6.16,3.52,27.4,27.4,0,0,1-8.6,1.24H77.44ZM81.6,42.37a7.65,7.65,0,0,0,5.16-1.56,6,6,0,0,0,1.8-4.76,5.88,5.88,0,0,0-1.88-4.68,8.06,8.06,0,0,0-5.48-1.64c-.85,0-1.56,0-2.12,0a11.64,11.64,0,0,0-1.72.2v12.4Z"/>
        <path class="cls-2" d="M122.72,68.29l-2.6.44a22.48,22.48,0,0,1-3.48.28,18.82,18.82,0,0,1-3.16-.24,5.4,5.4,0,0,1-2.36-1,4.69,4.69,0,0,1-1.48-2,8.45,8.45,0,0,1-.52-3.24V16.21c.59-.11,1.45-.26,2.6-.44a21.31,21.31,0,0,1,3.48-.28,18.82,18.82,0,0,1,3.16.24,5.4,5.4,0,0,1,2.36,1,4.62,4.62,0,0,1,1.48,2,8.38,8.38,0,0,1,.52,3.24Z"/>
        <path class="cls-2" d="M147.28,28.29a32.66,32.66,0,0,1,7.88.88,17.53,17.53,0,0,1,6.08,2.68,12.12,12.12,0,0,1,3.88,4.56,14.54,14.54,0,0,1,1.36,6.52V60.85a5,5,0,0,1-1.16,3.4,11.43,11.43,0,0,1-2.76,2.28q-5.2,3.12-14.64,3.12a33.63,33.63,0,0,1-7.64-.8,18.44,18.44,0,0,1-5.84-2.4,11,11,0,0,1-3.76-4.08,12.12,12.12,0,0,1-1.32-5.76q0-5.52,3.28-8.48t10.16-3.68l10.48-1.12v-.56a3.42,3.42,0,0,0-2-3.32,13.68,13.68,0,0,0-5.88-1,27,27,0,0,0-5.92.64,30.93,30.93,0,0,0-5.2,1.6,5.62,5.62,0,0,1-1.76-2.2,7,7,0,0,1-.72-3.08,5.1,5.1,0,0,1,1-3.32A7.64,7.64,0,0,1,135.84,30a23.52,23.52,0,0,1,5.48-1.28A47,47,0,0,1,147.28,28.29Zm.64,31.44a18.61,18.61,0,0,0,3-.28,7.39,7.39,0,0,0,2.44-.76v-6.4l-5.76.48a8.67,8.67,0,0,0-3.68,1,2.58,2.58,0,0,0-1.44,2.4,3.19,3.19,0,0,0,1.24,2.6A6.85,6.85,0,0,0,147.92,59.73Z"/>
        <path class="cls-2" d="M179.92,58.45c-.59-1.34-1.21-2.83-1.88-4.48s-1.36-3.55-2.08-5.68-1.47-4.58-2.24-7.32-1.59-5.91-2.44-9.48a10.38,10.38,0,0,1,7.12-2.8A8.5,8.5,0,0,1,183,29.85a7.09,7.09,0,0,1,2.72,4.36l6.32,22h.32q1-2.73,1.88-5.92t1.8-6.6c.59-2.27,1.13-4.54,1.64-6.8s.95-4.5,1.32-6.68a13.26,13.26,0,0,1,6.32-1.52,8.33,8.33,0,0,1,4.64,1.2c1.23.8,1.84,2.18,1.84,4.16a26.57,26.57,0,0,1-.56,5c-.37,1.89-.87,3.9-1.48,6s-1.33,4.33-2.16,6.6S206,56.18,205,58.37s-1.84,4.25-2.8,6.2-1.89,3.69-2.8,5.24a56.45,56.45,0,0,1-4.16,6.4,23.24,23.24,0,0,1-3.68,3.88A10.59,10.59,0,0,1,188.08,82a13.14,13.14,0,0,1-3.68.52,7.54,7.54,0,0,1-5.44-2,8.44,8.44,0,0,1-2.48-5.2c1.71-1.34,3.41-2.82,5.12-4.44a55,55,0,0,0,4.64-5A7.65,7.65,0,0,1,183.32,64,18.64,18.64,0,0,1,179.92,58.45Z"/>
      </g>
    </g>
  </g>
</svg>
