<svg xmlns="http://www.w3.org/2000/svg" viewBox="0 0 285 97">
  <defs>
    <style>
      .cls-1 {
        fill: #ffbd60;
      }

      .cls-2 {
        fill: #fff;
      }
    </style>
  </defs>
  <g id="Quit">
    <g>
      <rect class="cls-1" x="0.31" y="0.38" width="284.37" height="96.24" rx="48.12"/>
      <g>
        <path class="cls-2" d="M62.84,47a29,29,0,0,1,2-11A22.26,22.26,0,0,1,78.16,23a30.36,30.36,0,0,1,19.92,0,23.12,23.12,0,0,1,8,4.92,22.69,22.69,0,0,1,5.4,8,29,29,0,0,1,2,11,28.37,28.37,0,0,1-2.88,13.32,22,22,0,0,1-7.84,8.6c.8.37,1.75.77,2.84,1.2s2.24.85,3.44,1.28,2.44.84,3.72,1.24,2.48.76,3.6,1.08a5.6,5.6,0,0,1,.08.84v.68q0,4.56-2.36,6.64a9.06,9.06,0,0,1-6.2,2.08,16.43,16.43,0,0,1-7.6-2,36.47,36.47,0,0,1-8-5.88l-3.52-3.28h-.64A28.91,28.91,0,0,1,78,71a22.65,22.65,0,0,1-8-5A23.14,23.14,0,0,1,64.76,58,29.35,29.35,0,0,1,62.84,47Zm14.4,0q0,7.27,3,10.88a10.6,10.6,0,0,0,15.92,0q3-3.6,3-10.88t-2.92-10.8a9.71,9.71,0,0,0-8-3.6,9.87,9.87,0,0,0-8,3.56Q77.24,39.71,77.24,47Z"/>
        <path class="cls-2" d="M120.6,33a18.33,18.33,0,0,1,2.52-.48,25.64,25.64,0,0,1,3.56-.24,18.82,18.82,0,0,1,3.16.24,5.4,5.4,0,0,1,2.36,1,4.62,4.62,0,0,1,1.48,2,8.57,8.57,0,0,1,.52,3.24v17.2q0,3.27,1.6,4.68a6.84,6.84,0,0,0,4.64,1.4,11.69,11.69,0,0,0,3-.32,11.48,11.48,0,0,0,1.8-.64V33a18.33,18.33,0,0,1,2.52-.48,25.74,25.74,0,0,1,3.56-.24,18.82,18.82,0,0,1,3.16.24,5.4,5.4,0,0,1,2.36,1,4.62,4.62,0,0,1,1.48,2,8.38,8.38,0,0,1,.52,3.24V63a6.55,6.55,0,0,1-3.36,6,22.28,22.28,0,0,1-6.68,2.68,36.75,36.75,0,0,1-8.44.92,31.18,31.18,0,0,1-8-1,17.81,17.81,0,0,1-6.28-3A13.33,13.33,0,0,1,122,63.51a18.37,18.37,0,0,1-1.44-7.64Z"/>
        <path class="cls-2" d="M166.84,21.63a7,7,0,0,1,2-5.12,8,8,0,0,1,10.8,0,7,7,0,0,1,2,5.12,7,7,0,0,1-2,5.12,8,8,0,0,1-10.8,0A7,7,0,0,1,166.84,21.63Zm14.24,49.6-2.6.44A22.48,22.48,0,0,1,175,72a18.73,18.73,0,0,1-3.16-.24,5.35,5.35,0,0,1-2.36-1,4.69,4.69,0,0,1-1.48-2,8.45,8.45,0,0,1-.52-3.24V33c.58-.11,1.45-.26,2.6-.44a21.22,21.22,0,0,1,3.48-.28,18.9,18.9,0,0,1,3.16.24,5.4,5.4,0,0,1,2.36,1,4.62,4.62,0,0,1,1.48,2,8.57,8.57,0,0,1,.52,3.24Z"/>
        <path class="cls-2" d="M203.32,58a3.3,3.3,0,0,0,1.32,3,6.73,6.73,0,0,0,3.72.88,16.56,16.56,0,0,0,2.48-.2,15.2,15.2,0,0,0,2.24-.52,9.74,9.74,0,0,1,1.24,2,6,6,0,0,1,.52,2.6,6.19,6.19,0,0,1-2.28,5q-2.28,1.92-8,1.92-7.05,0-10.84-3.2t-3.8-10.4V24.67a25.25,25.25,0,0,1,2.52-.52,20.28,20.28,0,0,1,3.48-.28,10.23,10.23,0,0,1,5.48,1.24c1.3.82,2,2.57,2,5.24v5.12H213.8a14,14,0,0,1,.92,2.2,9.27,9.27,0,0,1,.44,2.92,5.6,5.6,0,0,1-1.24,4,4.53,4.53,0,0,1-3.32,1.24h-7.28Z"/>
      </g>
    </g>
  </g>
</svg>
