<svg xmlns="http://www.w3.org/2000/svg" viewBox="0 0 285 97">
  <defs>
    <style>
      .cls-1 {
        fill: #ffbd60;
      }

      .cls-2 {
        fill: #fff;
      }
    </style>
  </defs>
  <g id="Replay">
    <rect class="cls-1" x="0.31" y="0.38" width="284.37" height="96.24" rx="48.12"/>
    <g>
      <path class="cls-2" d="M45.82,54.6V68.81a18.78,18.78,0,0,1-2.55.44,26.86,26.86,0,0,1-3.44.23,15.59,15.59,0,0,1-3-.26,5.1,5.1,0,0,1-2.15-.93,4.09,4.09,0,0,1-1.29-1.85,8.9,8.9,0,0,1-.45-3.11V28.48a3.26,3.26,0,0,1,.86-2.41,6,6,0,0,1,2.33-1.36A27,27,0,0,1,42,23.41,59,59,0,0,1,49.08,23q10.2,0,15.39,4.3a14.29,14.29,0,0,1,5.18,11.61,13,13,0,0,1-2.37,7.85,17,17,0,0,1-5.62,5q2.66,3.63,5.25,6.81A43.54,43.54,0,0,1,71,64.37a6.93,6.93,0,0,1-2.7,4,7.55,7.55,0,0,1-4.4,1.37,9.41,9.41,0,0,1-2.82-.37,6.71,6.71,0,0,1-2.07-1,8.38,8.38,0,0,1-1.63-1.63A21.38,21.38,0,0,1,56,64.59l-6.22-10Zm4.66-9.84a6.45,6.45,0,0,0,4.44-1.44,5.39,5.39,0,0,0,1.63-4.26,5.1,5.1,0,0,0-1.81-4.25c-1.21-1-3.12-1.45-5.74-1.45a16.23,16.23,0,0,0-1.77.08c-.45.05-.94.12-1.48.22v11.1Z"/>
      <path class="cls-2" d="M95,70.29a26.06,26.06,0,0,1-8.11-1.22,18.57,18.57,0,0,1-6.51-3.66A17,17,0,0,1,76,59.26a21.57,21.57,0,0,1-1.6-8.65,20.08,20.08,0,0,1,1.6-8.4,16.56,16.56,0,0,1,4.18-5.78,16.8,16.8,0,0,1,5.92-3.33A22.17,22.17,0,0,1,92.88,32,20.49,20.49,0,0,1,100,33.22a17.27,17.27,0,0,1,5.56,3.25,14.52,14.52,0,0,1,3.62,5,15.23,15.23,0,0,1,1.3,6.29,5,5,0,0,1-1.41,3.85,7,7,0,0,1-3.92,1.7L86.89,56a6.11,6.11,0,0,0,3.33,3.66A13,13,0,0,0,96,60.89a20.62,20.62,0,0,0,5.74-.78,18,18,0,0,0,4.4-1.81,6.4,6.4,0,0,1,2,2.07,5.35,5.35,0,0,1,.81,2.82,5.25,5.25,0,0,1-3.11,5,16.46,16.46,0,0,1-5.32,1.71A38.47,38.47,0,0,1,95,70.29ZM92.88,41.21a7.44,7.44,0,0,0-3.07.59,6.33,6.33,0,0,0-2.11,1.52,6.19,6.19,0,0,0-1.22,2.07A8.63,8.63,0,0,0,86,47.72l12.66-2.07a5.56,5.56,0,0,0-1.63-3A5.45,5.45,0,0,0,92.88,41.21Z"/>
      <path class="cls-2" d="M133.06,32a28.43,28.43,0,0,1,8.26,1.15,17.73,17.73,0,0,1,6.55,3.51,16.45,16.45,0,0,1,4.29,6,21.51,21.51,0,0,1,1.55,8.55,23.52,23.52,0,0,1-1.33,8.29,16.23,16.23,0,0,1-3.78,5.95A15.2,15.2,0,0,1,142.72,69a23.36,23.36,0,0,1-7.66,1.19,17.8,17.8,0,0,1-5.92-1V81.54a21,21,0,0,1-2.37.48,21.35,21.35,0,0,1-3.32.26,18.41,18.41,0,0,1-2.93-.22,5,5,0,0,1-2.18-.89A4,4,0,0,1,117,79.35a8.29,8.29,0,0,1-.45-3V40.84a5.78,5.78,0,0,1,.85-3.26,9,9,0,0,1,2.34-2.29,19.3,19.3,0,0,1,5.69-2.37A30.3,30.3,0,0,1,133.06,32Zm.15,28.27q7.62,0,7.63-9.1,0-4.74-1.89-7a6.64,6.64,0,0,0-5.44-2.3,8.83,8.83,0,0,0-2.52.34,10.22,10.22,0,0,0-1.92.77V59.26A10.2,10.2,0,0,0,131,60,7.94,7.94,0,0,0,133.21,60.3Z"/>
      <path class="cls-2" d="M172.66,69l-2.41.41a20.27,20.27,0,0,1-3.22.26,18.28,18.28,0,0,1-2.92-.22,5,5,0,0,1-2.18-.89,4.23,4.23,0,0,1-1.37-1.82,7.63,7.63,0,0,1-.48-3V20.86c.54-.1,1.34-.24,2.4-.41a20.27,20.27,0,0,1,3.22-.26,18.28,18.28,0,0,1,2.92.22,5.14,5.14,0,0,1,2.19.89,4.32,4.32,0,0,1,1.36,1.81,7.89,7.89,0,0,1,.49,3Z"/>
      <path class="cls-2" d="M195.37,32a30,30,0,0,1,7.29.82,16.48,16.48,0,0,1,5.63,2.47,11.26,11.26,0,0,1,3.59,4.22,13.61,13.61,0,0,1,1.25,6V62.15a4.64,4.64,0,0,1-1.07,3.15,10.92,10.92,0,0,1-2.55,2.1Q204.7,70.29,196,70.29a31.07,31.07,0,0,1-7.07-.74,16.55,16.55,0,0,1-5.4-2.22A10.2,10.2,0,0,1,180,63.56a11.12,11.12,0,0,1-1.22-5.33c0-3.41,1-6,3-7.85s5.16-3,9.4-3.4l9.69-1v-.51A3.18,3.18,0,0,0,199,42.35a12.82,12.82,0,0,0-5.44-.92,25.49,25.49,0,0,0-5.48.59,30,30,0,0,0-4.81,1.48,5.16,5.16,0,0,1-1.63-2,6.53,6.53,0,0,1-.66-2.85,4.72,4.72,0,0,1,.92-3.07,7.13,7.13,0,0,1,2.85-2,22,22,0,0,1,5.07-1.19A45.36,45.36,0,0,1,195.37,32Zm.6,29.08a15.87,15.87,0,0,0,2.77-.26,6.7,6.7,0,0,0,2.26-.7V54.23l-5.33.45a8.22,8.22,0,0,0-3.4.88,2.41,2.41,0,0,0-1.34,2.22,2.94,2.94,0,0,0,1.15,2.41A6.26,6.26,0,0,0,196,61.11Z"/>
      <path class="cls-2" d="M225.56,59.93c-.54-1.23-1.12-2.61-1.73-4.14s-1.26-3.29-1.93-5.26-1.36-4.23-2.07-6.77-1.47-5.46-2.26-8.77a9.66,9.66,0,0,1,6.59-2.59,8,8,0,0,1,4.29,1.07,6.68,6.68,0,0,1,2.52,4l5.84,20.35h.3c.59-1.68,1.17-3.5,1.74-5.48s1.12-4,1.66-6.1,1.05-4.2,1.52-6.29.87-4.16,1.22-6.18a12.3,12.3,0,0,1,5.85-1.41,7.73,7.73,0,0,1,4.29,1.11,4.26,4.26,0,0,1,1.7,3.85,24,24,0,0,1-.52,4.63q-.51,2.63-1.37,5.58c-.56,2-1.23,4-2,6.11s-1.57,4.15-2.41,6.18-1.7,3.93-2.59,5.73-1.75,3.42-2.59,4.85a51.52,51.52,0,0,1-3.85,5.92,21.3,21.3,0,0,1-3.4,3.59,9.73,9.73,0,0,1-3.26,1.77,11.94,11.94,0,0,1-3.4.48,6.92,6.92,0,0,1-5-1.85,7.74,7.74,0,0,1-2.3-4.81q2.37-1.85,4.74-4.1a49.66,49.66,0,0,0,4.29-4.63,6.8,6.8,0,0,1-2.7-1.74A17.16,17.16,0,0,1,225.56,59.93Z"/>
    </g>
  </g>
</svg>
