<svg xmlns="http://www.w3.org/2000/svg" viewBox="0 0 285 97">
  <defs>
    <style>
      .cls-1 {
        fill: #ffbd60;
      }

      .cls-2 {
        fill: #fff;
      }
    </style>
  </defs>
  <g id="Retry">
    <g>
      <rect class="cls-1" x="0.31" y="0.38" width="284.37" height="96.24" rx="48.12"/>
      <g>
        <path class="cls-2" d="M57.08,55.63V71a22.45,22.45,0,0,1-2.76.48,29.27,29.27,0,0,1-3.72.24,17.15,17.15,0,0,1-3.24-.28,5.47,5.47,0,0,1-2.32-1,4.49,4.49,0,0,1-1.4-2,9.81,9.81,0,0,1-.48-3.36V27.39a3.52,3.52,0,0,1,.92-2.6,6.4,6.4,0,0,1,2.52-1.48,29.75,29.75,0,0,1,6.32-1.4,62.07,62.07,0,0,1,7.68-.44q11,0,16.64,4.64t5.6,12.56a14,14,0,0,1-2.56,8.48,18.46,18.46,0,0,1-6.08,5.44q2.88,3.91,5.68,7.36a47,47,0,0,1,4.4,6.24,7.57,7.57,0,0,1-2.92,4.28A8.16,8.16,0,0,1,76.6,72a10.47,10.47,0,0,1-3-.4,7.47,7.47,0,0,1-2.24-1.12,9.16,9.16,0,0,1-1.76-1.76A25.06,25.06,0,0,1,68,66.43l-6.72-10.8Zm5-10.64a7,7,0,0,0,4.8-1.56,5.85,5.85,0,0,0,1.76-4.6,5.51,5.51,0,0,0-2-4.6c-1.31-1-3.37-1.56-6.2-1.56a16.56,16.56,0,0,0-1.92.08c-.48,0-1,.13-1.6.24V45Z"/>
        <path class="cls-2" d="M110.2,72.59a28,28,0,0,1-8.76-1.32,19.88,19.88,0,0,1-7-4,18.44,18.44,0,0,1-4.72-6.64A23.51,23.51,0,0,1,88,51.31a21.83,21.83,0,0,1,1.72-9.08,17.57,17.57,0,0,1,10.92-9.84A23.64,23.64,0,0,1,108,31.23a22.05,22.05,0,0,1,7.72,1.28,18.39,18.39,0,0,1,6,3.52,15.59,15.59,0,0,1,3.92,5.36,16.45,16.45,0,0,1,1.4,6.8,5.48,5.48,0,0,1-1.52,4.16,7.62,7.62,0,0,1-4.24,1.84l-19.76,3a6.66,6.66,0,0,0,3.6,4,14.1,14.1,0,0,0,6.24,1.32,22.33,22.33,0,0,0,6.2-.84,20,20,0,0,0,4.76-2,6.73,6.73,0,0,1,2.16,2.24,5.87,5.87,0,0,1-2.48,8.4,18,18,0,0,1-5.76,1.84A40.5,40.5,0,0,1,110.2,72.59ZM108,41.15a7.87,7.87,0,0,0-3.32.64,6.57,6.57,0,0,0-3.6,3.88,9.12,9.12,0,0,0-.52,2.52L114.2,46a6,6,0,0,0-1.76-3.2A5.88,5.88,0,0,0,108,41.15Z"/>
        <path class="cls-2" d="M147.16,58a3.3,3.3,0,0,0,1.32,3,6.73,6.73,0,0,0,3.72.88,16.56,16.56,0,0,0,2.48-.2,15.2,15.2,0,0,0,2.24-.52,9.74,9.74,0,0,1,1.24,2,5.88,5.88,0,0,1,.52,2.6,6.19,6.19,0,0,1-2.28,5q-2.28,1.92-8,1.92-7,0-10.84-3.2t-3.8-10.4V24.67c.59-.16,1.43-.34,2.52-.52a20.28,20.28,0,0,1,3.48-.28,10.2,10.2,0,0,1,5.48,1.24q2,1.23,2,5.24v5.12h10.48a13.15,13.15,0,0,1,.92,2.2,9.27,9.27,0,0,1,.44,2.92,5.55,5.55,0,0,1-1.24,4,4.53,4.53,0,0,1-3.32,1.24h-7.28Z"/>
        <path class="cls-2" d="M179.16,71.23a19,19,0,0,1-2.52.48,25.85,25.85,0,0,1-3.56.24,18.73,18.73,0,0,1-3.16-.24,5.35,5.35,0,0,1-2.36-1,4.61,4.61,0,0,1-1.48-2,8.45,8.45,0,0,1-.52-3.24v-24a6.73,6.73,0,0,1,.68-3.16,7.26,7.26,0,0,1,2-2.36,13.68,13.68,0,0,1,3.16-1.88,31.37,31.37,0,0,1,4-1.48,33.58,33.58,0,0,1,4.48-1,30.12,30.12,0,0,1,4.64-.36,10.9,10.9,0,0,1,6.08,1.48,5.37,5.37,0,0,1,2.24,4.84,7.86,7.86,0,0,1-.32,2.2,10.56,10.56,0,0,1-.8,2c-1.12,0-2.27.05-3.44.16a31.65,31.65,0,0,0-3.44.48c-1.12.21-2.18.44-3.16.68a13.73,13.73,0,0,0-2.52.84Z"/>
        <path class="cls-2" d="M205.8,61.39q-.88-2-1.88-4.48t-2.08-5.68q-1.08-3.21-2.24-7.32t-2.44-9.48a9.69,9.69,0,0,1,3-2,10,10,0,0,1,4.12-.84,8.52,8.52,0,0,1,4.64,1.16,7.13,7.13,0,0,1,2.72,4.36l6.32,22h.32c.64-1.82,1.26-3.79,1.88-5.92s1.21-4.34,1.8-6.6,1.13-4.54,1.64-6.8.94-4.5,1.32-6.68a13.23,13.23,0,0,1,6.32-1.52,8.36,8.36,0,0,1,4.64,1.2c1.22.8,1.84,2.18,1.84,4.16a26.57,26.57,0,0,1-.56,5q-.57,2.84-1.48,6t-2.16,6.6q-1.25,3.39-2.6,6.68t-2.8,6.2c-1,1.94-1.9,3.69-2.8,5.24a57.87,57.87,0,0,1-4.16,6.4A23.24,23.24,0,0,1,217.48,83,10.69,10.69,0,0,1,214,85a13.2,13.2,0,0,1-3.68.52,7.52,7.52,0,0,1-5.44-2,8.38,8.38,0,0,1-2.48-5.2q2.55-2,5.12-4.44a56.47,56.47,0,0,0,4.64-5A7.65,7.65,0,0,1,209.2,67,18.44,18.44,0,0,1,205.8,61.39Z"/>
      </g>
    </g>
  </g>
</svg>
