<svg xmlns="http://www.w3.org/2000/svg" viewBox="0 0 1626 880">
  <defs>
    <style>
      .cls-1 {
        fill: #ffcf92;
      }

      .cls-2 {
        fill: #8ce0a5;
      }

      .cls-3 {
        font-size: 38px;
      }

      .cls-10, .cls-23, .cls-3, .cls-8 {
        fill: #fff;
      }

      .cls-10, .cls-3 {
        font-family: Rockwell-Regular, Rockwell;
      }

      .cls-16, .cls-4 {
        letter-spacing: -0.02em;
      }

      .cls-14, .cls-15, .cls-16, .cls-17, .cls-19, .cls-20, .cls-21, .cls-5 {
        fill: #f46f14;
      }

      .cls-6 {
        letter-spacing: -0.02em;
      }

      .cls-7 {
        letter-spacing: -0.06em;
      }

      .cls-8 {
        font-size: 153px;
        font-family: Baloo-Regular, Baloo;
        letter-spacing: -0.01em;
      }

      .cls-9 {
        letter-spacing: 0em;
      }

      .cls-10 {
        font-size: 42px;
      }

      .cls-11, .cls-19 {
        letter-spacing: -0.02em;
      }

      .cls-12 {
        letter-spacing: 0.02em;
      }

      .cls-13 {
        letter-spacing: -0.03em;
      }

      .cls-14, .cls-15, .cls-16, .cls-17, .cls-19, .cls-20, .cls-21 {
        font-family: Rockwell-Bold, Rockwell;
        font-weight: 700;
      }

      .cls-15 {
        letter-spacing: -0.02em;
      }

      .cls-17 {
        letter-spacing: -0.02em;
      }

      .cls-18 {
        letter-spacing: -0.1em;
      }

      .cls-20 {
        letter-spacing: -0.05em;
      }

      .cls-21 {
        letter-spacing: -0.03em;
      }

      .cls-22 {
        fill: #8a8a8a;
      }

      .cls-24 {
        fill: #5e5e5e;
      }

      .cls-25 {
        fill: #138937;
      }

      .cls-26 {
        fill: #fcd40a;
      }

      .cls-27 {
        fill: #9dd3ca;
      }

      .cls-28 {
        fill: #e6f7f3;
      }

      .cls-29 {
        fill: #86c4b8;
      }

      .cls-30 {
        fill: #88aa43;
      }

      .cls-31 {
        fill: #a5ca5c;
      }

      .cls-32 {
        fill: #ff9cbc;
      }

      .cls-33 {
        fill: #ffdde7;
      }

      .cls-34 {
        fill: #ffbdd2;
      }

      .cls-35 {
        fill: #ffb2ca;
      }

      .cls-36 {
        fill: #ea6900;
      }

      .cls-37 {
        fill: #ffaf19;
      }

      .cls-38 {
        fill: #ffb933;
      }

      .cls-39 {
        fill: #fdc00c;
      }

      .cls-40 {
        fill: #ffc65e;
      }
    </style>
  </defs>
  <g id="Rules-2" data-name="Rules">
    <rect class="cls-1" x="0.5" y="0.26" width="1625.01" height="879.48"/>
    <rect class="cls-2" x="131.58" y="333.22" width="526.32" height="127.42" rx="40.26"/>
    <text class="cls-3" transform="translate(162.93 383.2)">Help clean up the ocean <tspan class="cls-4" x="0" y="45.6">b</tspan><tspan x="25.16" y="45.6">y picking up the trash!</tspan></text>
    <rect class="cls-5" x="976.38" y="333.22" width="508.16" height="127.42" rx="40.26"/>
    <text class="cls-3" transform="translate(1005.88 383.2)">Le<tspan class="cls-6" x="45.83" y="0">a</tspan><tspan x="66.93" y="0">ve the sea c</tspan><tspan class="cls-7" x="290.81" y="0">r</tspan><tspan x="305.74" y="0">eatu</tspan><tspan class="cls-7" x="387.46" y="0">r</tspan><tspan x="402.4" y="0">es </tspan><tspan x="0" y="45.6">in the ocean!</tspan></text>
    <text class="cls-8" transform="translate(621.45 143.01)">R<tspan class="cls-9" x="91.95" y="0">ules</tspan></text>
    <text class="cls-10" transform="translate(155.93 197.64)">In o<tspan class="cls-7" x="77.87" y="0">r</tspan><tspan x="94.38" y="0">der to </tspan><tspan class="cls-11" x="230.16" y="0">m</tspan><tspan x="269.08" y="0">ake su</tspan><tspan class="cls-7" x="404.09" y="0">r</tspan><tspan x="420.59" y="0">e the hung</tspan><tspan class="cls-12" x="643.04" y="0">r</tspan><tspan x="662.92" y="0">y turtle only eats sea c</tspan><tspan class="cls-7" x="1130.49" y="0">r</tspan><tspan x="1147" y="0">eatu</tspan><tspan class="cls-7" x="1237.32" y="0">r</tspan><tspan x="1253.83" y="0">es, </tspan><tspan class="cls-13" x="248.52" y="50.4">y</tspan><tspan x="273.48" y="50.4">ou </tspan><tspan class="cls-11" x="336.99" y="50.4">h</tspan><tspan class="cls-6" x="362.73" y="50.4">a</tspan><tspan x="386.05" y="50.4">ve to pick up </tspan><tspan class="cls-14" x="668.73" y="50.4">15 </tspan><tspan class="cls-15" x="733.02" y="50.4">pi</tspan><tspan class="cls-14" x="775.18" y="50.4">eces </tspan><tspan class="cls-16" x="885" y="50.4">o</tspan><tspan class="cls-14" x="910" y="50.4">f t</tspan><tspan class="cls-17" x="954.16" y="50.4">r</tspan><tspan class="cls-14" x="974.15" y="50.4">a</tspan><tspan class="cls-15" x="1000.44" y="50.4">s</tspan><tspan class="cls-14" x="1021.44" y="50.4">h!</tspan><tspan class="cls-18" x="110.98" y="100.8">Y</tspan><tspan x="138.91" y="100.8">ou </tspan><tspan class="cls-11" x="202.42" y="100.8">h</tspan><tspan class="cls-6" x="228.16" y="100.8">a</tspan><tspan x="251.48" y="100.8">ve </tspan><tspan class="cls-14" x="314.99" y="100.8">60 sec</tspan><tspan class="cls-19" x="452.15" y="100.8">on</tspan><tspan class="cls-14" x="505.45" y="100.8">ds</tspan><tspan x="555.55" y="100.8" xml:space="preserve"> and </tspan><tspan class="cls-14" x="657.7" y="100.8">3 l</tspan><tspan class="cls-20" x="710.69" y="100.8">i</tspan><tspan class="cls-21" x="724.28" y="100.8">v</tspan><tspan class="cls-14" x="750.8" y="100.8">es</tspan><tspan x="798.3" y="100.8" xml:space="preserve"> to clean the ocean!</tspan></text>
    <g>
      <path class="cls-22" d="M126.48,526.62s21.68,18.69,47.47,32.14,30.28,29.9,30.28,29.9,13.08,25.42-5.61,54.2-60.93,23.92-60.93,23.92-25,2.25-53.07-20.55-19.81-61.68-19.81-61.68a163.6,163.6,0,0,1,23.92-50.46c17.94-25.41,10.84-37.75,10.84-37.75L94.34,487s-4.52-11.27,4-9.3c6.8,1.58,8.72,8.18,8.72,8.18s1.87,1.12,8.23-9.35c0,0,6-5.23,5.6,4.49S106.36,511.25,126.48,526.62Z"/>
      <g>
        <path d="M89.62,548.16l29.71,13.09s1.85,10.57-2.18,14.6-7.89-17.62-7.89-17.62Z"/>
        <path class="cls-23" d="M110.68,559.16l3.66,1.76,1.16,14S112,569.58,110.68,559.16Z"/>
      </g>
      <g>
        <path d="M152.42,530.93l-17.56,27.3s4.28,9.84,9.86,11-3.13-19.06-3.13-19.06Z"/>
        <path class="cls-23" d="M140.92,551.71l-2.09,3.49,6.77,12.35S145.58,561.13,140.92,551.71Z"/>
      </g>
      <path d="M123.7,586.45l26.65-12.66s-3.28,15.46-10.62,21C139.73,594.75,136.64,595.33,123.7,586.45Z"/>
      <path class="cls-24" d="M125.67,629.9s-1.18-.32-2.77-5.6a15,15,0,0,1,.8-10s3.6-1.18,13.48,2.91,24.54,9.24,24.54,9.24,7.92,2.11,7.52-5.15c0,0-4.35-20.6-1.58-28.52S180.6,583,180.6,583s2.51-2.24-1.85-7.39c0,0,8.58,3.83,6.21,11.09,0,0-7.53-1.19-10.83,7.39s.53,27.07.53,27.07,2.51,11.75-13.21,11.09-34.72-12.67-34.72-12.67S124.49,619.67,125.67,629.9Z"/>
    </g>
    <g>
      <path class="cls-25" d="M547.91,545.09l-8.37,1.76s-15.25-56.69,25.74-59.8c38.21-2.91,30.48,50.89,30.48,50.89l-11.92,1.37s7.3-43.31-17.1-43S547.91,545.09,547.91,545.09Z"/>
      <path class="cls-25" d="M662.13,535.8l7.66.47s3.86-58-32.72-54.91C603,484.26,618.84,536,618.84,536l10.72-.45s-13.72-41.48,7.78-44.9S662.13,535.8,662.13,535.8Z"/>
      <path class="cls-26" d="M533.41,555.75s-1.84-7.74,5.89-10S598.22,530,667.83,531.07c0,0,9.94-2.94,10.31,5.53,0,0,4.79,95.38-1.47,114.53,0,0,1.84,6.26-7.74,6.63,0,0-87.28,12.89-116.37,5.89,0,0-7.37-.73-8.11-7.73C544.45,655.92,535.62,592.58,533.41,555.75Z"/>
      <path d="M574.67,549.45l27.56,7.4s-2.3,17.36-13.78,13-2.55-15.57-2.55-15.57Z"/>
      <path d="M644.4,544.2l-26.09,11.57s5,16.79,15.63,10.73.11-15.78.11-15.78Z"/>
      <g>
        <path d="M567.69,596.06l10.19,13-1.14-13.84a3.06,3.06,0,0,1,.42-2.07,2,2,0,0,1,1.51-.8,2,2,0,0,1,1.65.54,3,3,0,0,1,.76,2l1.5,18.3c.17,2-.6,3.13-2.29,3.27a3.13,3.13,0,0,1-1.16-.09,2.85,2.85,0,0,1-1-.5,6.56,6.56,0,0,1-.9-.86l-.85-1-10-12.83,1.12,13.63a3,3,0,0,1-.45,2.07,2.06,2.06,0,0,1-1.54.81,2,2,0,0,1-1.65-.56,3,3,0,0,1-.77-2l-1.48-17.94a5.26,5.26,0,0,1,.11-1.82,2.53,2.53,0,0,1,.91-1.25,2.68,2.68,0,0,1,1.47-.57,2.56,2.56,0,0,1,1.1.11,2.94,2.94,0,0,1,.84.49,6,6,0,0,1,.77.85Z"/>
        <path d="M601.67,594.49l-10.61.87.46,5.71,9.78-.8a2.35,2.35,0,0,1,1.65.35,1.66,1.66,0,0,1,.64,1.23,1.74,1.74,0,0,1-.42,1.34,2.29,2.29,0,0,1-1.58.63l-9.77.8.54,6.62,11-.9a2.4,2.4,0,0,1,1.72.38,1.75,1.75,0,0,1,.67,1.32,1.71,1.71,0,0,1-.45,1.39,2.38,2.38,0,0,1-1.63.65l-12.81,1.06a2.48,2.48,0,0,1-3.12-2.66L586.28,595a4,4,0,0,1,.17-1.69,1.86,1.86,0,0,1,.86-1,4.16,4.16,0,0,1,1.62-.43l12.44-1a2.46,2.46,0,0,1,1.72.36,1.88,1.88,0,0,1,.21,2.64A2.46,2.46,0,0,1,601.67,594.49Z"/>
        <path d="M623.15,593l-5.14.42,1.38,16.9a3.16,3.16,0,0,1-.47,2.22,2.17,2.17,0,0,1-1.62.84,2.22,2.22,0,0,1-1.77-.57,3,3,0,0,1-.83-2.1l-1.39-16.9-5.14.42a2.6,2.6,0,0,1-1.84-.39,1.8,1.8,0,0,1-.7-1.35,1.77,1.77,0,0,1,.49-1.48,2.67,2.67,0,0,1,1.73-.67l15-1.23a2.62,2.62,0,0,1,1.86.39,1.82,1.82,0,0,1,.71,1.36,1.8,1.8,0,0,1-.49,1.46A2.67,2.67,0,0,1,623.15,593Z"/>
        <path d="M643.46,591.31l-5.14.42,1.38,16.9a3.08,3.08,0,0,1-.47,2.22,2.19,2.19,0,0,1-1.62.85,2.26,2.26,0,0,1-1.77-.58A3.09,3.09,0,0,1,635,609l-1.39-16.9-5.14.42a2.6,2.6,0,0,1-1.84-.38,1.84,1.84,0,0,1-.7-1.36,1.78,1.78,0,0,1,.49-1.48,2.72,2.72,0,0,1,1.73-.67l15-1.23a2.73,2.73,0,0,1,1.86.39,1.84,1.84,0,0,1,.71,1.37,1.75,1.75,0,0,1-.49,1.45A2.62,2.62,0,0,1,643.46,591.31Z"/>
        <path d="M658.12,585.79a12.61,12.61,0,0,1,6.33,1,9.59,9.59,0,0,1,4.27,3.85,14.26,14.26,0,0,1,1.86,6.25,16,16,0,0,1-.33,5,10.67,10.67,0,0,1-1.88,4,9.57,9.57,0,0,1-3.38,2.77,13.13,13.13,0,0,1-4.8,1.25,12.84,12.84,0,0,1-5-.48,9.71,9.71,0,0,1-3.81-2.18,10.75,10.75,0,0,1-2.5-3.68,15.69,15.69,0,0,1-1.13-4.81,15,15,0,0,1,.36-5,10.56,10.56,0,0,1,1.92-4,9.69,9.69,0,0,1,3.36-2.69A12.89,12.89,0,0,1,658.12,585.79Zm7.68,11.42a11,11,0,0,0-1.19-4.36,6.23,6.23,0,0,0-2.59-2.64,6.53,6.53,0,0,0-3.59-.67,6.41,6.41,0,0,0-2.57.75,5.78,5.78,0,0,0-1.94,1.71,7.55,7.55,0,0,0-1.15,2.71,11.59,11.59,0,0,0-.21,3.59,12.11,12.11,0,0,0,.8,3.54,7.27,7.27,0,0,0,1.63,2.54,5.74,5.74,0,0,0,2.22,1.41,6.64,6.64,0,0,0,5.89-.87,6.21,6.21,0,0,0,2.18-3A10.75,10.75,0,0,0,665.8,597.21Z"/>
      </g>
      <path d="M591.08,645.23l57.81-5.93s-3.1-12.35-27.25-12S591.08,645.23,591.08,645.23Z"/>
    </g>
    <g>
      <g>
        <path class="cls-27" d="M275.93,559.36S295.19,537,339,546s99.07-14,99.07-14l25.47,83.86s-8.7,12.42-42.55,22.67-72.68,4-72.68,4-27.33-5.28-45.65-2.49Z"/>
        <path class="cls-28" d="M302.77,640.58s-12.47,41.93-23.65,41.93-16.57-24.91-16.57-24.91-8-19.5-4.86-55.53,22.92-46.81,22.92-46.81l22.16,85.32m-43.06-20.66c-.38,3.05,5.3,58.08,17.73,59.64s20.8-38.83,20.8-38.83l-23.6-76.4C259.73,590.11,260.42,614.32,259.71,619.92Z"/>
        <path class="cls-28" d="M436.47,532.62s13.19-42.89,25-42.89S479,515.21,479,515.21s8.42,19.95,5.14,56.8-22.23,45.76-22.23,45.76l-25.46-85.15M482,553.75c.4-3.12-5.61-59.41-18.75-61s-22,39.71-22,39.71l25,78.15C482,584.25,481.27,559.48,482,553.75Z"/>
      </g>
      <path class="cls-29" d="M291.26,569.61s15.42-16.85,79.69-5.05c48.32,8.87,62.86-11.8,62.86-11.8l1.76,6.25s-20.11,19.36-64.62,9.65c-53.11-11.58-78.44,5.75-78.44,5.75Z"/>
      <path class="cls-29" d="M305.45,621.5s15.42-16.85,79.68-5c48.33,8.88,62.87-11.8,62.87-11.8l1.76,6.26s-20.12,19.35-64.63,9.65C332,609,306.7,626.3,306.7,626.3Z"/>
      <path class="cls-29" d="M297.57,594.27s15.42-16.85,79.68-5c48.33,8.87,62.87-11.8,62.87-11.8l1.76,6.25s-20.12,19.36-64.63,9.65c-53.11-11.58-78.43,5.75-78.43,5.75Z"/>
      <ellipse cx="346.53" cy="581.57" rx="14.99" ry="12.9"/>
      <ellipse class="cls-23" cx="347.77" cy="581.2" rx="6" ry="5.16"/>
      <ellipse cx="393.94" cy="577.46" rx="14.99" ry="12.9"/>
      <ellipse class="cls-23" cx="393.8" cy="577.1" rx="6" ry="5.16"/>
      <path d="M347.77,604.53,405.5,600S382.13,637.46,347.77,604.53Z"/>
      <polygon points="316.76 559.82 316.16 562.94 366.28 568.66 357.76 558.12 355.35 559.82 361.52 566.4 316.76 559.82"/>
      <polygon points="423.37 546.83 424.73 549.7 377.61 567.72 383.24 555.38 386 556.43 381.66 564.34 423.37 546.83"/>
    </g>
    <g>
      <path class="cls-30" d="M964.34,675.94s1.74,11.68,18.85,11.25,37.27-15.44,38.38-19.48-3.9.58-3.9.58-6,6.67-21.5,2.77S968,672.67,964.34,675.94Z"/>
      <path class="cls-30" d="M980.33,654.29s3.21,18.35,20.23,6.4c0,0,5.59-4.41,9.14-17.46a33.24,33.24,0,0,1,5.59-9.81s1.53-2.21.76-3.6c-1.08-2-4.86,3.09-4.86,3.09s-3.2,4.76-13.38,9S983.93,646.25,980.33,654.29Z"/>
      <path class="cls-30" d="M999.33,623.41s5.57,11,18,3.56,15-15.81,15-15.81,1.42-3.61,4.91-11.1c0,0,2-6.15-.66-2.72-1,1.25-4.67,7.79-10.64,9.31s-10.48,1.13-17.54,6S999.33,623.41,999.33,623.41Z"/>
      <path class="cls-30" d="M1010.62,598.72s5.51-4.19,11.49-1.65c5.51,2.34,17.92-5,24.33-20.11,5.39-12.71,6.45-15.8,6.45-15.8s1.08-4.21-1.33-2.76-2.56,6.19-10.22,11.94S1019.53,576.64,1010.62,598.72Z"/>
      <path class="cls-30" d="M1029.19,557.63s5-4.28,14.12-5.4,17.21-8,17.21-8a27.44,27.44,0,0,0,7.44-11.69,85.38,85.38,0,0,1,6.08-13.9s1.2-1.54.54-2.84c-.91-1.8-3.14,2.3-3.14,2.3a22.19,22.19,0,0,1-11.12,9.48c-7.63,2.83-16.14,7.14-16.14,7.14S1030.39,542.82,1029.19,557.63Z"/>
      <path class="cls-30" d="M1032.35,514.84s4.27,6.54,13.69-7c8-11.49,10.26-17.36,10.26-17.36s3.7-9.67,16.69-18c0,0,2-1.37.72-2.47s-8.35-.87-21.66,7.05-19.76,15-21.62,29.35C1030.43,506.45,1029.62,511.28,1032.35,514.84Z"/>
      <path class="cls-30" d="M1007.75,562.61s9.89-6.19,6-24c-3.85-17.46.17-29.19,2.31-32.34,2.89-4.29-1.51-3-1.51-3S1007,505.61,1002,522s-.43,26.15-.43,26.15,4.32,9.2,2.91,14.68S1007.75,562.61,1007.75,562.61Z"/>
      <path class="cls-30" d="M995.61,595.29s9.35-5.67-1.23-13.45c0,0-6.44-3.74-5.54-10.92s-3.19-17.79-9.66-19c-3.88-.75-1.2,2.24-1.2,2.24s5.13,5.46,1.62,18C973.44,594.17,990.11,597,995.61,595.29Z"/>
      <path class="cls-30" d="M975,628.2s3.1-.52-4.47-8.35C959.15,608.08,972.59,603,954.19,592c0,0-4.33-1.9-2.55,1.6,1.36,2.68,3.66,2.78,3.17,10.78,0,0-1.13,8.62,1.6,15.82S963.2,632.91,975,628.2Z"/>
      <path class="cls-30" d="M949.73,662.77c2.18.94,6.06-3.24,7.85-5.87,1.15-1.69,2.47-3.62,2.43-6.3,0-3.61-2.52-6.15-3.36-7-3.57-3.55-6-1.76-13.68-5.5-3.76-1.83-8.24-4-8.78-7.56-.15-1-.06-2.54-.94-3s-2.31.63-2.66.91c-3,2.33-4.44,8.08-2.7,12.94,1.33,3.68,4.53,7.08,8.26,8,2.16.54,3-.12,5.3.82a11.89,11.89,0,0,1,5.36,4.65C949.4,659,948,662,949.73,662.77Z"/>
      <circle class="cls-31" cx="951.16" cy="665.62" r="5.65"/>
      <circle class="cls-31" cx="976.8" cy="630.35" r="5.65"/>
      <circle class="cls-31" cx="996.07" cy="596.19" r="5.65"/>
      <circle class="cls-31" cx="1008.18" cy="563.46" r="5.65"/>
      <circle class="cls-31" cx="1027.78" cy="557.29" r="5.65"/>
      <circle class="cls-31" cx="1009.78" cy="598.24" r="5.65"/>
      <circle class="cls-31" cx="998.44" cy="623.34" r="5.65"/>
      <circle class="cls-31" cx="978.11" cy="655.41" r="5.65"/>
      <circle class="cls-31" cx="963.41" cy="675.75" r="5.65"/>
      <path class="cls-31" d="M936.09,710.53c-1.42-.74,12.07-29.31,31.69-59.72,25.41-39.38,34.83-53.74,46-82.54,10.57-27.22,6.11-26.1,18.19-53.16,13.77-30.87,34.37-43.19,35.88-41.92.34.29-25.4,17.92-37.45,51.47-7.58,21.12-6.66,23.33-13.36,45.34S1004,601.52,984.8,631.69C954.58,679.19,937.65,711.34,936.09,710.53Z"/>
    </g>
    <g>
      <path class="cls-32" d="M1174.79,574.38s5,2.66.93,13.85c0,0,9.22-.06,8.56,16.86,0,0,13.34.92,15.08,13.72,0,0,9.08-5.89,17,3.08,0,0,9.3-5.09,15.54.58,0,0,5.88-6,13.84-3.17C1245.71,619.3,1171.11,647.39,1174.79,574.38Z"/>
      <path class="cls-33" d="M1175.1,580.46s-2.28,69.69,89.82,32.1c0,0-53.31,45-92.6,16.54C1172.32,629.1,1153.69,608,1175.1,580.46Z"/>
      <ellipse cx="1235.88" cy="517.16" rx="16.62" ry="7.71" transform="translate(628.88 1711.48) rotate(-85.77)"/>
      <path class="cls-34" d="M1321.28,517.92l-42.44,5.87S1245.66,525,1226.7,519s-62.61,2.42-62.61,2.42a61.11,61.11,0,0,0-32.55,22.32c-13.74,18.25-17.78,33-17.78,33s-10.48,36.29,11.94,62.4,48.86,29.19,48.86,29.19,33.59,6.64,69.23-16c0,0,21.66-11.75,27.35-38.33,0,0,1.6-6.71-12.19,1.7a129.62,129.62,0,0,1-29.35,12.64s-8.3-1.56-14.8,6.36c0,0-6.22-4.7-16.23,2.35,0,0-5-12.36-22.78-10,0,0-.33-15.09-9.86-22.34,0,0,11.16-9.07,8.86-30.38,0,0,8.87-1.31,30.53-16.8s117.74-34.69,117.74-34.69S1328.61,519,1321.28,517.92Z"/>
      <path class="cls-35" d="M1283.29,586s8.18-39.74,5.79-43.42-4.53-3.71-7.68.89-23.79,52-15.4,72.46c0,0,4.3,12.06,70.49-39.64,0,0,21.2-18.26.06-13.63C1325.78,565.05,1311.57,566.3,1283.29,586Z"/>
      <path class="cls-32" d="M1279.13,591.39s5.75-27.94,4.07-30.53-3.18-2.61-5.4.62S1261.07,598,1267,612.43c0,0,3,8.49,49.57-27.87,0,0,14.91-12.84,0-9.58C1309,576.64,1299,577.52,1279.13,591.39Z"/>
      <ellipse cx="1218.94" cy="519.96" rx="16.62" ry="7.71" transform="translate(610.4 1697.18) rotate(-85.77)"/>
      <ellipse class="cls-23" cx="1221.87" cy="511.53" rx="2.81" ry="3.53" transform="translate(-100.92 441.83) rotate(-19.7)"/>
      <circle class="cls-23" cx="1217.29" cy="516.71" r="1.88"/>
      <ellipse class="cls-23" cx="1233.7" cy="509.72" rx="3.53" ry="2.81" transform="translate(634.28 1702.42) rotate(-85.77)"/>
      <circle class="cls-23" cx="1239.49" cy="513.49" r="1.88"/>
      <path class="cls-32" d="M1174.79,574.38s-43.21,20.87-48.57-23.06C1126.22,551.32,1125.54,598.21,1174.79,574.38Z"/>
      <path class="cls-32" d="M1165.93,604.76s-35,22.16-52.66,9.54C1113.27,614.3,1132.37,633,1165.93,604.76Z"/>
      <path class="cls-32" d="M1175.79,627.1s-4.68,18.7-32.45,28C1143.34,655.12,1172.59,650.6,1175.79,627.1Z"/>
      <path class="cls-32" d="M1198.57,637.08s9.65,16.14-9.56,32.15C1189,669.23,1210.91,655.87,1198.57,637.08Z"/>
      <path class="cls-32" d="M1214.8,634.73s13.91,6.85,12.15,26.54C1227,661.27,1232.88,642.91,1214.8,634.73Z"/>
      <path class="cls-32" d="M1229.6,628.37s17,1.55,14.84,23.62C1244.44,652,1250.42,629.21,1229.6,628.37Z"/>
    </g>
    <g>
      <path class="cls-36" d="M1367.23,749.92a45.55,45.55,0,0,1-6.34-21.32c-.14-4.54-.84-10.41,7.49-26.14,12.57-23.7,15.33-16.75,20.5-48.57,1.77-10.86-2-15.1-3.71-34.16-1.84-20.85-1.75-53.7,3.91-52.85s-4.53,22.07-.31,50.94c3.27,22.35,4.79,23.19,4.31,32.08-1.91,35.45-20.42,46.37-26.74,70.14-2.95,11.1-1,14.56,4.2,27C1371.24,748.73,1369.77,750.3,1367.23,749.92Z"/>
      <path class="cls-37" d="M1413.69,562.38s-1.77,4.2,3.5,13.91,1.11,9.68,1.11,9.68-9.32,1.13-2.87,12.3l6.25,11.65s-12.66-2.51-3.3,16.41c0,0-11.84.88-1.29,15.95,0,0,4.86,9.7.9,9,0,0-8.13.9-2.52,17.86,0,0-7.08-1-3.11,8,0,0,3,6.79-.39,8.45,0,0-4.77,2.38.69,12.82,0,0-6.14-.05-1.27,10.86,0,0,4.3,7.77-.5,12.81,0,0,.37,3.63,2.58,0s2.66-10.37,2.66-10.37-.55-6,2.42-6.27.28-10.15.28-10.15-1.93-5.81,2.23-6.26,4-5.05,4-5.05-3.69-8.73.08-9.18c0,0,9.13-1.86,5.61-8.66s-2.5-9.2-2.5-9.2-.12-1.7,3.42-1.67,6.12-2.85,2.6-8.44-2.49-7.75-2.49-7.75-1.2-1.94,6.74-3.33-6.59-16.49-6.59-16.49,9.71-1.86,5.41-9.63,10.25-8.62,10.25-8.62,4.67.48-12.81-19.82c0,0-2.51-2.29,9.27-2.68S1435.12,553.25,1413.69,562.38Z"/>
      <path class="cls-38" d="M1460.7,573s1.21,3.67-5.25,10.73-2.35,7.66-2.35,7.66,9.07,2.35,1.26,10.41l-7.67,8.47s12.83-.09,1.15,13.79c0,0,11.59,2.53-.78,13.11,0,0-6,7.12-2,7.11,0,0,7.92,2,.19,14.86,0,0,7.13.26,2,6.91,0,0-3.83,5-.7,6.91,0,0,4.41,2.66-2.33,10.27,0,0,6.08.91-.14,9,0,0-5.24,5.63-1.15,10.44,0,0-.83,2.89-2.55-.37s-1.29-8.81-1.29-8.81,1.31-4.81-1.6-5.45,1-8.26,1-8.26,2.66-4.41-1.39-5.42a4,4,0,0,1-3.31-4.7s4.77-6.5,1.11-7.45c0,0-8.79-2.91-4.44-7.87s3.66-7.07,3.66-7.07.33-1.35-3.17-1.87-5.68-3.25-1.48-7.23,3.45-5.9,3.45-5.9,1.44-1.39-6.23-3.73,8.63-12.34,8.63-12.34-9.35-3-4.11-8.63-9-8.55-9-8.55-4.67-.33,15.2-14.09c0,0,2.78-1.47-8.81-3.59S1440.69,562.32,1460.7,573Z"/>
      <path class="cls-39" d="M1400.39,562.09s-1.77,3.45,3.52,11.44,1.13,8,1.13,8-9.32.92-2.86,10.11l6.27,9.59s-12.67-2.09-3.28,13.48c0,0-11.84.7-1.26,13.1,0,0,4.86,8,.9,7.36,0,0-8.13.73-2.49,14.68,0,0-7.08-.85-3.1,6.53,0,0,3,5.59-.37,6.95,0,0-4.78,2,.71,10.54,0,0-6.15-.05-1.26,8.93,0,0,4.31,6.39-.48,10.53,0,0,.37,3,2.57,0s2.65-8.53,2.65-8.53-.56-5,2.41-5.14.27-8.34.27-8.34-2-4.79,2.22-5.15a4,4,0,0,0,4-4.14s-3.7-7.18.07-7.55c0,0,9.12-1.52,5.6-7.11s-2.52-7.57-2.52-7.57-.11-1.39,3.42-1.36,6.11-2.34,2.59-6.94-2.5-6.37-2.5-6.37-1.21-1.6,6.74-2.73-6.62-13.56-6.62-13.56,9.71-1.52,5.4-7.91,10.24-7.07,10.24-7.07,4.66.4-12.84-16.31c0,0-2.51-1.89,9.26-2.19S1421.8,554.62,1400.39,562.09Z"/>
      <path class="cls-36" d="M1448.13,758.17a48.51,48.51,0,0,1-6.2-22.27c-.1-4.76-.77-10.91,7.69-27.43,12.74-24.9,15.46-17.65,20.86-51,1.84-11.37-1.93-15.78-3.48-35.73-1.7-21.83-1.38-56.22,4.29-55.37s-4.69,23.14-.67,53.34c3.11,23.38,4.63,24.24,4.09,33.56-2.16,37.13-20.77,48.7-27.26,73.63-3,11.64-1.12,15.25,4,28.26C1452.15,756.9,1450.67,758.55,1448.13,758.17Z"/>
      <path class="cls-36" d="M1442.59,557a45.43,45.43,0,0,0-12.28,18.54c-1.45,4.31-3.83,9.72-.44,27.19,5.12,26.33,9.78,20.49,5.46,52.44-1.47,10.9-6.34,13.85-13.5,31.59-7.84,19.42-17.32,50.86-11.65,51.71s2.09-22.44,14.54-48.82c9.64-20.44,11.33-20.79,13.47-29.44,8.49-34.47-6-50.31-5.15-74.89.41-11.48,3.27-14.22,11.89-24.62C1446.08,559.26,1445.13,557.33,1442.59,557Z"/>
      <path class="cls-40" d="M1383,576.83s-8.65-39.91,8-72.63,49.63-27.8,49.63-27.8,27.34,4.07,35.41,35c8,30.61-.94,63.95-.94,63.95s-8.95-9.06-20.46-4.77-25.3,8.54-35.43,1.6S1383,576.83,1383,576.83Z"/>
      <g>
        <circle cx="1419.21" cy="527.42" r="6.64"/>
        <circle class="cls-23" cx="1421.58" cy="525.66" r="2.61"/>
        <circle class="cls-23" cx="1417.6" cy="528.62" r="1.42"/>
      </g>
      <g>
        <circle cx="1445.02" cy="529.15" r="6.64"/>
        <circle class="cls-23" cx="1443.27" cy="526.78" r="2.61"/>
        <circle class="cls-23" cx="1446.22" cy="530.77" r="1.42"/>
      </g>
      <path class="cls-37" d="M1425.8,539.53c5.35,14.29,13.13,2,13.13,2l-1.62-.24s-5.83,9.49-9.92-1.48Z"/>
      <path class="cls-37" d="M1385.07,579.27s-3.56-.26-1.58-3.7,15.43-6.91,15.43-6.91,11.65-3.87,22.63,2.17,29.53-1.21,29.53-1.21,14.78-3.4,24.18,4.27c0,0,2,4.17-2,3.57a23.75,23.75,0,0,0-19.73-3.74c-11.38,3-19.25,6.3-28,3.14-11.65-4.2-19.43-6.87-28.68-3.14C1391.12,576,1385.07,579.27,1385.07,579.27Z"/>
    </g>
  </g>
</svg>
