<svg xmlns="http://www.w3.org/2000/svg" viewBox="0 0 389 144">
  <defs>
    <style>
      .cls-1 {
        fill: #ffbd60;
      }

      .cls-2 {
        fill: #fff;
      }
    </style>
  </defs>
  <g id="Rules">
    <g>
      <rect class="cls-1" x="0.16" y="0.38" width="388.69" height="143.25" rx="50"/>
      <g>
        <path class="cls-2" d="M77.76,81V103.1a33.24,33.24,0,0,1-4,.7,44.31,44.31,0,0,1-5.35.34,23.8,23.8,0,0,1-4.66-.4,7.81,7.81,0,0,1-3.33-1.44,6.34,6.34,0,0,1-2-2.88,14,14,0,0,1-.69-4.83V40.43a5,5,0,0,1,1.33-3.74,9.44,9.44,0,0,1,3.62-2.13,42.89,42.89,0,0,1,9.08-2,91.49,91.49,0,0,1,11-.63q15.87,0,23.92,6.67t8.05,18a20.1,20.1,0,0,1-3.68,12.19,26.25,26.25,0,0,1-8.74,7.82q4.14,5.64,8.17,10.58a68.51,68.51,0,0,1,6.32,9,10.81,10.81,0,0,1-4.19,6.16,11.77,11.77,0,0,1-6.85,2.12,14.9,14.9,0,0,1-4.37-.57,10.57,10.57,0,0,1-3.22-1.61,13.17,13.17,0,0,1-2.53-2.53,35.5,35.5,0,0,1-2.18-3.22L83.86,81ZM85,65.73a10.07,10.07,0,0,0,6.9-2.24c1.68-1.5,2.53-3.7,2.53-6.62a8,8,0,0,0-2.82-6.61Q88.8,48,82.71,48c-1.15,0-2.07,0-2.76.11s-1.46.2-2.3.35V65.73Z"/>
        <path class="cls-2" d="M125.37,48.48a26.87,26.87,0,0,1,3.63-.69,36.83,36.83,0,0,1,5.11-.35,27.15,27.15,0,0,1,4.55.35,7.74,7.74,0,0,1,3.39,1.38A6.65,6.65,0,0,1,144.18,52a12.37,12.37,0,0,1,.74,4.65V81.37c0,3.14.77,5.39,2.3,6.73s3.76,2,6.67,2a16.57,16.57,0,0,0,4.32-.46,14.68,14.68,0,0,0,2.58-.92V48.48a26.87,26.87,0,0,1,3.63-.69,36.83,36.83,0,0,1,5.11-.35,27.15,27.15,0,0,1,4.55.35,7.74,7.74,0,0,1,3.39,1.38A6.65,6.65,0,0,1,179.6,52a12.37,12.37,0,0,1,.74,4.65v35a9.4,9.4,0,0,1-4.83,8.63,31.45,31.45,0,0,1-9.6,3.85,52.62,52.62,0,0,1-12.13,1.32A44.73,44.73,0,0,1,142.34,104a25.49,25.49,0,0,1-9-4.25,19.05,19.05,0,0,1-5.87-7.42,26.37,26.37,0,0,1-2.07-11Z"/>
        <path class="cls-2" d="M212.2,103.45l-3.74.63a30.94,30.94,0,0,1-5,.4,27.13,27.13,0,0,1-4.55-.34,7.74,7.74,0,0,1-3.39-1.38,6.65,6.65,0,0,1-2.13-2.82,12.19,12.19,0,0,1-.74-4.66V28.58l3.73-.63a31,31,0,0,1,5-.4,27.09,27.09,0,0,1,4.54.34,7.74,7.74,0,0,1,3.39,1.38,6.65,6.65,0,0,1,2.13,2.82,12.17,12.17,0,0,1,.75,4.66Z"/>
        <path class="cls-2" d="M254.06,105.4a40.48,40.48,0,0,1-12.6-1.89,28.68,28.68,0,0,1-10.12-5.7,26.44,26.44,0,0,1-6.78-9.54,33.82,33.82,0,0,1-2.47-13.46,31.46,31.46,0,0,1,2.47-13.05,25.25,25.25,0,0,1,15.7-14.14A34.31,34.31,0,0,1,250.84,46a31.82,31.82,0,0,1,11.09,1.84,26.72,26.72,0,0,1,8.63,5.06,22.56,22.56,0,0,1,5.63,7.7,23.68,23.68,0,0,1,2,9.78,7.83,7.83,0,0,1-2.19,6A10.91,10.91,0,0,1,269.93,79l-28.41,4.26a9.52,9.52,0,0,0,5.18,5.69,20.19,20.19,0,0,0,9,1.9,31.91,31.91,0,0,0,8.91-1.21,27.76,27.76,0,0,0,6.84-2.82A9.71,9.71,0,0,1,274.53,90,8.46,8.46,0,0,1,271,102.07a25.39,25.39,0,0,1-8.28,2.64A58.32,58.32,0,0,1,254.06,105.4Zm-3.22-45.19a11.48,11.48,0,0,0-4.78.92,9.5,9.5,0,0,0-3.27,2.36,9.65,9.65,0,0,0-1.9,3.22,13.42,13.42,0,0,0-.75,3.62l19.67-3.22a8.74,8.74,0,0,0-2.53-4.6Q255.09,60.22,250.84,60.21Z"/>
        <path class="cls-2" d="M334.79,86.89q0,8.74-6.56,13.68t-19.32,5a54.65,54.65,0,0,1-9-.69,25.54,25.54,0,0,1-7.07-2.13,12.58,12.58,0,0,1-4.6-3.62,8.3,8.3,0,0,1-1.67-5.18,8.76,8.76,0,0,1,1.15-4.65,11.82,11.82,0,0,1,2.76-3.17,45.44,45.44,0,0,0,7.65,3.28,31.37,31.37,0,0,0,9.95,1.44,11.63,11.63,0,0,0,5.46-1,3.11,3.11,0,0,0,1.9-2.75,2.9,2.9,0,0,0-1.38-2.54,12.85,12.85,0,0,0-4.6-1.49L306,82.29q-10-2-14.9-6.15t-4.88-12a15.88,15.88,0,0,1,7-13.46,25.94,25.94,0,0,1,8-3.56,39.42,39.42,0,0,1,10.3-1.27,48.08,48.08,0,0,1,8,.64,26.15,26.15,0,0,1,6.5,1.89,11.87,11.87,0,0,1,4.37,3.28A7.42,7.42,0,0,1,332,56.41a9.86,9.86,0,0,1-1,4.55,10.28,10.28,0,0,1-2.47,3.16,14.57,14.57,0,0,0-2.76-1.21c-1.23-.42-2.57-.8-4-1.15s-2.93-.63-4.43-.86a27,27,0,0,0-4.08-.35,15.62,15.62,0,0,0-5.86.87,2.85,2.85,0,0,0-2.07,2.7,2.43,2.43,0,0,0,1.15,2.07,13.07,13.07,0,0,0,4.37,1.49l3.56.81q11,2.54,15.7,7A15.09,15.09,0,0,1,334.79,86.89Z"/>
      </g>
    </g>
  </g>
</svg>
