<svg xmlns="http://www.w3.org/2000/svg" viewBox="0 0 1362 944">
  <defs>
    <style>
      .cls-1 {
        fill: #88aa43;
      }

      .cls-2 {
        fill: #a5ca5c;
      }
    </style>
  </defs>
  <g id="Layer_6" data-name="Layer 6">
    <g>
      <path class="cls-1" d="M240.32,810.54s-21.94,65.83,68.89,109.11,236.42,18.25,253,0-21.95-7.31-21.95-7.31-49.37,18.89-120.08-42.67S268.36,803.22,240.32,810.54Z"/>
      <path class="cls-1" d="M381.74,739.59s-32,104.71,89,87.41c0,0,41-8.3,94.36-67.26,0,0,24.54-24,55.4-36.51,0,0,13.9-7.53,13.61-16.87-.42-13.21-33.74,3.3-33.74,3.3S571,726.08,506.22,721.37,422,707,381.74,739.59Z"/>
      <path class="cls-1" d="M563.51,628.28s-.11,72.54,84.62,66.44S769,651.85,769,651.85s17-15.13,55.29-45.13c0,0,26.93-26.85,3.74-16-8.41,3.93-45.17,28.42-80.52,20.5s-57.91-22-107.9-15.24S563.51,628.28,563.51,628.28Z"/>
      <path class="cls-1" d="M688.36,528.92s40-7.32,64.61,21.94c22.64,26.9,107.14,21.55,181-40.7,62.06-52.27,75.81-65.65,75.81-65.65s16.85-19.22.39-18-29.87,25.6-85.34,35.35S793.81,436.87,688.36,528.92Z"/>
      <path class="cls-1" d="M895,363s37.79-9,88.39,9.24,111.55,3.66,111.55,3.66,37.18-8.53,70.1-41.45,68.88-56.69,68.88-56.69,10.36-4.88,10.36-13.41c0-11.87-22.55,3.66-22.55,3.66s-36,25.6-83.51,20.11-103.63-5.48-103.63-5.48S940.72,288.49,895,363Z"/>
      <path class="cls-1" d="M1025.38,147s5,45.67,90.29,0c72.6-38.89,100-63.71,100-63.71s45.11-40.84,135.34-50c0,0,14-2,10.35-11S1319.87-4.46,1229.05,1.64,1085.49,27.85,1037.64,98C1037.64,98,1020.57,121.12,1025.38,147Z"/>
      <path class="cls-1" d="M769.38,332s68.28-6.17,95.14-110.16C890.8,120.11,943.1,69.37,962.66,58.5c26.58-14.76,0-19.5,0-19.5s-45.85-7.93-115.27,64.61-71.86,135.94-71.86,135.94-1.83,59.73-23.78,84.73S769.38,332,769.38,332Z"/>
      <path class="cls-1" d="M618.79,471s64.08-4.88,29.34-73.76c0,0-23.78-36.76,0-72s30.63-101.69,0-125.48c-18.34-14.24-12.2,8.53-12.2,8.53s12.36,42.27-39.44,98.75C505.59,406.15,585.56,465.09,618.79,471Z"/>
      <path class="cls-1" d="M423.19,588.66S440.84,594.22,422,533c-28.31-92,55.65-82.87-11.59-189.32,0,0-17.62-21.49-17.62,1.59,0,17.71,11.79,24.3-12.11,65,0,0-28.78,42.17-33.66,87.14S348.83,582,423.19,588.66Z"/>
      <path class="cls-1" d="M198.79,702.62c8.89,10.74,40.41-.85,56.74-9.84,10.54-5.8,22.57-12.42,29.51-26.56,9.37-19.08,3.15-39,1-45.58-9.23-28.12-26.68-25.18-57.06-65.26-14.84-19.59-32.53-42.93-25.9-63,1.84-5.56,6.41-13.46,2.95-18-3.65-4.83-13.83-2.81-16.4-2.3-21.74,4.31-44.75,30.56-48.53,60.67-2.87,22.8,4.87,49.14,22,64,9.86,8.54,16.08,7.39,25.58,18.36,13.22,15.28,15.26,33.78,15.74,38.7C207.11,682,191.8,694.17,198.79,702.62Z"/>
      <circle class="cls-2" cx="198.73" cy="721.37" r="33.23" transform="translate(-260.93 130.96) rotate(-22.5)"/>
      <circle class="cls-2" cx="426.9" cy="604.71" r="33.23"/>
      <circle class="cls-2" cx="618.79" cy="476.93" r="33.23"/>
      <circle class="cls-2" cx="769.38" cy="337.59" r="33.23"/>
      <circle class="cls-2" cx="888.54" cy="357.39" r="33.23"/>
      <circle class="cls-2" cx="685.25" cy="524.15" r="33.23"/>
      <circle class="cls-2" cx="559" cy="625.57" r="33.23"/>
      <circle class="cls-2" cx="367.11" cy="739.59" r="33.23"/>
      <circle class="cls-2" cx="235.96" cy="807.05" r="33.23"/>
      <path class="cls-2" d="M.22,916.67C-5.25,909,141.47,795.2,325.21,688,563.16,549.15,650.78,499,786,377.77,913.85,263.22,887.48,257.2,1022.78,147.48,1177.09,22.35,1317.86,12.54,1322.36,23.22c1,2.44-180.82,26.38-333.21,170.18-95.9,90.51-97,104.56-190.66,202.09C705.39,492.44,646.14,526,465.28,633,180.53,801.63,6.25,925.12.22,916.67Z"/>
    </g>
  </g>
</svg>
