<svg xmlns="http://www.w3.org/2000/svg" viewBox="0 0 496 148">
  <defs>
    <style>
      .cls-1 {
        fill: #ffbd60;
      }

      .cls-2 {
        fill: #fff;
      }
    </style>
  </defs>
  <g id="Settings">
    <g>
      <rect class="cls-1" x="0.31" y="0.28" width="495.37" height="147.44" rx="50"/>
      <g>
        <path class="cls-2" d="M57,78.16q-5.07-1.72-9.2-3.5a28.14,28.14,0,0,1-7.13-4.32,17.78,17.78,0,0,1-4.66-6,19.9,19.9,0,0,1-1.67-8.57A18.82,18.82,0,0,1,41.82,40.1q7.53-5.87,21.11-5.87a57.65,57.65,0,0,1,9.2.69,27.41,27.41,0,0,1,7.3,2.13,12.79,12.79,0,0,1,4.77,3.68A8.35,8.35,0,0,1,85.93,46a9.2,9.2,0,0,1-1.38,5.12,14.27,14.27,0,0,1-3.34,3.62,26.06,26.06,0,0,0-6.78-2.81,33.91,33.91,0,0,0-9.32-1.21q-5.18,0-7.59,1.44a4.18,4.18,0,0,0-2.41,3.62,3.34,3.34,0,0,0,1.49,2.82,15.4,15.4,0,0,0,4.49,2l6.09,2Q78,66,83.8,71.32t5.81,14.55a19.13,19.13,0,0,1-7.71,15.81q-7.71,6-22.65,6a53.25,53.25,0,0,1-9.84-.86,31.31,31.31,0,0,1-7.93-2.53,14.82,14.82,0,0,1-5.29-4.14,9.08,9.08,0,0,1-1.9-5.7,8.59,8.59,0,0,1,2-5.69,14.85,14.85,0,0,1,4.25-3.62,31.27,31.27,0,0,0,7.88,4.37,27.39,27.39,0,0,0,10.18,1.84c3.75,0,6.4-.58,7.93-1.73a5,5,0,0,0,2.3-4A3.94,3.94,0,0,0,67,82.13a24.31,24.31,0,0,0-5.17-2.36Z"/>
        <path class="cls-2" d="M128.82,107.72a40.46,40.46,0,0,1-12.59-1.9,28.42,28.42,0,0,1-10.12-5.69,26.3,26.3,0,0,1-6.79-9.55,33.77,33.77,0,0,1-2.47-13.45,31.43,31.43,0,0,1,2.47-13A25.3,25.3,0,0,1,115,49.93a34.36,34.36,0,0,1,10.58-1.67,32.15,32.15,0,0,1,11.1,1.84,26.85,26.85,0,0,1,8.62,5.06A22.5,22.5,0,0,1,151,62.87a23.62,23.62,0,0,1,2,9.77,7.86,7.86,0,0,1-2.18,6,11,11,0,0,1-6.1,2.65l-28.4,4.25a9.55,9.55,0,0,0,5.17,5.7,20.39,20.39,0,0,0,9,1.89,32.29,32.29,0,0,0,8.91-1.2,28.82,28.82,0,0,0,6.85-2.82,9.68,9.68,0,0,1,3.1,3.22,8.29,8.29,0,0,1,1.27,4.37,8.19,8.19,0,0,1-4.83,7.7,25.55,25.55,0,0,1-8.28,2.65A58.45,58.45,0,0,1,128.82,107.72Zm-3.22-45.2a11.43,11.43,0,0,0-4.77.92,9.67,9.67,0,0,0-3.28,2.36,9.83,9.83,0,0,0-1.9,3.22,13.11,13.11,0,0,0-.74,3.62l19.66-3.22a8.7,8.7,0,0,0-2.53-4.6C130.58,63.29,128.44,62.52,125.6,62.52Z"/>
        <path class="cls-2" d="M182,86.67a4.73,4.73,0,0,0,1.9,4.26,9.61,9.61,0,0,0,5.34,1.26,23.36,23.36,0,0,0,3.57-.28,21.67,21.67,0,0,0,3.22-.75A13.91,13.91,0,0,1,197.76,94a8.5,8.5,0,0,1,.75,3.73,8.87,8.87,0,0,1-3.28,7.13q-3.27,2.76-11.56,2.76-10.11,0-15.58-4.6t-5.46-15V38.83c.84-.23,2.05-.48,3.62-.75a30.6,30.6,0,0,1,5-.4c3.38,0,6,.6,7.88,1.79S182,43.16,182,47v7.36H197a19.57,19.57,0,0,1,1.32,3.16,13.31,13.31,0,0,1,.63,4.2q0,4-1.78,5.81a6.48,6.48,0,0,1-4.77,1.78H182Z"/>
        <path class="cls-2" d="M228,86.67a4.73,4.73,0,0,0,1.9,4.26,9.58,9.58,0,0,0,5.34,1.26,23.36,23.36,0,0,0,3.57-.28,22,22,0,0,0,3.22-.75A13.91,13.91,0,0,1,243.76,94a8.5,8.5,0,0,1,.75,3.73,8.87,8.87,0,0,1-3.28,7.13q-3.27,2.76-11.56,2.76-10.11,0-15.58-4.6t-5.46-15V38.83c.84-.23,2.05-.48,3.62-.75a30.6,30.6,0,0,1,5-.4c3.38,0,6,.6,7.88,1.79S228,43.16,228,47v7.36H243a20.46,20.46,0,0,1,1.33,3.16,13.31,13.31,0,0,1,.63,4.2c0,2.68-.6,4.62-1.78,5.81a6.49,6.49,0,0,1-4.78,1.78H228Z"/>
        <path class="cls-2" d="M253.94,34.46a10.14,10.14,0,0,1,2.93-7.36,11.58,11.58,0,0,1,15.53,0,10.14,10.14,0,0,1,2.93,7.36,10.11,10.11,0,0,1-2.93,7.36,11.58,11.58,0,0,1-15.53,0A10.11,10.11,0,0,1,253.94,34.46Zm20.47,71.3c-.85.16-2.09.37-3.74.64a32.11,32.11,0,0,1-5,.4,27.15,27.15,0,0,1-4.55-.35,7.74,7.74,0,0,1-3.39-1.38,6.52,6.52,0,0,1-2.12-2.81,12.17,12.17,0,0,1-.75-4.66V50.79l3.74-.63a30.76,30.76,0,0,1,5-.4,27.09,27.09,0,0,1,4.54.34,7.74,7.74,0,0,1,3.39,1.38,6.65,6.65,0,0,1,2.13,2.82,12.17,12.17,0,0,1,.75,4.66Z"/>
        <path class="cls-2" d="M322.25,70.46q0-3.57-2-5.23a8.35,8.35,0,0,0-5.47-1.67,18.4,18.4,0,0,0-4.54.57,11.53,11.53,0,0,0-3.85,1.73v39.9a26.87,26.87,0,0,1-3.63.69,36.83,36.83,0,0,1-5.11.35,27.15,27.15,0,0,1-4.55-.35,7.74,7.74,0,0,1-3.39-1.38,6.52,6.52,0,0,1-2.12-2.81,12.17,12.17,0,0,1-.75-4.66V63.1A8.86,8.86,0,0,1,288.15,58a14.14,14.14,0,0,1,3.62-3.57A33,33,0,0,1,301.61,50a46.91,46.91,0,0,1,13.16-1.73q13,0,20,5.7t7,15.81v36a26.87,26.87,0,0,1-3.63.69,36.83,36.83,0,0,1-5.11.35,26.94,26.94,0,0,1-4.54-.35,7.73,7.73,0,0,1-3.4-1.38,6.52,6.52,0,0,1-2.12-2.81,12.17,12.17,0,0,1-.75-4.66Z"/>
        <path class="cls-2" d="M381.13,48.26A39.93,39.93,0,0,1,393,49.93a31.58,31.58,0,0,1,9,4.31,14,14,0,0,1,3.62,3.57A8.86,8.86,0,0,1,407,62.87v40.25a22.46,22.46,0,0,1-2.3,10.52,21.12,21.12,0,0,1-6.26,7.36,26.65,26.65,0,0,1-9.32,4.31,45.69,45.69,0,0,1-11.44,1.38q-10.47,0-16.45-2.82t-6-9.14a9.68,9.68,0,0,1,1.09-4.65,9.19,9.19,0,0,1,2.48-3,38.69,38.69,0,0,0,7.53,3.1A29.7,29.7,0,0,0,375,111.4q6.21,0,9.89-2.07a7.06,7.06,0,0,0,3.68-6.67v-1.84a28.56,28.56,0,0,1-11.5,2.07,30.76,30.76,0,0,1-9.83-1.56,21.93,21.93,0,0,1-8.16-4.82,23.77,23.77,0,0,1-5.64-8.46,32.22,32.22,0,0,1-2.13-12.3,30.56,30.56,0,0,1,2.24-12.19A23.32,23.32,0,0,1,359.79,55a26,26,0,0,1,9.43-5.06A40.72,40.72,0,0,1,381.13,48.26Zm7.13,16.68A11.59,11.59,0,0,0,385.9,64a13.61,13.61,0,0,0-3.85-.46q-5.64,0-8.46,3.16t-2.81,9q0,6.68,2.81,9.6a9.53,9.53,0,0,0,7.19,2.93,11.7,11.7,0,0,0,7.48-2.18Z"/>
        <path class="cls-2" d="M466.23,89.2q0,8.74-6.56,13.69t-19.32,4.94a54.65,54.65,0,0,1-9-.69,25.89,25.89,0,0,1-7.07-2.12,12.6,12.6,0,0,1-4.6-3.63A8.28,8.28,0,0,1,418,96.22a8.82,8.82,0,0,1,1.15-4.66A11.77,11.77,0,0,1,422,88.4a46.27,46.27,0,0,0,7.65,3.28,31.67,31.67,0,0,0,9.95,1.43,11.65,11.65,0,0,0,5.46-1,3.11,3.11,0,0,0,1.9-2.76,2.89,2.89,0,0,0-1.38-2.53,12.82,12.82,0,0,0-4.6-1.5l-3.45-.69q-10-1.95-14.9-6.15t-4.88-12a15.88,15.88,0,0,1,7-13.45,26.19,26.19,0,0,1,8-3.57A39.44,39.44,0,0,1,443,48.15a48.12,48.12,0,0,1,8,.63,25.72,25.72,0,0,1,6.5,1.9A11.76,11.76,0,0,1,461.86,54a7.42,7.42,0,0,1,1.61,4.77,9.81,9.81,0,0,1-1,4.54A10.16,10.16,0,0,1,460,66.43a14.65,14.65,0,0,0-2.76-1.2,39.1,39.1,0,0,0-4-1.15c-1.46-.35-2.93-.64-4.43-.87a26.88,26.88,0,0,0-4.08-.34,15.85,15.85,0,0,0-5.86.86,2.87,2.87,0,0,0-2.07,2.7,2.41,2.41,0,0,0,1.15,2.07,13,13,0,0,0,4.37,1.5l3.56.8q11,2.53,15.7,7A15.1,15.1,0,0,1,466.23,89.2Z"/>
      </g>
    </g>
  </g>
</svg>
