<svg xmlns="http://www.w3.org/2000/svg" viewBox="0 0 1286 833">
  <defs>
    <style>
      .cls-1 {
        fill: #ff9cbc;
      }

      .cls-2 {
        fill: #ffdde7;
      }

      .cls-3 {
        fill: #ffbdd2;
      }

      .cls-4 {
        fill: #ffb2ca;
      }

      .cls-5 {
        fill: #fff;
      }
    </style>
  </defs>
  <g id="Layer_9" data-name="Layer 9">
    <g>
      <path class="cls-1" d="M390.4,292.27s20.67,22.78-20.61,72.64c0,0,47.27,16.54,12.89,101.95,0,0,66.64,29.16,52.06,97.89,0,0,57.28-13.53,81.23,46.87,0,0,56.93-9,78.46,31.43,0,0,41.18-20.11,76.66,9.12C671.09,652.17,237.75,659.26,390.4,292.27Z"/>
      <path class="cls-2" d="M380.84,324S241.47,676.51,781.77,652.92c0,0-355.36,132.63-504.3-85C277.47,567.88,220.7,425.86,380.84,324Z"/>
      <ellipse cx="807.95" cy="111.37" rx="90.34" ry="41.91" transform="translate(378.39 804.66) rotate(-66.07)"/>
      <path class="cls-3" d="M1243.71,271.79l-228-47.78s-172-54.61-258.05-120.15S432.73,1.47,432.73,1.47,329-12.19,225.2,56.08,73.65,192.61,73.65,192.61-46.49,359.17,20.41,533.93,217,772.86,217,772.86s159.74,95.57,383.65,45c0,0,132.43-20.48,210.25-146.08,0,0,20.48-31.41-65.53-13.66S572,669.09,572,669.09s-39.6-23.21-87.38,5.47c0,0-23.21-35.5-87.38-17.75,0,0-2.73-72.36-98.3-92.84,0,0,25.94-77.82-9.56-132.44,0,0,73.73-25.94,101-139.26,0,0,47.79,9.56,187.05-30s666.26,38.23,666.26,38.23S1279.21,290.91,1243.71,271.79Z"/>
      <path class="cls-4" d="M924.42,550.78s114.69-188.41,109.23-211.62-16.39-27.31-41-9.56S775.61,552.14,781.07,672.29c0,0-.12,69.63,433.48-73.73,0,0,142-54.61,25.25-69.63C1180.36,521.28,1105.32,501.62,924.42,550.78Z"/>
      <path class="cls-1" d="M893.31,570.58S974,438.11,970.11,421.79s-11.52-19.2-28.8-6.72S788.68,571.54,792.52,656c0,0-.08,49,304.78-51.84,0,0,99.83-38.4,17.76-49C1073.26,549.85,1020.51,536,893.31,570.58Z"/>
      <ellipse cx="716.12" cy="94.64" rx="90.34" ry="41.91" transform="translate(339.1 710.79) rotate(-66.07)"/>
      <ellipse class="cls-5" cx="746.57" cy="56.87" rx="15.26" ry="19.19"/>
      <circle class="cls-5" cx="713.65" cy="74.97" r="10.25"/>
      <ellipse class="cls-5" cx="810.42" cy="69.29" rx="19.19" ry="15.26" transform="translate(418.32 781.91) rotate(-66.07)"/>
      <circle class="cls-5" cx="833.17" cy="99.18" r="10.25"/>
      <path class="cls-1" d="M390.4,292.27S131,319.94,184,85.22C184,85.22,94.65,324,390.4,292.27Z"/>
      <path class="cls-1" d="M289.37,431.53s-220,49.2-287-47.68C2.33,383.85,65.83,514.57,289.37,431.53Z"/>
      <path class="cls-1" d="M298.93,564s-58.24,87.15-217.5,83.94C81.43,647.91,239.46,678.39,298.93,564Z"/>
      <path class="cls-1" d="M397.23,656.81S417,757.1,289.37,803.87C289.37,803.87,426,775.58,397.23,656.81Z"/>
      <path class="cls-1" d="M484.61,674.56s58.65,60.51,13.53,158.09C498.14,832.65,562.15,749.54,484.61,674.56Z"/>
      <path class="cls-1" d="M572,669.09s84.24,39.13,32.68,148.08C604.67,817.17,677,711.55,572,669.09Z"/>
    </g>
  </g>
</svg>
