<svg xmlns="http://www.w3.org/2000/svg" viewBox="0 0 703 245">
  <defs>
    <style>
      .cls-1 {
        fill: #ffbd60;
      }

      .cls-2 {
        fill: #ffcf92;
      }

      .cls-3 {
        fill: #fff;
      }
    </style>
  </defs>
  <g id="Start">
    <g>
      <rect class="cls-1" x="10.29" y="10.61" width="691.44" height="234" rx="50"/>
      <rect class="cls-2" x="1.29" y="1.61" width="691.44" height="234" rx="50"/>
      <g>
        <path class="cls-3" d="M160.15,131.3q-9-3.06-16.32-6.22a49.82,49.82,0,0,1-12.65-7.65,31.74,31.74,0,0,1-8.26-10.71,35.21,35.21,0,0,1-3-15.2q0-17.33,13.36-27.74t37.44-10.4a102.79,102.79,0,0,1,16.32,1.22A48.75,48.75,0,0,1,200,58.38a22.54,22.54,0,0,1,8.47,6.52,14.79,14.79,0,0,1,3.06,9.28,16.32,16.32,0,0,1-2.45,9.08,25.26,25.26,0,0,1-5.92,6.43,46.27,46.27,0,0,0-12-5,60.27,60.27,0,0,0-16.52-2.14q-9.18,0-13.47,2.55c-2.86,1.7-4.28,3.84-4.28,6.42a5.93,5.93,0,0,0,2.65,5,27.18,27.18,0,0,0,8,3.57l10.82,3.47q19.17,6.12,29.47,15.61T218.09,145q0,17.34-13.67,28.05t-40.19,10.71a93.49,93.49,0,0,1-17.44-1.53,55.2,55.2,0,0,1-14.08-4.48,25.91,25.91,0,0,1-9.38-7.35,16.15,16.15,0,0,1-3.37-10.1,15.29,15.29,0,0,1,3.47-10.09,26.46,26.46,0,0,1,7.55-6.43,55.15,55.15,0,0,0,14,7.75A48.66,48.66,0,0,0,163,154.76q10,0,14.07-3t4.08-7.15a7,7,0,0,0-3.26-6.22,42.82,42.82,0,0,0-9.18-4.18Z"/>
        <path class="cls-3" d="M269.49,146.4c0,3.54,1.13,6,3.37,7.55s5.41,2.24,9.49,2.24a41,41,0,0,0,6.32-.51,35,35,0,0,0,5.71-1.32,24.43,24.43,0,0,1,3.16,5,15.11,15.11,0,0,1,1.33,6.63,15.77,15.77,0,0,1-5.81,12.65q-5.82,4.91-20.51,4.9-18,0-27.64-8.16t-9.69-26.52V61.54q2.25-.61,6.43-1.33a53.22,53.22,0,0,1,8.87-.71q9,0,14,3.16t5,13.36V89.08h26.73a35.61,35.61,0,0,1,2.34,5.61,23.33,23.33,0,0,1,1.13,7.44q0,7.14-3.17,10.3a11.4,11.4,0,0,1-8.46,3.17H269.49Z"/>
        <path class="cls-3" d="M357.21,78.26a83.6,83.6,0,0,1,20.1,2.25,45,45,0,0,1,15.5,6.83A30.87,30.87,0,0,1,402.7,99a37.13,37.13,0,0,1,3.47,16.63v45.69a12.65,12.65,0,0,1-3,8.67,29.45,29.45,0,0,1-7,5.82q-13.28,8-37.34,7.95a85.24,85.24,0,0,1-19.48-2,45.82,45.82,0,0,1-14.89-6.12,28.09,28.09,0,0,1-9.59-10.4,30.83,30.83,0,0,1-3.36-14.69q0-14.07,8.36-21.62t25.91-9.39l26.72-2.85v-1.43a8.76,8.76,0,0,0-5.2-8.47q-5.21-2.55-15-2.55a69.93,69.93,0,0,0-15.1,1.63A79.41,79.41,0,0,0,324,109.89a14.22,14.22,0,0,1-4.49-5.62,17.76,17.76,0,0,1-1.83-7.85c0-3.53.84-6.36,2.55-8.46A19.72,19.72,0,0,1,328,82.55a61,61,0,0,1,14-3.26A121.53,121.53,0,0,1,357.21,78.26Zm1.63,80.18a45.24,45.24,0,0,0,7.65-.72,18.7,18.7,0,0,0,6.23-1.93V139.47L358,140.69a22.57,22.57,0,0,0-9.39,2.45,6.6,6.6,0,0,0-3.67,6.12,8.11,8.11,0,0,0,3.16,6.63Q351.3,158.44,358.84,158.44Z"/>
        <path class="cls-3" d="M462.07,180.26a47.3,47.3,0,0,1-6.43,1.23,65.41,65.41,0,0,1-9.08.61,47.83,47.83,0,0,1-8.06-.61,13.76,13.76,0,0,1-6-2.45,11.82,11.82,0,0,1-3.78-5,21.69,21.69,0,0,1-1.32-8.26v-61.2a17.37,17.37,0,0,1,1.73-8.06,18.73,18.73,0,0,1,5-6,35.85,35.85,0,0,1,8.06-4.8,82.85,82.85,0,0,1,10.3-3.77,86.64,86.64,0,0,1,11.42-2.55,76.14,76.14,0,0,1,11.83-.92q9.79,0,15.51,3.77T497,94.59a19.7,19.7,0,0,1-.81,5.6,26.11,26.11,0,0,1-2,5q-4.29,0-8.78.41c-3,.28-5.91.68-8.77,1.23s-5.54,1.12-8.06,1.73a35.65,35.65,0,0,0-6.42,2.14Z"/>
        <path class="cls-3" d="M545.91,146.4c0,3.54,1.12,6,3.37,7.55s5.4,2.24,9.48,2.24a41.07,41.07,0,0,0,6.33-.51,35,35,0,0,0,5.71-1.32,25.32,25.32,0,0,1,3.16,5,15.25,15.25,0,0,1,1.33,6.63,15.75,15.75,0,0,1-5.82,12.65q-5.81,4.91-20.5,4.9-18,0-27.64-8.16t-9.69-26.52V61.54q2.24-.61,6.42-1.33a53.43,53.43,0,0,1,8.88-.71q9,0,14,3.16t5,13.36V89.08h26.72A34.64,34.64,0,0,1,575,94.69a23.33,23.33,0,0,1,1.12,7.44q0,7.14-3.16,10.3a11.41,11.41,0,0,1-8.47,3.17H545.91Z"/>
      </g>
    </g>
  </g>
</svg>
