<svg xmlns="http://www.w3.org/2000/svg" viewBox="0 0 1626 880">
  <defs>
    <style>
      .cls-1 {
        fill: #ffcf92;
      }

      .cls-2 {
        font-size: 55px;
        font-family: Rockwell-Regular, Rockwell;
      }

      .cls-2, .cls-20 {
        fill: #fff;
      }

      .cls-3 {
        letter-spacing: 0.02em;
      }

      .cls-4 {
        letter-spacing: 0em;
      }

      .cls-5 {
        letter-spacing: 0.02em;
      }

      .cls-6 {
        letter-spacing: 0em;
      }

      .cls-7 {
        letter-spacing: -0.06em;
      }

      .cls-8 {
        letter-spacing: -0.02em;
      }

      .cls-9 {
        letter-spacing: -0.02em;
      }

      .cls-10 {
        letter-spacing: -0.1em;
      }

      .cls-11 {
        letter-spacing: -0.06em;
      }

      .cls-12 {
        letter-spacing: -0.03em;
      }

      .cls-13 {
        fill: #ffbd60;
      }

      .cls-14 {
        fill: #73cd91;
      }

      .cls-15 {
        fill: #62b07b;
      }

      .cls-16 {
        fill: #3ca173;
      }

      .cls-17 {
        fill: #cdff97;
      }

      .cls-18 {
        fill: #35664f;
      }

      .cls-19 {
        fill: #74cd91;
      }

      .cls-21 {
        fill: #f9a0ca;
      }
    </style>
  </defs>
  <g id="Story">
    <rect class="cls-1" x="0.5" y="0.26" width="1625.01" height="879.48"/>
    <text class="cls-2" transform="translate(665.22 200.13)">The hung<tspan class="cls-3" x="260.82" y="0">r</tspan><tspan class="cls-4" x="286.84" y="0">y turtle is ve</tspan><tspan class="cls-3" x="625.46" y="0">r</tspan><tspan x="651.49" y="0">y hung</tspan><tspan class="cls-5" x="841.73" y="0">r</tspan><tspan class="cls-6" x="867.75" y="0">y!</tspan></text>
    <text class="cls-2" transform="translate(665.22 307.64)">Sometimes, he fo<tspan class="cls-7" x="466.45" y="0">r</tspan><tspan x="488.07" y="0">gets w</tspan><tspan class="cls-8" x="667.63" y="0">h</tspan><tspan x="701.33" y="0">at he </tspan><tspan x="0" y="66">can and cannot eat.</tspan></text>
    <text class="cls-2" transform="translate(665.22 473.4)">Unfortu<tspan class="cls-9" x="204.45" y="0">n</tspan><tspan x="238.37" y="0">atel</tspan><tspan class="cls-10" x="339.86" y="0">y</tspan><tspan x="368.67" y="0">, the</tspan><tspan class="cls-11" x="487.43" y="0">r</tspan><tspan x="509.05" y="0">e is a lot of </tspan><tspan x="0" y="66">trash in the ocean and we need </tspan><tspan class="cls-12" x="0" y="132">y</tspan><tspan x="32.68" y="132">our help to clean it up!</tspan></text>
    <rect class="cls-13" x="43.46" y="199.11" width="586.81" height="521.02" rx="48.12"/>
    <g>
      <path class="cls-14" d="M114.44,502s-12-2.44-32-24.32-17.8-33.74-17.8-33.74,2.25-8.7,13.35,0c18.91,14.83,46.13,21.27,46.13,21.27L114.44,502"/>
      <path class="cls-15" d="M219.1,576.18s-6,46.6,8.64,82.3,23.3-2.25,23.3-2.25,6.58-17.75,19.54-32.31C280.16,613.17,286,585.2,283,581.06S256.68,532.58,219.1,576.18Z"/>
      <path class="cls-15" d="M524.64,474.71s31.17,37.18,32.74,82.22c0,0,2.88,10-5.24,15.71s-15.71-10.47-15.71-10.47-6-11.26-23.57-22S469.39,523.94,456,491.73,501.08,441.71,524.64,474.71Z"/>
      <path class="cls-16" d="M108.91,519.19l24.51-93.28s1.37-15.66,14.3-21.79c0,0,51.59-42.74,69.3-51.59,0,0,14.76-9.28,27-11,0,0,85.61-24.41,137.05-18.91,0,0,37.85,1.61,48.29,18.77L503.87,427S356.07,702.9,108.91,519.19Z"/>
      <path class="cls-17" d="M126.75,531.13s99.3,80.42,214.47,40.89S490.5,452.07,490.5,452.07l-43.13,20.08-38.27,2.24-36.42,17.24-48.6,33.87-48.28,4.73-54-9.46-36.93-.45-23.42,10.81Z"/>
      <g>
        <path class="cls-14" d="M221.12,530.38s10.41,18.41-17.78,66.25S134,657.08,134,657.08s-11.12,3.34-15.94,17.43-14.47,7.79-14.47,7.79-8.9-5.2-1.85-49.33,22.93-67.86,22.93-67.86S147,523.2,174.05,518.38s47.07,12,47.07,12"/>
        <ellipse class="cls-15" cx="144.63" cy="561.02" rx="10.44" ry="6.09" transform="translate(-375.8 306.42) rotate(-49.48)"/>
        <ellipse class="cls-15" cx="136.28" cy="578.69" rx="6.44" ry="5.27" transform="translate(-392.15 306.27) rotate(-49.48)"/>
        <ellipse class="cls-15" cx="151.69" cy="572.47" rx="5.48" ry="4.82" transform="translate(-428.69 454.62) rotate(-63.68)"/>
      </g>
      <g>
        <path class="cls-14" d="M442.83,486.1s37,36.47,36.09,123.92c0,0-6.58,25.05-18,7.91s-31.23-30.32-31.23-30.32-33.4-13.18-53.17-40.87-14.94-54.05-14.94-54.05S400.64,448.31,442.83,486.1Z"/>
        <ellipse class="cls-15" cx="454.63" cy="532.98" rx="6.12" ry="8.97" transform="translate(-154.06 186.21) rotate(-19.87)"/>
        <ellipse class="cls-15" cx="456.99" cy="550.15" rx="6.69" ry="5.93" transform="translate(-159.75 188.03) rotate(-19.87)"/>
        <circle class="cls-15" cx="444.82" cy="543.39" r="4.55"/>
      </g>
      <path class="cls-18" d="M109.41,518.07s6.2,4,9.91,5.85,23,0,23,0,23.35-9.45,26.56-9.9,21.23-3.6,25.67-3.6,21-.52,26.12,0,17.77,5.41,21.62,6.75,28.36,3.6,28.36,3.6,16.95.7,20.72,0,16.33-2.3,19.36-3.6l15.76-6.75s14.27-6.72,17.12-9l16.21-13.06L376,478s15.85-9.45,20.26-10.35l19.82-4.06,22.06-2.25,15.76-4.95,9-6.56,10.36-2.9,5.85,2.68,4.95,5.88-6.3,8.1-9.91,8.11s-7.84,3.94-11.26,5.85-17.5,3.65-14,3.15-19.18.82-23,1.39-16,1.91-20.19,3.34S376,499.61,376,499.61l-11.26,8.1c2.78-2-4.48,4.62-8.11,7.21s-26.11,14.86-26.11,14.86l-15.31,5.4a58,58,0,0,1-14,3.15c-7.67.72-42.92.47-49.54,0s-13.69-3.63-20.26-5l-15.76-3.15s-2.5-1.14-13.06-1.8-27.92,4.05-27.92,4.05-19.43,8-27.47,9.46-18.32.7-25.22,0a47.84,47.84,0,0,1-12.61-3.16,38.89,38.89,0,0,0-6.75-4c-3.53-1.57-5-7.65-5-7.65a9.77,9.77,0,0,1,2.71-7.66C103.67,516.32,109.41,518.07,109.41,518.07Z"/>
      <ellipse class="cls-19" cx="478.92" cy="357.38" rx="129.56" ry="118.92"/>
      <circle cx="408.04" cy="358.31" r="26.76"/>
      <circle class="cls-20" cx="418.23" cy="348.45" r="7.88"/>
      <circle class="cls-20" cx="406.33" cy="360.82" r="5.12"/>
      <circle cx="559.15" cy="329.56" r="26.76"/>
      <circle class="cls-20" cx="544.8" cy="326.66" r="7.88"/>
      <circle class="cls-20" cx="560.86" cy="331.55" r="5.12"/>
      <path d="M526.09,401.49c-10.9,44.46-46.2,14.82-46.2,14.82l6.75-2.57s26.47,20.65,33-10.36Z"/>
      <ellipse class="cls-21" cx="438.08" cy="401.49" rx="12.9" ry="5.82" transform="translate(-102.07 153.8) rotate(-17.87)"/>
      <ellipse class="cls-21" cx="550.4" cy="377.56" rx="12.9" ry="5.82" transform="translate(-89.3 187.11) rotate(-17.87)"/>
      <ellipse class="cls-15" cx="408.02" cy="271.52" rx="11.05" ry="6.12" transform="translate(-81.69 291.12) rotate(-35.93)"/>
      <ellipse class="cls-15" cx="391.11" cy="283.77" rx="5.12" ry="3.34" transform="translate(-92.1 283.53) rotate(-35.93)"/>
      <circle class="cls-15" cx="422.03" cy="260.34" r="2.94"/>
      <ellipse class="cls-15" cx="402.86" cy="286.36" rx="5.12" ry="4.35" transform="translate(34.41 615.82) rotate(-77.21)"/>
    </g>
  </g>
</svg>
