<svg xmlns="http://www.w3.org/2000/svg" viewBox="0 0 770 461">
  <defs>
    <style>
      .cls-1, .cls-2 {
        fill: none;
        stroke-miterlimit: 10;
      }

      .cls-1 {
        stroke: #72d1f8;
        stroke-width: 35px;
      }

      .cls-2 {
        stroke: #68c7ed;
        stroke-width: 31px;
      }

      .cls-3 {
        fill: #fff998;
      }
    </style>
  </defs>
  <g id="Title">
    <g>
      <path class="cls-1" d="M106.4,132.85Q95.11,129,85.87,125A62.69,62.69,0,0,1,70,115.39a39.78,39.78,0,0,1-10.4-13.48q-3.72-7.81-3.72-19.12,0-21.81,16.81-34.91t47.11-13.1a129.3,129.3,0,0,1,20.54,1.54,61.77,61.77,0,0,1,16.3,4.75,28.46,28.46,0,0,1,10.65,8.22A18.6,18.6,0,0,1,171.09,61,20.46,20.46,0,0,1,168,72.39a31.79,31.79,0,0,1-7.44,8.09,58.14,58.14,0,0,0-15.15-6.29,75.81,75.81,0,0,0-20.79-2.7q-11.55,0-16.94,3.21t-5.4,8.09a7.49,7.49,0,0,0,3.34,6.29,34.51,34.51,0,0,0,10,4.49l13.61,4.37q24.12,7.69,37.09,19.63t13,32.48q0,21.82-17.2,35.3t-50.57,13.47a118,118,0,0,1-22-1.92,69.35,69.35,0,0,1-17.72-5.65A32.63,32.63,0,0,1,60.07,182a20.26,20.26,0,0,1-4.24-12.71,19.27,19.27,0,0,1,4.36-12.71,33.38,33.38,0,0,1,9.5-8.08,69.74,69.74,0,0,0,17.59,9.75A61.24,61.24,0,0,0,110,162.37q12.57,0,17.71-3.85t5.13-9a8.78,8.78,0,0,0-4.1-7.82,53.36,53.36,0,0,0-11.56-5.27Z"/>
      <path class="cls-1" d="M254.27,66.1a105.44,105.44,0,0,1,25.28,2.83,56.48,56.48,0,0,1,19.51,8.6,38.84,38.84,0,0,1,12.45,14.63q4.37,8.85,4.37,20.92v57.51a15.94,15.94,0,0,1-3.73,10.91,37.05,37.05,0,0,1-8.85,7.31q-16.69,10-47,10a107.48,107.48,0,0,1-24.52-2.56,58.28,58.28,0,0,1-18.74-7.7A35.34,35.34,0,0,1,201,175.46,38.65,38.65,0,0,1,196.76,157q0-17.72,10.53-27.21T239.89,118l33.63-3.59v-1.8A11,11,0,0,0,267,101.91q-6.54-3.19-18.86-3.2a87.23,87.23,0,0,0-19,2.05,101.39,101.39,0,0,0-16.69,5.13,17.8,17.8,0,0,1-5.65-7.06A22.28,22.28,0,0,1,204.46,89q0-6.67,3.21-10.65t9.89-6.81a77.42,77.42,0,0,1,17.58-4.1A151.86,151.86,0,0,1,254.27,66.1Zm2,100.89a57.53,57.53,0,0,0,9.63-.9,23.31,23.31,0,0,0,7.83-2.44V143.12l-18.49,1.54a28.41,28.41,0,0,0-11.81,3.08,8.29,8.29,0,0,0-4.62,7.7,10.21,10.21,0,0,0,4,8.34Q246.82,167,256.32,167Z"/>
      <path class="cls-1" d="M422.93,191.38q-3.6,2.82-10.53,4.62a62.41,62.41,0,0,1-15.66,1.8,52.51,52.51,0,0,1-17.33-2.57q-7.31-2.56-10.14-8.21-2.31-4.36-5.52-12.2T357,157.37q-3.6-9.63-7.44-20.67t-7.32-21.82q-3.46-10.78-6.29-20.79t-4.62-17.72a33.27,33.27,0,0,1,22.85-9q9,0,14.76,3.72t8.6,14l10,39.28q2.82,11.55,5.39,20.92t3.85,14.5H398q4.86-19,10.26-42.1t9.76-45.44a41,41,0,0,1,9.88-3.59,47.32,47.32,0,0,1,10.66-1.28q9,0,15.14,3.85t6.16,13.35A54.53,54.53,0,0,1,458,96.52q-1.94,7.85-4.88,17.72t-6.93,20.92q-4,11-8.09,21.56T430,176.36Q426,185.48,422.93,191.38Z"/>
      <path class="cls-1" d="M544.1,198.82A90.11,90.11,0,0,1,516,194.59a63.63,63.63,0,0,1-22.59-12.71,58.85,58.85,0,0,1-15.15-21.31q-5.52-12.82-5.52-30,0-16.95,5.52-29.14a56.36,56.36,0,0,1,35-31.57,76.58,76.58,0,0,1,23.62-3.73,71.47,71.47,0,0,1,24.77,4.11,59.74,59.74,0,0,1,19.26,11.3,50.13,50.13,0,0,1,12.57,17.2,52.6,52.6,0,0,1,4.5,21.82q0,8.73-4.88,13.35t-13.61,5.9l-63.4,9.5q2.82,8.47,11.55,12.71a45.32,45.32,0,0,0,20,4.23,71.94,71.94,0,0,0,19.9-2.69,63.34,63.34,0,0,0,15.27-6.29,21.42,21.42,0,0,1,6.93,7.18,18.49,18.49,0,0,1,2.83,9.76q0,11.55-10.79,17.2a57,57,0,0,1-18.48,5.9A129.85,129.85,0,0,1,544.1,198.82ZM536.91,97.94a25.47,25.47,0,0,0-10.66,2,21.44,21.44,0,0,0-7.31,5.26,21.76,21.76,0,0,0-4.24,7.19,29.67,29.67,0,0,0-1.67,8.09l43.9-7.19c-.51-3.42-2.4-6.84-5.64-10.27S543.24,97.94,536.91,97.94Z"/>
    </g>
    <g>
      <path class="cls-1" d="M213.79,256a3.84,3.84,0,0,0,1.54,3.47,7.83,7.83,0,0,0,4.36,1,18.41,18.41,0,0,0,2.91-.24,15.76,15.76,0,0,0,2.63-.61,12,12,0,0,1,1.45,2.3,6.91,6.91,0,0,1,.61,3.05,7.25,7.25,0,0,1-2.67,5.81c-1.78,1.5-4.93,2.25-9.43,2.25q-8.25,0-12.7-3.75T198,257.09V217c.68-.19,1.67-.39,3-.61a24.08,24.08,0,0,1,4.08-.33,12,12,0,0,1,6.42,1.46c1.53,1,2.3,3,2.3,6.14v6h12.28a15.93,15.93,0,0,1,1.08,2.58,10.86,10.86,0,0,1,.51,3.42q0,3.28-1.45,4.73a5.27,5.27,0,0,1-3.89,1.46h-8.53Z"/>
      <path class="cls-1" d="M280.36,271.53a21.93,21.93,0,0,1-3,.56,29.69,29.69,0,0,1-4.17.28,21.77,21.77,0,0,1-3.7-.28,6.35,6.35,0,0,1-2.77-1.12,5.4,5.4,0,0,1-1.73-2.3,9.87,9.87,0,0,1-.61-3.8V244.06c0-2.57-.64-4.36-1.92-5.39a7.29,7.29,0,0,0-4.74-1.55,13.31,13.31,0,0,0-3.56.47,10.32,10.32,0,0,0-2.72,1.12v32.82a22,22,0,0,1-2.95.56,29.94,29.94,0,0,1-4.18.28,21.77,21.77,0,0,1-3.7-.28,6.35,6.35,0,0,1-2.77-1.12,5.4,5.4,0,0,1-1.73-2.3,9.87,9.87,0,0,1-.61-3.8V210.49l3.05-.51a25.14,25.14,0,0,1,4.08-.33,21.85,21.85,0,0,1,3.7.28,6.36,6.36,0,0,1,2.76,1.12,5.5,5.5,0,0,1,1.74,2.3,9.9,9.9,0,0,1,.61,3.8v9.19a32.4,32.4,0,0,1,3.7-1.08,22.9,22.9,0,0,1,5.49-.61q9.29,0,14.48,4.64t5.21,13.83Z"/>
      <path class="cls-1" d="M314.3,273.12A33,33,0,0,1,304,271.58a23.24,23.24,0,0,1-8.25-4.65,21.42,21.42,0,0,1-5.53-7.78,27.47,27.47,0,0,1-2-11,25.57,25.57,0,0,1,2-10.64A20.55,20.55,0,0,1,303.05,226a27.79,27.79,0,0,1,8.62-1.36,26.07,26.07,0,0,1,9.05,1.5,21.93,21.93,0,0,1,7,4.12,18.55,18.55,0,0,1,4.6,6.29,19.26,19.26,0,0,1,1.64,8,6.41,6.41,0,0,1-1.78,4.87,8.89,8.89,0,0,1-5,2.16L304.08,255a7.75,7.75,0,0,0,4.22,4.64,16.54,16.54,0,0,0,7.31,1.55,26.11,26.11,0,0,0,7.27-1,22.73,22.73,0,0,0,5.58-2.3,8,8,0,0,1,2.53,2.63,6.77,6.77,0,0,1,1,3.56,6.68,6.68,0,0,1-3.94,6.28,20.58,20.58,0,0,1-6.75,2.16A46.91,46.91,0,0,1,314.3,273.12Zm-2.63-36.84a9.28,9.28,0,0,0-3.89.75,7.72,7.72,0,0,0-4.22,4.54,10.91,10.91,0,0,0-.61,3l16-2.63a7.1,7.1,0,0,0-2.07-3.75A6.91,6.91,0,0,0,311.67,236.28Z"/>
    </g>
    <g>
      <path class="cls-1" d="M24.32,301.78a21.29,21.29,0,0,1-2.91-5.89,25.79,25.79,0,0,1-1.34-8.56c0-5.83,1.3-10.41,3.92-13.7a18.69,18.69,0,0,1,10.2-6.6,481.53,481.53,0,0,1,97.72-14.58,27.43,27.43,0,0,1,2.91,6.59,28.92,28.92,0,0,1,1.35,8.9q0,8.74-3.92,12.73a15.1,15.1,0,0,1-10.2,4.41q-12.45.84-24.88,2.29V390.92a78.81,78.81,0,0,1-7.73,2.31A106.4,106.4,0,0,1,79,395.4a51.56,51.56,0,0,1-9.07.71,14.13,14.13,0,0,1-6.62-1.59,9.24,9.24,0,0,1-4-4.82A24.7,24.7,0,0,1,58,380.56v-87Q41.14,297,24.32,301.78Z"/>
      <path class="cls-1" d="M146.71,281a49.16,49.16,0,0,1,7-1.47,63.73,63.73,0,0,1,10-.71,49.07,49.07,0,0,1,8.85.76,15.11,15.11,0,0,1,6.62,2.84,13.54,13.54,0,0,1,4.14,5.61,24.23,24.23,0,0,1,1.46,9.13v48.19q0,9.19,4.48,13.28c3,2.74,7.32,4.24,13,4.58a33.29,33.29,0,0,0,8.41-.36,28.19,28.19,0,0,0,5-1.43V283a46.7,46.7,0,0,1,7.06-.78,67,67,0,0,1,10,.21,51.9,51.9,0,0,1,8.86,1.55,16.85,16.85,0,0,1,6.61,3.39,15.27,15.27,0,0,1,4.15,6,25.16,25.16,0,0,1,1.45,9.24v68.14c0,7.48-3.14,12.71-9.41,15.77a59.39,59.39,0,0,1-18.72,5.7,114.25,114.25,0,0,1-23.64.85,100.69,100.69,0,0,1-22.31-3.65,53.52,53.52,0,0,1-17.59-8.56,37,37,0,0,1-11.43-14.36c-2.69-5.86-4-13-4-21.32Z"/>
      <path class="cls-1" d="M315.25,402.31a51.84,51.84,0,0,1-7.06.25,75.91,75.91,0,0,1-10-.84,58.73,58.73,0,0,1-8.86-2,18,18,0,0,1-6.61-3.62,15.66,15.66,0,0,1-4.14-6.06,25.31,25.31,0,0,1-1.46-9.27V313.57a17.57,17.57,0,0,1,1.9-8.6,16.91,16.91,0,0,1,5.5-5.85,32.73,32.73,0,0,1,8.85-4,77,77,0,0,1,11.32-2.46,85.3,85.3,0,0,1,12.55-.86,81.44,81.44,0,0,1,13,1.08c7.17,1.17,12.85,3.51,17,7s6.28,8.35,6.28,14.62a20,20,0,0,1-.9,6,23,23,0,0,1-2.24,5.11q-4.71-.79-9.64-1.17a94.86,94.86,0,0,0-9.63-.25q-4.71.13-8.86.47a34.39,34.39,0,0,0-7.06,1.24Z"/>
      <path class="cls-1" d="M407.37,380.58q0,5.84,3.7,8.91t10.42,4.2a43.84,43.84,0,0,0,6.95.58,35.5,35.5,0,0,0,6.28-.44,34.12,34.12,0,0,1,3.47,6,18.28,18.28,0,0,1,1.46,7.52q0,8.52-6.39,12.88t-22.52,1.67c-13.16-2.21-23.28-6.95-30.38-14.14s-10.64-17.52-10.64-31V280.9q2.46-.24,7.06-.24a57.82,57.82,0,0,1,9.75.89q9.86,1.68,15.35,6.09t5.49,15.61V317.6q14.69,2.47,29.37,4.82a46,46,0,0,1,2.57,6.58,27.28,27.28,0,0,1,1.23,8.37c0,5.23-1.16,8.82-3.47,10.77s-5.42,2.61-9.3,2q-10.2-1.67-20.4-3.39Z"/>
      <path class="cls-1" d="M497.7,431.25c-1.65.1-4.07.22-7.29.34a57.29,57.29,0,0,1-9.75-.48,54.65,54.65,0,0,1-8.85-1.88,17.62,17.62,0,0,1-6.61-3.63,15.79,15.79,0,0,1-4.15-6.09,25.57,25.57,0,0,1-1.45-9.3v-130c1.64,0,4.07-.1,7.28-.17a63.14,63.14,0,0,1,9.75.58,57.68,57.68,0,0,1,8.85,1.85A17.65,17.65,0,0,1,492.1,286a15.44,15.44,0,0,1,4.14,6,25.23,25.23,0,0,1,1.46,9.25Z"/>
      <path class="cls-1" d="M579.29,441.27a72.56,72.56,0,0,1-24.55-4.72A58.37,58.37,0,0,1,535,424.07a57.18,57.18,0,0,1-13.22-19.79Q517,392.61,517,377.58q0-14.79,4.83-25a44.75,44.75,0,0,1,12.66-16.35,48.34,48.34,0,0,1,17.93-8.79A72.06,72.06,0,0,1,573,325.21a68.92,68.92,0,0,1,21.63,4,54.12,54.12,0,0,1,16.81,9.65,42.24,42.24,0,0,1,11,14.62,44.66,44.66,0,0,1,3.93,18.86q0,7.62-4.26,11.86c-2.84,2.82-6.8,4.7-11.88,5.57-18.46,3.21-36.91,5.56-55.37,7.26a19.92,19.92,0,0,0,10.09,11.61,38.48,38.48,0,0,0,17.48,4.27,57.45,57.45,0,0,0,17.38-2.24,52.41,52.41,0,0,0,13.33-5.74,18.1,18.1,0,0,1,6,6.07,15.52,15.52,0,0,1,2.47,8.41c0,6.72-3.14,11.89-9.42,15.36a47.47,47.47,0,0,1-16.13,5.39A97,97,0,0,1,579.29,441.27ZM573,353a22.28,22.28,0,0,0-9.3,1.42,17.53,17.53,0,0,0-6.39,4.27,17.71,17.71,0,0,0-3.7,6.06,25.12,25.12,0,0,0-1.46,7q19.17-2,38.33-4.91c-.44-3-2.09-6-4.93-9S578.54,353.19,573,353Z"/>
      <path class="cls-1" d="M736.63,386.15c0,11.34-4.26,21.57-12.78,30.25s-21.07,15-37.65,17.85a87.26,87.26,0,0,1-17.49,1.36,42.36,42.36,0,0,1-13.78-2.48,21,21,0,0,1-9-6.17,15,15,0,0,1-3.24-9.81,18.21,18.21,0,0,1,2.24-9.27,26,26,0,0,1,5.38-6.66,70.54,70.54,0,0,0,14.9,4.7,52.83,52.83,0,0,0,19.39-.09c4.63-.79,8.18-2.14,10.65-4S699,398,699,395.75a4.45,4.45,0,0,0-2.68-4.39c-1.8-.84-4.79-1.23-9-1.24q-3.36-.08-6.72-.21c-13-.45-22.68-3.4-29-8.2S642,369.31,642,359.15a33.26,33.26,0,0,1,3.59-15.32,37,37,0,0,1,10.08-12.2,64,64,0,0,1,15.58-8.9A100.56,100.56,0,0,1,691.35,317a122.57,122.57,0,0,1,15.58-1.94,51.16,51.16,0,0,1,12.67.69,16.69,16.69,0,0,1,8.51,4.15c2.09,2,3.14,4.84,3.14,8.42a22.77,22.77,0,0,1-1.9,9.39,28.78,28.78,0,0,1-4.82,7.47,23.45,23.45,0,0,0-5.38-1c-2.4-.22-5-.33-7.85-.34s-5.71.07-8.63.24a59.89,59.89,0,0,0-8,.93c-4.93,1-8.73,2.17-11.42,3.75s-4,3.53-4,5.92a3.93,3.93,0,0,0,2.24,3.68c1.49.8,4.33,1.3,8.52,1.44q3.47.15,7,.24c14.34.43,24.54,2.25,30.59,6.36S736.63,377,736.63,386.15Z"/>
    </g>
    <g>
      <path class="cls-2" d="M115.4,115.56q-11.3-3.86-20.54-7.83A62.8,62.8,0,0,1,79,98.1a39.84,39.84,0,0,1-10.4-13.47Q64.83,76.8,64.83,65.5q0-21.81,16.81-34.91t47.11-13.1A129.39,129.39,0,0,1,149.29,19a61.77,61.77,0,0,1,16.3,4.75A28.46,28.46,0,0,1,176.24,32a18.6,18.6,0,0,1,3.85,11.68A20.46,20.46,0,0,1,177,55.1a31.79,31.79,0,0,1-7.44,8.09,58.49,58.49,0,0,0-15.15-6.29,75.81,75.81,0,0,0-20.79-2.7q-11.55,0-16.94,3.21t-5.4,8.09a7.47,7.47,0,0,0,3.34,6.29,34.51,34.51,0,0,0,10,4.49l13.61,4.37q24.12,7.69,37.09,19.63t13,32.48q0,21.83-17.2,35.3t-50.57,13.47a118,118,0,0,1-22-1.92A69.35,69.35,0,0,1,80.87,174a32.63,32.63,0,0,1-11.8-9.24A20.26,20.26,0,0,1,64.83,152a19.27,19.27,0,0,1,4.36-12.71,33.38,33.38,0,0,1,9.5-8.08A69.43,69.43,0,0,0,96.28,141,61.24,61.24,0,0,0,119,145.08q12.57,0,17.71-3.85t5.13-9a8.78,8.78,0,0,0-4.1-7.83,53.36,53.36,0,0,0-11.56-5.27Z"/>
      <path class="cls-2" d="M263.27,48.81a105.5,105.5,0,0,1,25.28,2.83,56.48,56.48,0,0,1,19.51,8.6,38.84,38.84,0,0,1,12.45,14.63q4.37,8.85,4.37,20.92V153.3a15.94,15.94,0,0,1-3.73,10.91,37.05,37.05,0,0,1-8.85,7.31q-16.69,10-47,10A107.48,107.48,0,0,1,240.8,179a58.28,58.28,0,0,1-18.74-7.7A35.34,35.34,0,0,1,210,158.17a38.65,38.65,0,0,1-4.24-18.48q0-17.72,10.53-27.21t32.6-11.81l33.63-3.59v-1.8A11,11,0,0,0,276,84.63q-6.54-3.21-18.87-3.21a87.21,87.21,0,0,0-19,2,101.39,101.39,0,0,0-16.69,5.13,17.8,17.8,0,0,1-5.65-7.06,22.28,22.28,0,0,1-2.31-9.88q0-6.68,3.21-10.65t9.89-6.81a77.42,77.42,0,0,1,17.58-4.1A151.86,151.86,0,0,1,263.27,48.81Zm2.05,100.89a56.5,56.5,0,0,0,9.63-.9,23.31,23.31,0,0,0,7.83-2.44V125.83l-18.49,1.54a28.41,28.41,0,0,0-11.81,3.08,8.29,8.29,0,0,0-4.62,7.7,10.2,10.2,0,0,0,4,8.34C254.49,148.64,259,149.7,265.32,149.7Z"/>
      <path class="cls-2" d="M431.93,174.09q-3.6,2.82-10.53,4.62a62.41,62.41,0,0,1-15.66,1.8,52.51,52.51,0,0,1-17.33-2.57q-7.31-2.56-10.14-8.21-2.31-4.36-5.52-12.2T366,140.08q-3.6-9.63-7.44-20.67t-7.32-21.82q-3.46-10.78-6.29-20.79t-4.62-17.72a33.27,33.27,0,0,1,22.85-9q9,0,14.76,3.72t8.6,14l10,39.28q2.82,11.55,5.39,20.92t3.85,14.5H407q4.86-19,10.26-42.1T427.05,55a41,41,0,0,1,9.88-3.59,47.32,47.32,0,0,1,10.66-1.28q9,0,15.14,3.85t6.16,13.35A54.53,54.53,0,0,1,467,79.23Q465,87.07,462.09,97t-6.93,20.92q-4,11-8.09,21.56T439,159.07Q435,168.19,431.93,174.09Z"/>
      <path class="cls-2" d="M553.1,181.53A90.11,90.11,0,0,1,525,177.3a63.63,63.63,0,0,1-22.59-12.71,58.85,58.85,0,0,1-15.15-21.31q-5.52-12.83-5.52-30,0-16.95,5.52-29.14a56.36,56.36,0,0,1,35-31.57,76.58,76.58,0,0,1,23.62-3.73,71.47,71.47,0,0,1,24.77,4.11,59.74,59.74,0,0,1,19.26,11.3,50.13,50.13,0,0,1,12.57,17.2,52.6,52.6,0,0,1,4.5,21.82q0,8.73-4.88,13.35t-13.61,5.9l-63.4,9.5q2.82,8.47,11.55,12.71a45.32,45.32,0,0,0,20,4.23,71.94,71.94,0,0,0,19.9-2.69A63.34,63.34,0,0,0,591.86,140a21.36,21.36,0,0,1,6.93,7.19,18.43,18.43,0,0,1,2.83,9.75q0,11.55-10.79,17.2a57,57,0,0,1-18.48,5.9A129.85,129.85,0,0,1,553.1,181.53ZM545.91,80.65a25.47,25.47,0,0,0-10.66,2A21.44,21.44,0,0,0,527.94,88a21.76,21.76,0,0,0-4.24,7.19,29.67,29.67,0,0,0-1.67,8.09l43.9-7.19c-.51-3.42-2.4-6.84-5.64-10.27S552.24,80.65,545.91,80.65Z"/>
    </g>
    <g>
      <path class="cls-2" d="M222.79,238.68a3.84,3.84,0,0,0,1.54,3.46,7.83,7.83,0,0,0,4.36,1,18.41,18.41,0,0,0,2.91-.24,15.76,15.76,0,0,0,2.63-.61,12,12,0,0,1,1.45,2.3,6.91,6.91,0,0,1,.61,3.05,7.25,7.25,0,0,1-2.67,5.81c-1.78,1.5-4.93,2.25-9.43,2.25q-8.25,0-12.7-3.75T207,239.8V199.67c.68-.19,1.67-.39,3-.61a24.08,24.08,0,0,1,4.08-.33,12,12,0,0,1,6.42,1.46c1.53,1,2.3,3,2.3,6.14v6h12.28a16.33,16.33,0,0,1,1.08,2.58,10.86,10.86,0,0,1,.51,3.42q0,3.28-1.45,4.73a5.27,5.27,0,0,1-3.89,1.46h-8.53Z"/>
      <path class="cls-2" d="M289.36,254.24a21.93,21.93,0,0,1-3,.56,29.69,29.69,0,0,1-4.17.28,21.77,21.77,0,0,1-3.7-.28,6.35,6.35,0,0,1-2.77-1.12,5.4,5.4,0,0,1-1.73-2.3,9.87,9.87,0,0,1-.61-3.8V226.77q0-3.84-1.92-5.39a7.34,7.34,0,0,0-4.74-1.55,13.31,13.31,0,0,0-3.56.47,10.32,10.32,0,0,0-2.72,1.12v32.82a22,22,0,0,1-3,.56,29.94,29.94,0,0,1-4.18.28,21.77,21.77,0,0,1-3.7-.28,6.35,6.35,0,0,1-2.77-1.12,5.4,5.4,0,0,1-1.73-2.3,9.87,9.87,0,0,1-.61-3.8V193.2l3.05-.51a25.14,25.14,0,0,1,4.08-.33,21.85,21.85,0,0,1,3.7.28,6.36,6.36,0,0,1,2.76,1.12,5.5,5.5,0,0,1,1.74,2.3,9.9,9.9,0,0,1,.61,3.8v9.19a32.4,32.4,0,0,1,3.7-1.08,22.9,22.9,0,0,1,5.49-.61q9.29,0,14.48,4.64t5.21,13.83Z"/>
      <path class="cls-2" d="M323.3,255.83A33,33,0,0,1,313,254.29a23.08,23.08,0,0,1-8.25-4.65,21.42,21.42,0,0,1-5.53-7.78,27.47,27.47,0,0,1-2-11,25.57,25.57,0,0,1,2-10.64,20.55,20.55,0,0,1,12.8-11.53,27.79,27.79,0,0,1,8.62-1.36,26.07,26.07,0,0,1,9.05,1.5,21.93,21.93,0,0,1,7,4.12,18.55,18.55,0,0,1,4.6,6.29,19.26,19.26,0,0,1,1.64,8,6.41,6.41,0,0,1-1.78,4.87,8.89,8.89,0,0,1-5,2.16l-23.16,3.47a7.75,7.75,0,0,0,4.22,4.64,16.54,16.54,0,0,0,7.31,1.55,26.11,26.11,0,0,0,7.27-1,22.73,22.73,0,0,0,5.58-2.3,8,8,0,0,1,2.53,2.63,6.77,6.77,0,0,1,1,3.56,6.68,6.68,0,0,1-3.94,6.28,20.58,20.58,0,0,1-6.75,2.16A46.91,46.91,0,0,1,323.3,255.83ZM320.67,219a9.28,9.28,0,0,0-3.89.75,7.72,7.72,0,0,0-4.22,4.54,10.91,10.91,0,0,0-.61,3l16-2.63a7.1,7.1,0,0,0-2.07-3.75A6.91,6.91,0,0,0,320.67,219Z"/>
    </g>
    <g>
      <path class="cls-2" d="M33.32,285.17a21.29,21.29,0,0,1-2.91-5.89,25.54,25.54,0,0,1-1.34-8.56c0-5.83,1.3-10.41,3.92-13.7a18.69,18.69,0,0,1,10.2-6.6,483.85,483.85,0,0,1,97.72-14.68,27.51,27.51,0,0,1,2.91,6.58,28.94,28.94,0,0,1,1.35,8.91c0,5.83-1.31,10.06-3.92,12.74a15.2,15.2,0,0,1-10.2,4.42q-12.44.86-24.88,2.32V374.26a80,80,0,0,1-7.73,2.32q-5.28,1.37-10.43,2.18a52.64,52.64,0,0,1-9.07.72,14.13,14.13,0,0,1-6.62-1.59,9.25,9.25,0,0,1-4-4.81A24.76,24.76,0,0,1,67,363.93V277Q50.14,280.39,33.32,285.17Z"/>
      <path class="cls-2" d="M155.71,264.31a47.52,47.52,0,0,1,7-1.48,64.92,64.92,0,0,1,10-.74,49.13,49.13,0,0,1,8.85.75,15.17,15.17,0,0,1,6.61,2.83,13.36,13.36,0,0,1,4.15,5.6,24.23,24.23,0,0,1,1.46,9.13v48.19c0,6.13,1.49,10.54,4.48,13.27s7.32,4.23,13,4.55a33.16,33.16,0,0,0,8.41-.38,28.08,28.08,0,0,0,5-1.44V266.14a47.43,47.43,0,0,1,7.06-.8,67,67,0,0,1,10,.19,53,53,0,0,1,8.86,1.53,16.77,16.77,0,0,1,6.61,3.38,15.16,15.16,0,0,1,4.15,5.95,25.29,25.29,0,0,1,1.45,9.24v68.13c0,7.48-3.14,12.72-9.41,15.8a59.39,59.39,0,0,1-18.72,5.74,114.78,114.78,0,0,1-23.64.91,100.73,100.73,0,0,1-22.31-3.62,53.25,53.25,0,0,1-17.59-8.51,37.08,37.08,0,0,1-11.43-14.35c-2.69-5.85-4-12.94-4-21.32Z"/>
      <path class="cls-2" d="M324.25,385.19a49.49,49.49,0,0,1-7.06.27,75.74,75.74,0,0,1-10-.81,57.23,57.23,0,0,1-8.85-1.94,17.76,17.76,0,0,1-6.62-3.6,15.51,15.51,0,0,1-4.14-6.05,25.1,25.1,0,0,1-1.46-9.27V296.55a17.62,17.62,0,0,1,1.9-8.6,17,17,0,0,1,5.5-5.87,33,33,0,0,1,8.85-4,76.91,76.91,0,0,1,11.32-2.49,86.63,86.63,0,0,1,12.55-.89,82.65,82.65,0,0,1,13,1q10.75,1.74,17,6.93t6.28,14.6a20,20,0,0,1-.9,6,23.28,23.28,0,0,1-2.24,5.12q-4.71-.79-9.64-1.15c-3.28-.23-6.5-.31-9.63-.22s-6.09.26-8.86.5a34.33,34.33,0,0,0-7.06,1.25Z"/>
      <path class="cls-2" d="M416.37,363.21q0,5.84,3.7,8.9t10.42,4.17a42.61,42.61,0,0,0,6.95.56,35.34,35.34,0,0,0,6.28-.46,34.12,34.12,0,0,1,3.47,6,18.23,18.23,0,0,1,1.46,7.51q0,8.52-6.39,12.89c-4.26,2.92-11.76,3.52-22.52,1.74-13.16-2.17-23.28-6.88-30.38-14.05S378.72,373,378.72,359.57V263.64q2.46-.25,7.06-.27a58.76,58.76,0,0,1,9.75.87q9.86,1.65,15.35,6.05t5.49,15.59v14.35q14.69,2.43,29.37,4.74a45.14,45.14,0,0,1,2.57,6.57,27.28,27.28,0,0,1,1.23,8.37q0,7.84-3.47,10.78t-9.3,2q-10.2-1.63-20.4-3.33Z"/>
      <path class="cls-2" d="M506.7,413.64c-1.65.11-4.07.23-7.29.36a57.24,57.24,0,0,1-9.75-.45,54.73,54.73,0,0,1-8.85-1.86,17.6,17.6,0,0,1-6.61-3.62,15.68,15.68,0,0,1-4.15-6.08,25.27,25.27,0,0,1-1.45-9.29v-130q2.46-.09,7.28-.19a63.08,63.08,0,0,1,9.75.55,57.79,57.79,0,0,1,8.85,1.83,17.49,17.49,0,0,1,6.62,3.52,15.32,15.32,0,0,1,4.14,6,25.14,25.14,0,0,1,1.46,9.24Z"/>
      <path class="cls-2" d="M588.29,423.48a72.74,72.74,0,0,1-24.55-4.67A58.27,58.27,0,0,1,544,406.37a57.35,57.35,0,0,1-13.23-19.76Q526,375,526,359.93c0-9.87,1.61-18.18,4.82-25a45,45,0,0,1,12.67-16.37,48.43,48.43,0,0,1,17.93-8.84A72.09,72.09,0,0,1,582,307.43a68.64,68.64,0,0,1,21.63,3.93A53.87,53.87,0,0,1,620.45,321a42.16,42.16,0,0,1,11,14.6,44.93,44.93,0,0,1,3.93,18.86q0,7.62-4.26,11.87c-2.84,2.82-6.8,4.7-11.88,5.58-18.46,3.25-36.91,5.63-55.37,7.37a19.85,19.85,0,0,0,10.09,11.59,38.47,38.47,0,0,0,17.48,4.23,57.35,57.35,0,0,0,17.37-2.27,52.83,52.83,0,0,0,13.34-5.76,18,18,0,0,1,6,6.06,15.58,15.58,0,0,1,2.47,8.41c0,6.71-3.14,11.89-9.42,15.37a47.27,47.27,0,0,1-16.13,5.41A96.23,96.23,0,0,1,588.29,423.48ZM582,335.23a22.29,22.29,0,0,0-9.3,1.44A17.22,17.22,0,0,0,562.62,347a25.12,25.12,0,0,0-1.46,7c12.78-1.34,25.56-3,38.33-5-.44-3-2.09-6-4.93-9S587.54,335.4,582,335.23Z"/>
      <path class="cls-2" d="M745.63,368.18c0,11.34-4.26,21.57-12.78,30.26s-21.06,14.95-37.65,17.86a86.63,86.63,0,0,1-17.49,1.38,42.38,42.38,0,0,1-13.78-2.46,20.82,20.82,0,0,1-9-6.17,14.93,14.93,0,0,1-3.26-9.8A18.34,18.34,0,0,1,654,390a26.05,26.05,0,0,1,5.38-6.67,69.8,69.8,0,0,0,14.9,4.68,52.44,52.44,0,0,0,19.39-.11c4.63-.79,8.18-2.14,10.65-4S708,380,708,377.8a4.45,4.45,0,0,0-2.68-4.39c-1.8-.84-4.79-1.23-9-1.24q-3.36-.07-6.72-.2c-13-.44-22.68-3.37-29-8.17s-9.52-12.39-9.53-22.54a33.31,33.31,0,0,1,3.59-15.33,37,37,0,0,1,10.09-12.22,64.1,64.1,0,0,1,15.57-8.91A101.42,101.42,0,0,1,700.35,299a120.89,120.89,0,0,1,15.58-2,50.24,50.24,0,0,1,12.67.69,16.6,16.6,0,0,1,8.51,4.14c2.09,2,3.14,4.84,3.14,8.42a22.77,22.77,0,0,1-1.9,9.39,28.83,28.83,0,0,1-4.82,7.48,23.35,23.35,0,0,0-5.38-1q-3.58-.32-7.85-.33c-2.84,0-5.71.07-8.63.24a61.31,61.31,0,0,0-8,.94c-4.93,1-8.74,2.18-11.42,3.75s-4,3.54-4,5.93a3.91,3.91,0,0,0,2.24,3.67c1.49.81,4.33,1.31,8.52,1.44q3.47.15,7,.24c14.34.42,24.54,2.24,30.59,6.35S745.63,359.06,745.63,368.18Z"/>
    </g>
    <g>
      <path class="cls-3" d="M115.4,114.85Q104.11,111,94.87,107A62.69,62.69,0,0,1,79,97.39a39.78,39.78,0,0,1-10.4-13.48q-3.72-7.81-3.72-19.12,0-21.81,16.81-34.91t47.11-13.1a129.3,129.3,0,0,1,20.54,1.54,61.77,61.77,0,0,1,16.3,4.75,28.46,28.46,0,0,1,10.65,8.22A18.6,18.6,0,0,1,180.09,43,20.46,20.46,0,0,1,177,54.39a31.79,31.79,0,0,1-7.44,8.09,58.14,58.14,0,0,0-15.15-6.29,75.81,75.81,0,0,0-20.79-2.7q-11.55,0-16.94,3.21t-5.4,8.09a7.49,7.49,0,0,0,3.34,6.29,34.51,34.51,0,0,0,10,4.49l13.61,4.37q24.12,7.69,37.09,19.63t13,32.48q0,21.82-17.2,35.3t-50.57,13.47a118,118,0,0,1-22-1.92,69.35,69.35,0,0,1-17.72-5.65A32.63,32.63,0,0,1,69.07,164a20.26,20.26,0,0,1-4.24-12.71,19.27,19.27,0,0,1,4.36-12.71,33.38,33.38,0,0,1,9.5-8.08,69.74,69.74,0,0,0,17.59,9.75A61.24,61.24,0,0,0,119,144.37q12.57,0,17.71-3.85t5.13-9a8.78,8.78,0,0,0-4.1-7.82,53.36,53.36,0,0,0-11.56-5.27Z"/>
      <path class="cls-3" d="M263.27,48.1a105.44,105.44,0,0,1,25.28,2.83,56.48,56.48,0,0,1,19.51,8.6,38.84,38.84,0,0,1,12.45,14.63q4.37,8.85,4.37,20.92v57.51a15.94,15.94,0,0,1-3.73,10.91,37.05,37.05,0,0,1-8.85,7.31q-16.69,10-47,10a107.48,107.48,0,0,1-24.52-2.56,58.28,58.28,0,0,1-18.74-7.7A35.34,35.34,0,0,1,210,157.46,38.65,38.65,0,0,1,205.76,139q0-17.71,10.53-27.21T248.89,100l33.63-3.59v-1.8A11,11,0,0,0,276,83.91q-6.54-3.19-18.86-3.2a87.23,87.23,0,0,0-19,2.05,101.39,101.39,0,0,0-16.69,5.13,17.8,17.8,0,0,1-5.65-7.06A22.28,22.28,0,0,1,213.46,71q0-6.67,3.21-10.65t9.89-6.81a77.42,77.42,0,0,1,17.58-4.1A151.86,151.86,0,0,1,263.27,48.1ZM265.32,149a57.53,57.53,0,0,0,9.63-.9,23.31,23.31,0,0,0,7.83-2.44V125.12l-18.49,1.54a28.41,28.41,0,0,0-11.81,3.08,8.29,8.29,0,0,0-4.62,7.7,10.21,10.21,0,0,0,4,8.34Q255.82,149,265.32,149Z"/>
      <path class="cls-3" d="M431.93,173.38q-3.6,2.82-10.53,4.62a62.41,62.41,0,0,1-15.66,1.8,52.51,52.51,0,0,1-17.33-2.57q-7.31-2.56-10.14-8.21-2.31-4.36-5.52-12.2T366,139.37q-3.6-9.63-7.44-20.67t-7.32-21.82q-3.46-10.78-6.29-20.79t-4.62-17.72a33.27,33.27,0,0,1,22.85-9q9,0,14.76,3.72t8.6,14l10,39.28q2.82,11.55,5.39,20.92t3.85,14.5H407q4.86-19,10.26-42.1t9.76-45.44a41,41,0,0,1,9.88-3.59,47.32,47.32,0,0,1,10.66-1.28q9,0,15.14,3.85t6.16,13.35A54.53,54.53,0,0,1,467,78.52q-1.94,7.85-4.88,17.72t-6.93,20.92q-4,11-8.09,21.56T439,158.36Q435,167.48,431.93,173.38Z"/>
      <path class="cls-3" d="M553.1,180.82A90.11,90.11,0,0,1,525,176.59a63.63,63.63,0,0,1-22.59-12.71,58.85,58.85,0,0,1-15.15-21.31q-5.52-12.82-5.52-30,0-17,5.52-29.14a56.36,56.36,0,0,1,35-31.57,76.58,76.58,0,0,1,23.62-3.73,71.47,71.47,0,0,1,24.77,4.11,59.74,59.74,0,0,1,19.26,11.3,50.13,50.13,0,0,1,12.57,17.2,52.6,52.6,0,0,1,4.5,21.82q0,8.73-4.88,13.35t-13.61,5.9l-63.4,9.5q2.82,8.47,11.55,12.71a45.32,45.32,0,0,0,20,4.23,71.94,71.94,0,0,0,19.9-2.69,63.34,63.34,0,0,0,15.27-6.29,21.42,21.42,0,0,1,6.93,7.18,18.49,18.49,0,0,1,2.83,9.76q0,11.55-10.79,17.2a57,57,0,0,1-18.48,5.9A129.85,129.85,0,0,1,553.1,180.82ZM545.91,79.94a25.47,25.47,0,0,0-10.66,2,21.44,21.44,0,0,0-7.31,5.26,21.76,21.76,0,0,0-4.24,7.19,29.67,29.67,0,0,0-1.67,8.09l43.9-7.19c-.51-3.42-2.4-6.84-5.64-10.27S552.24,79.94,545.91,79.94Z"/>
    </g>
    <g>
      <path class="cls-3" d="M222.79,238a3.84,3.84,0,0,0,1.54,3.47,7.83,7.83,0,0,0,4.36,1,18.41,18.41,0,0,0,2.91-.24,15.76,15.76,0,0,0,2.63-.61,12,12,0,0,1,1.45,2.3,6.91,6.91,0,0,1,.61,3.05,7.25,7.25,0,0,1-2.67,5.81c-1.78,1.5-4.93,2.25-9.43,2.25q-8.25,0-12.7-3.75T207,239.09V199c.68-.19,1.67-.39,3-.61a24.08,24.08,0,0,1,4.08-.33,12,12,0,0,1,6.42,1.46c1.53,1,2.3,3,2.3,6.14v6h12.28a15.93,15.93,0,0,1,1.08,2.58,10.86,10.86,0,0,1,.51,3.42q0,3.28-1.45,4.73a5.27,5.27,0,0,1-3.89,1.46h-8.53Z"/>
      <path class="cls-3" d="M289.36,253.53a21.93,21.93,0,0,1-3,.56,29.69,29.69,0,0,1-4.17.28,21.77,21.77,0,0,1-3.7-.28,6.35,6.35,0,0,1-2.77-1.12,5.4,5.4,0,0,1-1.73-2.3,9.87,9.87,0,0,1-.61-3.8V226.06c0-2.57-.64-4.36-1.92-5.39a7.29,7.29,0,0,0-4.74-1.55,13.31,13.31,0,0,0-3.56.47,10.32,10.32,0,0,0-2.72,1.12v32.82a22,22,0,0,1-3,.56,29.94,29.94,0,0,1-4.18.28,21.77,21.77,0,0,1-3.7-.28,6.35,6.35,0,0,1-2.77-1.12,5.4,5.4,0,0,1-1.73-2.3,9.87,9.87,0,0,1-.61-3.8V192.49l3.05-.51a25.14,25.14,0,0,1,4.08-.33,21.85,21.85,0,0,1,3.7.28,6.36,6.36,0,0,1,2.76,1.12,5.5,5.5,0,0,1,1.74,2.3,9.9,9.9,0,0,1,.61,3.8v9.19a32.4,32.4,0,0,1,3.7-1.08,22.9,22.9,0,0,1,5.49-.61q9.29,0,14.48,4.64t5.21,13.83Z"/>
      <path class="cls-3" d="M323.3,255.12A33,33,0,0,1,313,253.58a23.24,23.24,0,0,1-8.25-4.65,21.42,21.42,0,0,1-5.53-7.78,27.47,27.47,0,0,1-2-11,25.57,25.57,0,0,1,2-10.64A20.55,20.55,0,0,1,312.05,208a27.79,27.79,0,0,1,8.62-1.36,26.07,26.07,0,0,1,9.05,1.5,21.93,21.93,0,0,1,7,4.12,18.55,18.55,0,0,1,4.6,6.29,19.26,19.26,0,0,1,1.64,8,6.41,6.41,0,0,1-1.78,4.87,8.89,8.89,0,0,1-5,2.16L313.08,237a7.75,7.75,0,0,0,4.22,4.64,16.54,16.54,0,0,0,7.31,1.55,26.11,26.11,0,0,0,7.27-1,22.73,22.73,0,0,0,5.58-2.3,8,8,0,0,1,2.53,2.63,6.77,6.77,0,0,1,1,3.56,6.68,6.68,0,0,1-3.94,6.28,20.58,20.58,0,0,1-6.75,2.16A46.91,46.91,0,0,1,323.3,255.12Zm-2.63-36.84a9.28,9.28,0,0,0-3.89.75,7.72,7.72,0,0,0-4.22,4.54,10.91,10.91,0,0,0-.61,3l16-2.63a7.1,7.1,0,0,0-2.07-3.75A6.91,6.91,0,0,0,320.67,218.28Z"/>
    </g>
    <g>
      <path class="cls-3" d="M33.32,289.39a21,21,0,0,1-2.91-5.9,25.56,25.56,0,0,1-1.34-8.57c0-5.83,1.3-10.4,3.92-13.68a18.65,18.65,0,0,1,10.2-6.57,514.06,514.06,0,0,1,97.72-15.11,27,27,0,0,1,2.91,6.55,28.77,28.77,0,0,1,1.35,8.89c0,5.83-1.31,10.08-3.92,12.78a15.34,15.34,0,0,1-10.2,4.52q-12.45,1-24.88,2.51V378.36a80.44,80.44,0,0,1-7.73,2.36A104,104,0,0,1,88,383a51,51,0,0,1-9.07.75,14,14,0,0,1-6.62-1.57,9.23,9.23,0,0,1-4-4.8A25,25,0,0,1,67,368.19v-87Q50.14,284.65,33.32,289.39Z"/>
      <path class="cls-3" d="M155.7,268a48.16,48.16,0,0,1,7.06-1.57,66,66,0,0,1,10-.86,49.74,49.74,0,0,1,8.85.63,15.05,15.05,0,0,1,6.62,2.73,13.2,13.2,0,0,1,4.14,5.55,24,24,0,0,1,1.46,9.1v48.19q0,9.19,4.48,13.21c3,2.69,7.32,4.11,13,4.34a33.26,33.26,0,0,0,8.41-.51,28.73,28.73,0,0,0,5-1.53V268.8a47.81,47.81,0,0,1,7.06-.92,67.72,67.72,0,0,1,10,0,51.75,51.75,0,0,1,8.86,1.37,16.4,16.4,0,0,1,6.61,3.25,14.8,14.8,0,0,1,4.15,5.87,25.12,25.12,0,0,1,1.45,9.21v68.14c0,7.48-3.14,12.77-9.41,16a60.41,60.41,0,0,1-18.72,6.09,114.26,114.26,0,0,1-23.64,1.3,98.87,98.87,0,0,1-22.31-3.27,52.44,52.44,0,0,1-17.59-8.28,36.31,36.31,0,0,1-11.43-14.2q-4-8.73-4-21.27Z"/>
      <path class="cls-3" d="M324.25,385.89a51.79,51.79,0,0,1-7.06.42,74.63,74.63,0,0,1-10-.6,57,57,0,0,1-8.85-1.75,17.4,17.4,0,0,1-6.62-3.46,15.25,15.25,0,0,1-4.14-6,24.86,24.86,0,0,1-1.46-9.24V298.05a17.84,17.84,0,0,1,1.9-8.64,17.44,17.44,0,0,1,5.5-6,33.9,33.9,0,0,1,8.85-4.22,79.15,79.15,0,0,1,11.32-2.73,86.18,86.18,0,0,1,12.55-1.16,82.26,82.26,0,0,1,13,.76c7.17,1,12.85,3.19,17,6.55s6.28,8.18,6.28,14.46a20.19,20.19,0,0,1-.9,6,23.29,23.29,0,0,1-2.24,5.17c-3.13-.45-6.35-.76-9.64-.92a93.77,93.77,0,0,0-9.63,0q-4.71.24-8.86.69a34.86,34.86,0,0,0-7.06,1.41Z"/>
      <path class="cls-3" d="M416.37,361.85q0,5.82,3.7,8.82t10.42,3.94a44,44,0,0,0,6.95.4,35.23,35.23,0,0,0,6.28-.6,33.06,33.06,0,0,1,3.47,6,18,18,0,0,1,1.46,7.48q0,8.52-6.39,13c-4.26,3-11.76,3.77-22.52,2.23Q400,400.3,389.36,389.75t-10.64-30.7V263.12c1.64-.21,4-.34,7.06-.42a57.5,57.5,0,0,1,9.75.64q9.86,1.44,15.35,5.71t5.49,15.47v14.34q14.69,2.11,29.37,4.1a45.3,45.3,0,0,1,2.57,6.51,27.41,27.41,0,0,1,1.23,8.35q0,7.85-3.47,10.85t-9.3,2.21q-10.2-1.41-20.4-2.88Z"/>
      <path class="cls-3" d="M506.7,410.36c-1.65.14-4.07.31-7.29.5a57,57,0,0,1-9.75-.26,53.45,53.45,0,0,1-8.85-1.67,17.25,17.25,0,0,1-6.61-3.48,15.31,15.31,0,0,1-4.15-6,25,25,0,0,1-1.45-9.25v-130c1.64-.1,4.06-.21,7.28-.35a62.7,62.7,0,0,1,9.75.35,56.4,56.4,0,0,1,8.85,1.65,17.15,17.15,0,0,1,6.62,3.38,15,15,0,0,1,4.14,5.91,25,25,0,0,1,1.46,9.22Z"/>
      <path class="cls-3" d="M588.28,418.8a72.37,72.37,0,0,1-24.54-4.3A57.18,57.18,0,0,1,544,402.39a56,56,0,0,1-13.23-19.52Q526,371.31,526,356.27q0-14.79,4.82-25.06a46.16,46.16,0,0,1,12.67-16.6,49.17,49.17,0,0,1,17.93-9.14A72,72,0,0,1,582,302.84a67.87,67.87,0,0,1,21.63,3.63,53.06,53.06,0,0,1,16.81,9.41,41.49,41.49,0,0,1,11,14.49,44.49,44.49,0,0,1,3.93,18.81q0,7.62-4.26,11.92c-2.84,2.85-6.81,4.77-11.88,5.71-18.46,3.46-36.91,6.1-55.37,8.14a19.45,19.45,0,0,0,10.09,11.43,38.12,38.12,0,0,0,17.48,4,57.37,57.37,0,0,0,17.37-2.5,53.76,53.76,0,0,0,13.34-5.91,17.66,17.66,0,0,1,6,6,15.43,15.43,0,0,1,2.47,8.38c0,6.72-3.14,11.93-9.42,15.47a47.92,47.92,0,0,1-16.13,5.61A98.59,98.59,0,0,1,588.28,418.8ZM582,330.63a22.51,22.51,0,0,0-9.3,1.59,17.6,17.6,0,0,0-10.09,10.51,25.4,25.4,0,0,0-1.46,7q19.17-2.31,38.33-5.56c-.44-3-2.09-6-4.93-8.95S587.54,330.73,582,330.63Z"/>
      <path class="cls-3" d="M745.63,362.56c0,11.34-4.26,21.54-12.78,30.21s-21.06,14.93-37.65,17.89a88.36,88.36,0,0,1-17.48,1.45,42.46,42.46,0,0,1-13.79-2.38,20.89,20.89,0,0,1-9-6.1,15,15,0,0,1-3.25-9.78,18.34,18.34,0,0,1,2.25-9.29,26.43,26.43,0,0,1,5.38-6.71,70.06,70.06,0,0,0,14.9,4.59,53,53,0,0,0,19.39-.2c4.63-.8,8.18-2.16,10.65-4s3.69-3.88,3.69-6.12a4.45,4.45,0,0,0-2.68-4.39c-1.8-.84-4.79-1.22-9-1.21q-3.36-.07-6.72-.19c-13-.39-22.68-3.25-29-8S651,346,651,335.86a33.45,33.45,0,0,1,3.59-15.35,37.36,37.36,0,0,1,10.08-12.29,63.86,63.86,0,0,1,15.58-9,99.43,99.43,0,0,1,20.06-5.83,119.46,119.46,0,0,1,15.58-2,50.17,50.17,0,0,1,12.67.7,16.69,16.69,0,0,1,8.51,4.15c2.09,2.05,3.14,4.85,3.14,8.44a22.69,22.69,0,0,1-1.9,9.38,28.33,28.33,0,0,1-4.83,7.46,23.8,23.8,0,0,0-5.37-1c-2.4-.22-5-.33-7.85-.34s-5.72.07-8.63.24a61.13,61.13,0,0,0-8,1c-4.93,1-8.74,2.2-11.42,3.78s-4,3.55-4,5.94a3.92,3.92,0,0,0,2.24,3.67c1.49.79,4.34,1.28,8.52,1.4,2.31.1,4.63.17,7,.23,14.34.4,24.54,2.24,30.59,6.36S745.63,353.44,745.63,362.56Z"/>
    </g>
  </g>
</svg>
