<svg id="Background" xmlns="http://www.w3.org/2000/svg" xmlns:xlink="http://www.w3.org/1999/xlink" viewBox="0 0 1920 1080">
  <defs>
    <style>
      .cls-1 {
        fill: none;
      }

      .cls-2 {
        clip-path: url(#clip-path);
      }

      .cls-3 {
        fill: #68c7ed;
      }

      .cls-4 {
        fill: #72d1f8;
      }

      .cls-5 {
        fill: #84d8fa;
      }

      .cls-6 {
        fill: #bdf8ff;
      }

      .cls-7 {
        fill: #c57ce1;
      }

      .cls-8 {
        fill: #cb87e5;
      }

      .cls-9 {
        fill: #d096e7;
      }

      .cls-10 {
        fill: #b868dd;
      }
    </style>
    <clipPath id="clip-path">
      <rect class="cls-1" width="1920" height="1079.96"/>
    </clipPath>
  </defs>
  <g class="cls-2">
    <rect class="cls-3" y="392.03" width="1920" height="688.48"/>
    <path class="cls-4" d="M0,629.71s130-54,206.73,0,169.87,0,169.87,0,107.76-54,190,0,202.74,0,202.74,0,85.85-60.79,186.3,0,211.88-1.5,211.88-1.5,100.46-57.43,206.39,1.31,195.44,0,195.44,0,107.76-49.73,186.3,0,164.39,0,164.39,0v451H0Z"/>
    <path class="cls-5" d="M0,834.73s130-29.4,206.73,0,169.87,0,169.87,0,107.76-29.4,190,0,202.74,0,202.74,0,85.85-33.08,186.3,0,211.88-.82,211.88-.82,100.46-31.24,206.39.71,195.44,0,195.44,0,107.76-27,186.3,0,164.39,0,164.39,0V1080H0Z"/>
    <rect id="Sky" class="cls-6" width="1920" height="392.03"/>
    <path class="cls-7" d="M743.7,182.18s7.91-7.84,11.3,0L919.34,393.25H564.11Z"/>
    <path class="cls-8" d="M546.83,299.06s3.72-3.49,5.32,0l109.1,94.19H456Z"/>
    <path class="cls-9" d="M888.6,302.37s3.22-3.38,4.6,0L960,393.25H830.11Z"/>
    <circle class="cls-10" cx="731.1" cy="288.6" r="9.13"/>
    <circle class="cls-10" cx="769.8" cy="288.6" r="9.13"/>
    <path class="cls-10" d="M725.5,313.15s25.93,31,49.9,0h-2.64s-17.65,27.3-45.09,0Z"/>
    <circle class="cls-10" cx="539.45" cy="347.3" r="4.95"/>
    <circle class="cls-10" cx="560.4" cy="347.3" r="4.95"/>
    <path class="cls-10" d="M536.41,360.6s14,16.8,27,0h-1.74s-9.13,14.36-23.64,0Z"/>
    <circle class="cls-10" cx="882.78" cy="346.16" r="4.59"/>
    <circle class="cls-10" cx="902.21" cy="346.16" r="4.59"/>
    <path class="cls-10" d="M881.74,359.09s11.18,13.12,21.5,0Z"/>
  </g>
</svg>
