<svg xmlns="http://www.w3.org/2000/svg" viewBox="0 0 747 975">
  <defs>
    <style>
      .cls-1 {
        fill: #8a8a8a;
      }

      .cls-2 {
        fill: #fff;
      }

      .cls-3 {
        fill: #5e5e5e;
      }
    </style>
  </defs>
  <g id="Layer_3" data-name="Layer 3">
    <g>
      <path class="cls-1" d="M319.15,261.53s110.11,94.92,241.09,163.26S714,576.66,714,576.66s66.45,129.09-28.47,275.27S376.1,973.43,376.1,973.43,248.91,984.82,106.53,869,5.92,555.78,5.92,555.78,36.29,428.59,127.41,299.5s55.06-191.74,55.06-191.74L155.89,60.3S133,3.08,176.15,13.1c34.52,8,44.28,41.51,44.28,41.51s9.5,5.69,41.77-47.46c0,0,30.37-26.58,28.47,22.78S217,183.49,319.15,261.53Z"/>
      <g>
        <path d="M132,370.93l150.87,66.49s9.38,53.7-11.08,74.16-40.06-89.5-40.06-89.5Z"/>
        <path class="cls-2" d="M238.88,426.8l18.63,8.93L263.4,507S245.5,479.75,238.88,426.8Z"/>
      </g>
      <g>
        <path d="M450.91,283.43,361.68,422.07s21.78,50,50.13,55.77-15.91-96.76-15.91-96.76Z"/>
        <path class="cls-2" d="M392.5,389,381.88,406.7l34.39,62.73S416.17,436.81,392.5,389Z"/>
      </g>
      <path d="M305,565.4,440.4,501.14s-16.67,78.48-53.95,106.44C386.45,607.58,370.75,610.52,305,565.4Z"/>
      <path class="cls-3" d="M315.05,786.12s-6-1.65-14.08-28.47,4.06-51,4.06-51,18.28-6,68.47,14.75,124.62,46.94,124.62,46.94,40.24,10.73,38.23-26.15c0,0-22.13-104.61-8.05-144.85S594,547.76,594,547.76s12.74-11.4-9.39-37.56c0,0,43.59,19.45,31.52,56.33,0,0-38.23-6-55,37.56s2.68,137.47,2.68,137.47,12.74,59.68-67.06,56.33-176.36-64.38-176.36-64.38S309,734.13,315.05,786.12Z"/>
    </g>
  </g>
</svg>
