<svg xmlns="http://www.w3.org/2000/svg" viewBox="0 0 1626 880">
  <defs>
    <style>
      .cls-1 {
        fill: #ffcf92;
      }

      .cls-2 {
        fill: #ffbd60;
      }

      .cls-3 {
        fill: #73cd91;
      }

      .cls-4 {
        fill: #62b07b;
      }

      .cls-5 {
        fill: #3ca173;
      }

      .cls-6 {
        fill: #cdff97;
      }

      .cls-7 {
        fill: #35664f;
      }

      .cls-8 {
        fill: #74cd91;
      }

      .cls-9 {
        fill: #f9a0ca;
      }

      .cls-10 {
        fill: #f495c7;
      }
    </style>
  </defs>
  <g id="Win">
    <rect class="cls-1" x="0.5" y="0.26" width="1625.01" height="879.48"/>
    <rect class="cls-2" x="56.48" y="163.52" width="662.02" height="554.96" rx="48.12"/>
    <g>
      <path class="cls-3" d="M138.29,488.76s-13.42-2.72-35.82-27.2S82.55,423.8,82.55,423.8s2.53-9.73,14.94,0c21.16,16.6,51.61,23.8,51.61,23.8l-10.81,41.16"/>
      <path class="cls-4" d="M255.38,571.77s-6.73,52.14,9.67,92.09,26.07-2.52,26.07-2.52,7.36-19.86,21.86-36.14c10.72-12,17.24-43.33,13.88-48S297.42,523,255.38,571.77Z"/>
      <path class="cls-4" d="M597.23,458.25s34.87,41.6,36.62,92c0,0,3.23,11.14-5.86,17.58s-17.57-11.72-17.57-11.72-6.74-12.6-26.37-24.61-48.64-18.16-63.58-54.2S570.86,421.33,597.23,458.25Z"/>
      <path class="cls-5" d="M132.1,508l27.43-104.37s1.52-17.52,16-24.37c0,0,57.72-47.82,77.53-57.73,0,0,16.52-10.38,30.2-12.26,0,0,95.79-27.31,153.34-21.15,0,0,42.34,1.79,54,21L574,404.86S408.62,713.56,132.1,508Z"/>
      <path class="cls-6" d="M152.06,521.38s111.1,90,240,45.74S559,432.93,559,432.93l-48.25,22.46L468,457.9l-40.74,19.28-54.37,37.9-54,5.29-60.46-10.58-41.31-.5-26.2,12.09Z"/>
      <path class="cls-3" d="M257.64,520.54s11.65,20.59-19.89,74.12-77.59,67.63-77.59,67.63-12.44,3.73-17.84,19.5-16.18,8.71-16.18,8.71-10-5.81-2.07-55.18,25.65-75.93,25.65-75.93,25-46.89,55.25-52.28,52.67,13.43,52.67,13.43"/>
      <ellipse class="cls-4" cx="172.06" cy="554.82" rx="11.68" ry="6.81" transform="translate(-361.47 325.1) rotate(-49.48)"/>
      <ellipse class="cls-4" cx="162.72" cy="574.59" rx="7.21" ry="5.9" transform="translate(-379.77 324.93) rotate(-49.48)"/>
      <ellipse class="cls-4" cx="179.96" cy="567.62" rx="6.13" ry="5.39" transform="translate(-408.61 477.27) rotate(-63.68)"/>
      <path class="cls-3" d="M505.69,471s41.43,40.8,40.38,138.64c0,0-7.35,28-20.18,8.85S491,584.57,491,584.57s-37.37-14.75-59.49-45.73-16.72-60.47-16.72-60.47S458.5,428.72,505.69,471Z"/>
      <ellipse class="cls-4" cx="518.9" cy="523.45" rx="6.85" ry="10.03" transform="translate(-147 207.48) rotate(-19.87)"/>
      <ellipse class="cls-4" cx="521.54" cy="542.65" rx="7.48" ry="6.64" transform="translate(-153.37 209.52) rotate(-19.87)"/>
      <circle class="cls-4" cx="507.92" cy="535.1" r="5.1"/>
      <path class="cls-7" d="M132.66,506.76s6.93,4.51,11.08,6.55,25.7,0,25.7,0,26.13-10.58,29.73-11.08,23.74-4,28.71-4,23.53-.58,29.22,0,19.88,6.06,24.19,7.56,31.74,4,31.74,4,19,.78,23.17,0,18.28-2.58,21.67-4l17.63-7.56s16-7.51,19.15-10.08l18.14-14.61,18.13-11.59s17.74-10.57,22.68-11.58l22.16-4.54,24.69-2.52,17.63-5.54,10.08-7.33,11.59-3.25,6.55,3,5.54,6.57-7.05,9.07-11.09,9.07s-8.77,4.41-12.59,6.55-19.58,4.08-15.62,3.53-21.47.91-25.79,1.55-17.94,2.13-22.58,3.74-26.2,15.87-26.2,15.87-15.7,11.3-12.59,9.07-5,5.16-9.07,8.06S380,519.86,380,519.86l-17.13,6a65.06,65.06,0,0,1-15.62,3.53c-8.58.8-48,.51-55.42,0s-15.32-4.07-22.67-5.55l-17.64-3.52s-2.79-1.28-14.61-2-31.24,4.54-31.24,4.54S184,531.8,175,533.47s-20.49.78-28.21,0a53.52,53.52,0,0,1-14.11-3.53,43.23,43.23,0,0,0-7.56-4.53c-3.95-1.77-5.54-8.57-5.54-8.57s-.63-5.1,3-8.56S132.66,506.76,132.66,506.76Z"/>
      <ellipse class="cls-8" cx="546.07" cy="326.97" rx="144.95" ry="133.05"/>
      <path class="cls-9" d="M603,386.78c-1.42,11.12-1.36,13.24-17.13,18.94-5.48,2-11.18,10.87.86-24.56,4.32-12.69,4.68-23,8.26-22.77C604,359,604.6,374,603,386.78Z"/>
      <path class="cls-10" d="M588.59,405.47c11.12-19.8,8.47-40.47,8.15-42.55A95.77,95.77,0,0,1,588.59,405.47Z"/>
      <path d="M618.06,364.49c-18.51,78.06-93.14,30.25-93.14,30.25V391s74.66,47.51,88.54-26.55h4.6Z"/>
      <ellipse class="cls-4" cx="466.75" cy="230.92" rx="12.37" ry="6.85" transform="translate(-46.69 317.86) rotate(-35.93)"/>
      <ellipse class="cls-4" cx="447.84" cy="244.63" rx="5.73" ry="3.74" transform="translate(-58.33 309.36) rotate(-35.93)"/>
      <circle class="cls-4" cx="482.42" cy="218.41" r="3.29"/>
      <ellipse class="cls-4" cx="460.97" cy="247.52" rx="5.73" ry="4.87" transform="translate(117.53 642.25) rotate(-77.21)"/>
      <path d="M508.59,320.24c-50.68-37-54.92,22.1-54.92,22.1l7.28-2.91s4.17-44,40.71-16.53Z"/>
      <path d="M638,284c-44.69-44-57.58,13.78-57.58,13.78l6.22-1.47s10.28-46.34,45.1-10.85Z"/>
      <path d="M506.43,402.65c29.53,1.7,17.9-24.75,17.9-24.75l-2.06,2.83s8.18,20.79-14.26,19.64Z"/>
      <path d="M603.33,352.13s10.33,27,30.13,5l-3.72-.7s-12.82,17.29-23.61-3.88Z"/>
    </g>
  </g>
</svg>
